font.ufo
<glyph name="exclam" format="2">
	<unicode hex="0021"/>
	<advance width="242"/>
	<outline>
		<contour>
			<point x="92" y="172" type="line"/>
			<point x="116" y="172" type="line"/>
			<point x="204" y="608" type="line"/>
			<point x="216" y="672" type="line"/>
			<point x="188" y="672" type="line"/>
		</contour>
		<contour>
			<point x="70" y="-12" type="curve" smooth="yes"/>
			<point x="92" y="-12"/>
			<point x="110" y="10"/>
			<point x="110" y="32" type="curve" smooth="yes"/>
			<point x="110" y="50"/>
			<point x="102" y="64"/>
			<point x="84" y="64" type="curve" smooth="yes"/>
			<point x="62" y="64"/>
			<point x="42" y="40"/>
			<point x="42" y="18" type="curve" smooth="yes"/>
			<point x="42" y="2"/>
			<point x="52" y="-12"/>
		</contour>
	</outline>
</glyph>
<glyph name="parenright" format="2">
	<unicode hex="0029"/>
	<advance width="262"/>
	<outline>
		<contour>
			<point x="-36" y="-174" type="line"/>
			<point x="108" y="-38"/>
			<point x="196" y="178"/>
			<point x="196" y="422" type="curve" smooth="yes"/>
			<point x="196" y="532"/>
			<point x="174" y="652"/>
			<point x="140" y="730" type="curve"/>
			<point x="120" y="724" type="line"/>
			<point x="152" y="644"/>
			<point x="168" y="528"/>
			<point x="168" y="428" type="curve" smooth="yes"/>
			<point x="168" y="196"/>
			<point x="88" y="-28"/>
			<point x="-54" y="-160" type="curve"/>
		</contour>
	</outline>
</glyph>
<glyph name="asterisk" format="2">
	<unicode hex="002A"/>
	<advance width="374"/>
	<outline>
		<contour>
			<point x="178" y="488" type="line"/>
			<point x="252" y="560" type="line"/>
			<point x="298" y="476" type="line"/>
			<point x="318" y="488" type="line"/>
			<point x="280" y="578" type="line"/>
			<point x="376" y="604" type="line"/>
			<point x="372" y="626" type="line"/>
			<point x="278" y="612" type="line"/>
			<point x="286" y="710" type="line"/>
			<point x="264" y="712" type="line"/>
			<point x="244" y="614" type="line"/>
			<point x="152" y="646" type="line"/>
			<point x="144" y="626" type="line"/>
			<point x="226" y="582" type="line"/>
			<point x="162" y="502" type="line"/>
		</contour>
	</outline>
</glyph>
<glyph name="four" format="2">
	<unicode hex="0034"/>
	<advance width="456"/>
	<outline>
		<contour>
			<point x="296" y="0" type="line"/>
			<point x="335" y="194" type="line"/>
			<point x="426" y="194" type="line"/>
			<point x="432" y="220" type="line"/>
			<point x="340" y="220" type="line"/>
			<point x="424" y="640" type="line"/>
			<point x="404" y="640" type="line"/>
			<point x="22" y="210" type="line"/>
			<point x="20" y="194" type="line"/>
			<point x="307" y="194" type="line"/>
			<point x="268" y="0" type="line"/>
		</contour>
		<contour>
			<point x="66" y="220" type="line"/>
			<point x="306" y="490" type="line" smooth="yes"/>
			<point x="331" y="518"/>
			<point x="358" y="550"/>
			<point x="386" y="586" type="curve"/>
			<point x="390" y="586" type="line"/>
			<point x="380" y="544"/>
			<point x="368" y="501"/>
			<point x="362" y="470" type="curve" smooth="yes"/>
			<point x="312" y="220" type="line"/>
		</contour>
	</outline>
</glyph>
<glyph name="six" format="2">
	<unicode hex="0036"/>
	<advance width="456"/>
	<outline>
		<contour>
			<point x="212" y="-12" type="curve" smooth="yes"/>
			<point x="320" y="-12"/>
			<point x="408" y="86"/>
			<point x="408" y="212" type="curve" smooth="yes"/>
			<point x="408" y="308"/>
			<point x="352" y="378"/>
			<point x="254" y="378" type="curve" smooth="yes"/>
			<point x="201" y="378"/>
			<point x="131" y="350"/>
			<point x="80" y="288" type="curve"/>
			<point x="78" y="250" type="line"/>
			<point x="139" y="330"/>
			<point x="215" y="350"/>
			<point x="252" y="350" type="curve" smooth="yes"/>
			<point x="336" y="350"/>
			<point x="380" y="292"/>
			<point x="380" y="202" type="curve" smooth="yes"/>
			<point x="380" y="102"/>
			<point x="300" y="14"/>
			<point x="214" y="14" type="curve" smooth="yes"/>
			<point x="130" y="14"/>
			<point x="80" y="94"/>
			<point x="80" y="202" type="curve" smooth="yes"/>
			<point x="80" y="414"/>
			<point x="199" y="626"/>
			<point x="342" y="626" type="curve" smooth="yes"/>
			<point x="386" y="626"/>
			<point x="416" y="604"/>
			<point x="440" y="562" type="curve"/>
			<point x="462" y="576" type="line"/>
			<point x="438" y="622"/>
			<point x="402" y="652"/>
			<point x="344" y="652" type="curve" smooth="yes"/>
			<point x="178" y="652"/>
			<point x="52" y="436"/>
			<point x="52" y="196" type="curve" smooth="yes"/>
			<point x="52" y="76"/>
			<point x="112" y="-12"/>
		</contour>
	</outline>
</glyph>
<glyph name="seven" format="2">
	<unicode hex="0037"/>
	<advance width="456"/>
	<outline>
		<contour>
			<point x="136" y="0" type="curve"/>
			<point x="168" y="0" type="line"/>
			<point x="218" y="224"/>
			<point x="288" y="410"/>
			<point x="488" y="620" type="curve"/>
			<point x="492" y="640" type="line"/>
			<point x="120" y="640" type="line"/>
			<point x="114" y="614" type="line"/>
			<point x="450" y="614" type="line"/>
			<point x="268" y="416"/>
			<point x="192" y="234"/>
		</contour>
	</outline>
</glyph>
<glyph name="eight" format="2">
	<unicode hex="0038"/>
	<advance width="456"/>
	<outline>
		<contour>
			<point x="206" y="-12" type="curve" smooth="yes"/>
			<point x="315" y="-12"/>
			<point x="406" y="53"/>
			<point x="406" y="162" type="curve" smooth="yes"/>
			<point x="406" y="237"/>
			<point x="348" y="293"/>
			<point x="316" y="316" type="curve"/>
			<point x="316" y="320" type="line"/>
			<point x="392" y="362"/>
			<point x="450" y="414"/>
			<point x="450" y="502" type="curve" smooth="yes"/>
			<point x="450" y="601"/>
			<point x="384" y="652"/>
			<point x="308" y="652" type="curve" smooth="yes"/>
			<point x="215" y="652"/>
			<point x="138" y="593"/>
			<point x="138" y="494" type="curve" smooth="yes"/>
			<point x="138" y="436"/>
			<point x="156" y="399"/>
			<point x="196" y="360" type="curve"/>
			<point x="196" y="356" type="line"/>
			<point x="114" y="320"/>
			<point x="34" y="258"/>
			<point x="34" y="156" type="curve" smooth="yes"/>
			<point x="34" y="46"/>
			<point x="118" y="-12"/>
		</contour>
		<contour>
			<point x="292" y="332" type="curve"/>
			<point x="214" y="370"/>
			<point x="166" y="412"/>
			<point x="166" y="496" type="curve" smooth="yes"/>
			<point x="166" y="578"/>
			<point x="234" y="626"/>
			<point x="306" y="626" type="curve" smooth="yes"/>
			<point x="366" y="626"/>
			<point x="422" y="583"/>
			<point x="422" y="500" type="curve" smooth="yes"/>
			<point x="422" y="422"/>
			<point x="358" y="366"/>
		</contour>
		<contour>
			<point x="208" y="14" type="curve" smooth="yes"/>
			<point x="134" y="14"/>
			<point x="62" y="64"/>
			<point x="62" y="158" type="curve" smooth="yes"/>
			<point x="62" y="246"/>
			<point x="126" y="298"/>
			<point x="216" y="342" type="curve"/>
			<point x="299" y="297"/>
			<point x="378" y="251"/>
			<point x="378" y="156" type="curve" smooth="yes"/>
			<point x="378" y="65"/>
			<point x="292" y="14"/>
		</contour>
	</outline>
</glyph>
<glyph name="nine" format="1">
	<unicode hex="0039"/>
	<advance width="456"/>
	<outline>
		<contour>
			<point x="148" y="-12" type="curve" smooth="yes"/>
			<point x="308" y="-12"/>
			<point x="430" y="184"/>
			<point x="430" y="444" type="curve" smooth="yes"/>
			<point x="430" y="564"/>
			<point x="370" y="652"/>
			<point x="270" y="652" type="curve" smooth="yes"/>
			<point x="164" y="652"/>
			<point x="78" y="554"/>
			<point x="78" y="428" type="curve" smooth="yes"/>
			<point x="78" y="332"/>
			<point x="134" y="262"/>
			<point x="232" y="262" type="curve" smooth="yes"/>
			<point x="284" y="262"/>
			<point x="352" y="290"/>
			<point x="402" y="352" type="curve"/>
			<point x="404" y="390" type="line"/>
			<point x="344" y="310"/>
			<point x="270" y="290"/>
			<point x="234" y="290" type="curve" smooth="yes"/>
			<point x="150" y="290"/>
			<point x="106" y="348"/>
			<point x="106" y="438" type="curve" smooth="yes"/>
			<point x="106" y="538"/>
			<point x="184" y="626"/>
			<point x="268" y="626" type="curve" smooth="yes"/>
			<point x="352" y="626"/>
			<point x="402" y="546"/>
			<point x="402" y="438" type="curve" smooth="yes"/>
			<point x="402" y="206"/>
			<point x="288" y="14"/>
			<point x="150" y="14" type="curve" smooth="yes"/>
			<point x="104" y="14"/>
			<point x="72" y="36"/>
			<point x="48" y="80" type="curve"/>
			<point x="24" y="64" type="line"/>
			<point x="50" y="18"/>
			<point x="88" y="-12"/>
		</contour>
	</outline>
</glyph>
<glyph name="question" format="2">
	<unicode hex="003F"/>
	<advance width="380"/>
	<outline>
		<contour>
			<point x="144" y="176" type="curve"/>
			<point x="170" y="174" type="line"/>
			<point x="178" y="338"/>
			<point x="386" y="388"/>
			<point x="386" y="554" type="curve" smooth="yes"/>
			<point x="386" y="634"/>
			<point x="338" y="682"/>
			<point x="258" y="682" type="curve" smooth="yes"/>
			<point x="198" y="682"/>
			<point x="142" y="650"/>
			<point x="110" y="614" type="curve"/>
			<point x="128" y="594" type="line"/>
			<point x="160" y="630"/>
			<point x="208" y="656"/>
			<point x="256" y="656" type="curve" smooth="yes"/>
			<point x="320" y="656"/>
			<point x="358" y="616"/>
			<point x="358" y="548" type="curve" smooth="yes"/>
			<point x="358" y="402"/>
			<point x="150" y="352"/>
		</contour>
		<contour>
			<point x="126" y="-12" type="curve" smooth="yes"/>
			<point x="148" y="-12"/>
			<point x="166" y="10"/>
			<point x="166" y="32" type="curve" smooth="yes"/>
			<point x="166" y="50"/>
			<point x="158" y="64"/>
			<point x="140" y="64" type="curve" smooth="yes"/>
			<point x="118" y="64"/>
			<point x="98" y="40"/>
			<point x="98" y="18" type="curve" smooth="yes"/>
			<point x="98" y="2"/>
			<point x="108" y="-12"/>
		</contour>
	</outline>
</glyph>
<glyph name="A" format="2">
	<unicode hex="0041"/>
	<advance width="480"/>
	<outline>
		<contour>
			<point x="-42" y="0" type="line"/>
			<point x="-12" y="0" type="line"/>
			<point x="204" y="396" type="line" smooth="yes"/>
			<point x="246" y="474"/>
			<point x="286" y="544"/>
			<point x="326" y="626" type="curve"/>
			<point x="330" y="626" type="line"/>
			<point x="338" y="546"/>
			<point x="348" y="470"/>
			<point x="356" y="396" type="curve" smooth="yes"/>
			<point x="404" y="0" type="line"/>
			<point x="434" y="0" type="line"/>
			<point x="350" y="660" type="line"/>
			<point x="320" y="660" type="line"/>
		</contour>
		<contour>
			<point x="104" y="238" type="line"/>
			<point x="386" y="238" type="line"/>
			<point x="392" y="264" type="line"/>
			<point x="112" y="264" type="line"/>
		</contour>
	</outline>
	<anchor name="aboveUC" x="330" y="682"/>
	<anchor name="belowLC" x="210" y="-22"/>
	<anchor name="ogonekUC" x="408" y="0"/>
</glyph>
<glyph name="B" format="2">
	<unicode hex="0042"/>
	<advance width="550"/>
	<outline>
		<contour>
			<point x="40" y="0" type="line"/>
			<point x="230" y="0" type="line" smooth="yes"/>
			<point x="388" y="0"/>
			<point x="494" y="66"/>
			<point x="494" y="206" type="curve" smooth="yes"/>
			<point x="494" y="290"/>
			<point x="432" y="334"/>
			<point x="368" y="348" type="curve"/>
			<point x="368" y="352" type="line"/>
			<point x="430" y="362"/>
			<point x="518" y="418"/>
			<point x="518" y="518" type="curve" smooth="yes"/>
			<point x="518" y="606"/>
			<point x="450" y="660"/>
			<point x="328" y="660" type="curve" smooth="yes"/>
			<point x="172" y="660" type="line"/>
		</contour>
		<contour>
			<point x="142" y="364" type="line"/>
			<point x="196" y="634" type="line"/>
			<point x="312" y="634" type="line" smooth="yes"/>
			<point x="434" y="634"/>
			<point x="488" y="590"/>
			<point x="488" y="516" type="curve" smooth="yes"/>
			<point x="488" y="428"/>
			<point x="412" y="364"/>
			<point x="260" y="364" type="curve" smooth="yes"/>
		</contour>
		<contour>
			<point x="74" y="26" type="line"/>
			<point x="138" y="338" type="line"/>
			<point x="278" y="338" type="line" smooth="yes"/>
			<point x="396" y="338"/>
			<point x="464" y="288"/>
			<point x="464" y="203" type="curve" smooth="yes"/>
			<point x="464" y="74"/>
			<point x="362" y="26"/>
			<point x="212" y="26" type="curve" smooth="yes"/>
		</contour>
	</outline>
	<anchor name="aboveUC" x="350" y="682"/>
	<anchor name="belowLC" x="250" y="-22"/>
</glyph>
<glyph name="I" format="1">
	<unicode hex="0049"/>
	<advance width="218"/>
	<outline>
		<contour>
			<point x="40" y="0" type="line"/>
			<point x="70" y="0" type="line"/>
			<point x="202" y="660" type="line"/>
			<point x="172" y="660" type="line"/>
		</contour>
		<contour>
			<point name="aboveUC" x="190" y="682" type="move"/>
		</contour>
		<contour>
			<point name="belowLC" x="50" y="-22" type="move"/>
		</contour>
		<contour>
			<point name="ogonekUC" x="50" y="0" type="move"/>
		</contour>
	</outline>
</glyph>
<glyph name="J" format="2">
	<unicode hex="004A"/>
	<advance width="428"/>
	<outline>
		<contour>
			<point x="146" y="-12" type="curve" smooth="yes"/>
			<point x="240" y="-12"/>
			<point x="304" y="58"/>
			<point x="324" y="168" type="curve" smooth="yes"/>
			<point x="422" y="660" type="line"/>
			<point x="392" y="660" type="line"/>
			<point x="294" y="170" type="line" smooth="yes"/>
			<point x="276" y="78"/>
			<point x="226" y="14"/>
			<point x="148" y="14" type="curve" smooth="yes"/>
			<point x="84" y="14"/>
			<point x="46" y="42"/>
			<point x="24" y="100" type="curve"/>
			<point x="2" y="90" type="line"/>
			<point x="22" y="28"/>
			<point x="66" y="-12"/>
		</contour>
	</outline>
	<anchor name="aboveUC" x="410" y="682"/>
	<anchor name="belowLC" x="130" y="-22"/>
</glyph>
<glyph name="T" format="1">
	<unicode hex="0054"/>
	<advance width="492"/>
	<outline>
		<contour>
			<point x="180" y="0" type="line"/>
			<point x="210" y="0" type="line"/>
			<point x="336" y="632" type="line"/>
			<point x="542" y="632" type="line"/>
			<point x="548" y="660" type="line"/>
			<point x="106" y="660" type="line"/>
			<point x="100" y="632" type="line"/>
			<point x="306" y="632" type="line"/>
		</contour>
		<contour>
			<point name="aboveUC" x="330" y="682" type="move"/>
		</contour>
		<contour>
			<point name="baseLC" x="190" y="0" type="move"/>
		</contour>
		<contour>
			<point name="belowLC" x="190" y="-22" type="move"/>
		</contour>
	</outline>
</glyph>
<glyph name="U" format="1">
	<unicode hex="0055"/>
	<advance width="594"/>
	<outline>
		<contour>
			<point x="90" y="262" type="line" smooth="yes"/>
			<point x="84" y="230"/>
			<point x="82" y="206"/>
			<point x="82" y="180" type="curve" smooth="yes"/>
			<point x="82" y="58"/>
			<point x="152" y="-12"/>
			<point x="268" y="-12" type="curve" smooth="yes"/>
			<point x="368" y="-12"/>
			<point x="464" y="50"/>
			<point x="500" y="230" type="curve" smooth="yes"/>
			<point x="586" y="660" type="line"/>
			<point x="556" y="660" type="line"/>
			<point x="472" y="238" type="line" smooth="yes"/>
			<point x="440" y="76"/>
			<point x="358" y="14"/>
			<point x="272" y="14" type="curve" smooth="yes"/>
			<point x="166" y="14"/>
			<point x="112" y="78"/>
			<point x="112" y="188" type="curve" smooth="yes"/>
			<point x="112" y="212"/>
			<point x="114" y="238"/>
			<point x="122" y="270" type="curve" smooth="yes"/>
			<point x="200" y="660" type="line"/>
			<point x="170" y="660" type="line"/>
		</contour>
		<contour>
			<point name="aboveUC" x="394" y="682" type="move"/>
		</contour>
		<contour>
			<point name="hornLC" x="570" y="670" type="move"/>
		</contour>
		<contour>
			<point name="ogonekUC" x="260" y="0" type="move"/>
		</contour>
		<contour>
			<point name="belowLC" x="248" y="-22" type="move"/>
		</contour>
	</outline>
</glyph>
<glyph name="Y" format="1">
	<unicode hex="0059"/>
	<advance width="422"/>
	<outline>
		<contour>
			<point x="140" y="0" type="line"/>
			<point x="170" y="0" type="line"/>
			<point x="225" y="273" type="line"/>
			<point x="498" y="660" type="line"/>
			<point x="466" y="660" type="line"/>
			<point x="315" y="445" type="line" smooth="yes"/>
			<point x="282" y="398"/>
			<point x="249" y="349"/>
			<point x="216" y="302" type="curve"/>
			<point x="214" y="302" type="line"/>
			<point x="200" y="351"/>
			<point x="188" y="397"/>
			<point x="175" y="445" type="curve" smooth="yes"/>
			<point x="116" y="660" type="line"/>
			<point x="86" y="660" type="line"/>
			<point x="195" y="273" type="line"/>
		</contour>
		<contour>
			<point name="aboveUC" x="290" y="682" type="move"/>
		</contour>
		<contour>
			<point name="belowLC" x="150" y="-22" type="move"/>
		</contour>
	</outline>
</glyph>
<glyph name="b" format="2">
	<unicode hex="0062"/>
	<advance width="522"/>
	<outline>
		<contour>
			<point x="216" y="-12" type="curve" smooth="yes"/>
			<point x="348" y="-12"/>
			<point x="476" y="134"/>
			<point x="476" y="318" type="curve" smooth="yes"/>
			<point x="476" y="430"/>
			<point x="420" y="490"/>
			<point x="336" y="490" type="curve" smooth="yes"/>
			<point x="268" y="490"/>
			<point x="206" y="450"/>
			<point x="154" y="408" type="curve"/>
			<point x="152" y="408" type="line"/>
			<point x="172" y="506" type="line"/>
			<point x="216" y="722" type="line"/>
			<point x="188" y="722" type="line"/>
			<point x="44" y="0" type="line"/>
			<point x="68" y="0" type="line"/>
			<point x="86" y="68" type="line"/>
			<point x="90" y="68" type="line"/>
			<point x="116" y="20"/>
			<point x="158" y="-12"/>
		</contour>
		<contour>
			<point x="218" y="14" type="curve" smooth="yes"/>
			<point x="170" y="14"/>
			<point x="130" y="40"/>
			<point x="92" y="106" type="curve"/>
			<point x="146" y="372" type="line"/>
			<point x="204" y="424"/>
			<point x="278" y="464"/>
			<point x="334" y="464" type="curve" smooth="yes"/>
			<point x="404" y="464"/>
			<point x="448" y="413"/>
			<point x="448" y="312" type="curve" smooth="yes"/>
			<point x="448" y="164"/>
			<point x="338" y="14"/>
		</contour>
	</outline>
	<anchor name="aboveUC" x="380" y="732"/>
	<anchor name="belowLC" x="220" y="-22"/>
	<anchor name="center" x="190" y="600"/>
</glyph>
<glyph name="h" format="2">
	<unicode hex="0068"/>
	<advance width="504"/>
	<outline>
		<contour>
			<point x="44" y="0" type="line"/>
			<point x="72" y="0" type="line"/>
			<point x="144" y="358" type="line"/>
			<point x="220" y="432"/>
			<point x="280" y="464"/>
			<point x="324" y="464" type="curve" smooth="yes"/>
			<point x="388" y="464"/>
			<point x="414" y="432"/>
			<point x="414" y="370" type="curve" smooth="yes"/>
			<point x="414" y="350"/>
			<point x="412" y="336"/>
			<point x="406" y="306" type="curve" smooth="yes"/>
			<point x="344" y="0" type="line"/>
			<point x="372" y="0" type="line"/>
			<point x="434" y="310" type="line" smooth="yes"/>
			<point x="440" y="338"/>
			<point x="442" y="350"/>
			<point x="442" y="374" type="curve" smooth="yes"/>
			<point x="442" y="442"/>
			<point x="410" y="490"/>
			<point x="328" y="490" type="curve" smooth="yes"/>
			<point x="270" y="490"/>
			<point x="216" y="452"/>
			<point x="152" y="398" type="curve"/>
			<point x="148" y="398" type="line"/>
			<point x="160" y="444" type="line"/>
			<point x="216" y="722" type="line"/>
			<point x="188" y="722" type="line"/>
		</contour>
	</outline>
	<anchor name="aboveUC" x="370" y="732"/>
	<anchor name="belowLC" x="220" y="-22"/>
</glyph>
<glyph name="l" format="2">
	<unicode hex="006C"/>
	<advance width="226"/>
	<outline>
		<contour>
			<point x="86" y="-12" type="curve" smooth="yes"/>
			<point x="98" y="-12"/>
			<point x="104" y="-10"/>
			<point x="114" y="-6" type="curve"/>
			<point x="108" y="16" type="line"/>
			<point x="100" y="14"/>
			<point x="98" y="14"/>
			<point x="94" y="14" type="curve" smooth="yes"/>
			<point x="84" y="14"/>
			<point x="80" y="20"/>
			<point x="80" y="28" type="curve" smooth="yes"/>
			<point x="80" y="32"/>
			<point x="80" y="38"/>
			<point x="82" y="48" type="curve" smooth="yes"/>
			<point x="216" y="722" type="line"/>
			<point x="188" y="722" type="line"/>
			<point x="54" y="50" type="line" smooth="yes"/>
			<point x="52" y="40"/>
			<point x="50" y="30"/>
			<point x="50" y="24" type="curve" smooth="yes"/>
			<point x="50" y="0"/>
			<point x="66" y="-12"/>
		</contour>
	</outline>
	<anchor name="aboveUC" x="210" y="730"/>
	<anchor name="belowLC" x="70" y="-22"/>
</glyph>
<glyph name="m" format="2">
	<unicode hex="006D"/>
	<advance width="776"/>
	<outline>
		<contour>
			<point x="44" y="0" type="line"/>
			<point x="72" y="0" type="line"/>
			<point x="144" y="358" type="line"/>
			<point x="214" y="432"/>
			<point x="280" y="464"/>
			<point x="312" y="464" type="curve" smooth="yes"/>
			<point x="374" y="464"/>
			<point x="400" y="432"/>
			<point x="400" y="370" type="curve" smooth="yes"/>
			<point x="400" y="350"/>
			<point x="398" y="336"/>
			<point x="392" y="306" type="curve" smooth="yes"/>
			<point x="330" y="0" type="line"/>
			<point x="358" y="0" type="line"/>
			<point x="430" y="358" type="line"/>
			<point x="500" y="432"/>
			<point x="566" y="464"/>
			<point x="598" y="464" type="curve" smooth="yes"/>
			<point x="660" y="464"/>
			<point x="686" y="432"/>
			<point x="686" y="370" type="curve" smooth="yes"/>
			<point x="686" y="350"/>
			<point x="684" y="336"/>
			<point x="678" y="306" type="curve" smooth="yes"/>
			<point x="616" y="0" type="line"/>
			<point x="644" y="0" type="line"/>
			<point x="706" y="310" type="line" smooth="yes"/>
			<point x="712" y="338"/>
			<point x="714" y="350"/>
			<point x="714" y="374" type="curve" smooth="yes"/>
			<point x="714" y="442"/>
			<point x="682" y="490"/>
			<point x="602" y="490" type="curve" smooth="yes"/>
			<point x="556" y="490"/>
			<point x="494" y="454"/>
			<point x="426" y="388" type="curve"/>
			<point x="424" y="442"/>
			<point x="396" y="490"/>
			<point x="316" y="490" type="curve" smooth="yes"/>
			<point x="270" y="490"/>
			<point x="210" y="452"/>
			<point x="156" y="400" type="curve"/>
			<point x="152" y="400" type="line"/>
			<point x="164" y="478" type="line"/>
			<point x="140" y="478" type="line"/>
		</contour>
	</outline>
	<anchor name="aboveLC" x="460" y="502"/>
	<anchor name="belowLC" x="350" y="-22"/>
</glyph>
<glyph name="q" format="2">
	<unicode hex="0071"/>
	<advance width="520"/>
	<outline>
		<contour>
			<point x="310" y="-222" type="line"/>
			<point x="338" y="-222" type="line"/>
			<point x="478" y="478" type="line"/>
			<point x="454" y="478" type="line"/>
			<point x="436" y="410" type="line"/>
			<point x="432" y="410" type="line"/>
			<point x="406" y="458"/>
			<point x="364" y="490"/>
			<point x="306" y="490" type="curve" smooth="yes"/>
			<point x="174" y="490"/>
			<point x="46" y="344"/>
			<point x="46" y="160" type="curve" smooth="yes"/>
			<point x="46" y="48"/>
			<point x="102" y="-12"/>
			<point x="186" y="-12" type="curve" smooth="yes"/>
			<point x="254" y="-12"/>
			<point x="316" y="26"/>
			<point x="368" y="80" type="curve"/>
			<point x="370" y="80" type="line"/>
			<point x="346" y="-42" type="line"/>
		</contour>
		<contour>
			<point x="188" y="14" type="curve" smooth="yes"/>
			<point x="118" y="14"/>
			<point x="74" y="64"/>
			<point x="74" y="166" type="curve" smooth="yes"/>
			<point x="74" y="314"/>
			<point x="184" y="464"/>
			<point x="304" y="464" type="curve" smooth="yes"/>
			<point x="352" y="464"/>
			<point x="392" y="438"/>
			<point x="430" y="372" type="curve"/>
			<point x="378" y="122" type="line"/>
			<point x="318" y="54"/>
			<point x="254" y="14"/>
		</contour>
	</outline>
	<anchor name="aboveLC" x="318" y="502"/>
	<anchor name="belowLC" x="330" y="-222"/>
</glyph>
<glyph name="v" format="2">
	<unicode hex="0076"/>
	<advance width="408"/>
	<outline>
		<contour>
			<point x="136" y="0" type="line"/>
			<point x="174" y="0" type="line"/>
			<point x="438" y="478" type="line"/>
			<point x="408" y="478" type="line"/>
			<point x="238" y="166" type="line" smooth="yes"/>
			<point x="212" y="120"/>
			<point x="186" y="72"/>
			<point x="162" y="26" type="curve"/>
			<point x="158" y="26" type="line"/>
			<point x="150" y="70"/>
			<point x="144" y="120"/>
			<point x="136" y="166" type="curve" smooth="yes"/>
			<point x="86" y="478" type="line"/>
			<point x="58" y="478" type="line"/>
		</contour>
	</outline>
	<anchor name="aboveLC" x="250" y="502"/>
	<anchor name="belowLC" x="160" y="-22"/>
</glyph>
<glyph name="x" format="2">
	<unicode hex="0078"/>
	<advance width="380"/>
	<outline>
		<contour>
			<point x="-48" y="0" type="line"/>
			<point x="-14" y="0" type="line"/>
			<point x="108" y="138" type="line" smooth="yes"/>
			<point x="138" y="170"/>
			<point x="164" y="198"/>
			<point x="188" y="228" type="curve"/>
			<point x="192" y="228" type="line"/>
			<point x="206" y="198"/>
			<point x="220" y="166"/>
			<point x="232" y="136" type="curve" smooth="yes"/>
			<point x="286" y="0" type="line"/>
			<point x="316" y="0" type="line"/>
			<point x="212" y="246" type="line"/>
			<point x="416" y="478" type="line"/>
			<point x="384" y="478" type="line"/>
			<point x="272" y="352" type="line" smooth="yes"/>
			<point x="248" y="324"/>
			<point x="224" y="298"/>
			<point x="200" y="272" type="curve"/>
			<point x="196" y="272" type="line"/>
			<point x="184" y="300"/>
			<point x="176" y="322"/>
			<point x="164" y="352" type="curve" smooth="yes"/>
			<point x="112" y="478" type="line"/>
			<point x="82" y="478" type="line"/>
			<point x="178" y="252" type="line"/>
		</contour>
	</outline>
	<anchor name="aboveLC" x="250" y="502"/>
	<anchor name="belowLC" x="150" y="-22"/>
</glyph>
<glyph name="braceleft" format="2">
	<unicode hex="007B"/>
	<advance width="260"/>
	<outline>
		<contour>
			<point x="130" y="-152" type="curve" smooth="yes"/>
			<point x="160" y="-152" type="line"/>
			<point x="166" y="-130" type="line"/>
			<point x="136" y="-130" type="line" smooth="yes"/>
			<point x="86" y="-130"/>
			<point x="72" y="-110"/>
			<point x="72" y="-70" type="curve" smooth="yes"/>
			<point x="72" y="-2"/>
			<point x="130" y="150"/>
			<point x="130" y="220" type="curve" smooth="yes"/>
			<point x="130" y="240"/>
			<point x="126" y="261"/>
			<point x="94" y="274" type="curve"/>
			<point x="94" y="278" type="line"/>
			<point x="136" y="290"/>
			<point x="154" y="326"/>
			<point x="166" y="384" type="curve" smooth="yes"/>
			<point x="178" y="448"/>
			<point x="186" y="518"/>
			<point x="198" y="578" type="curve" smooth="yes"/>
			<point x="212" y="650"/>
			<point x="234" y="686"/>
			<point x="296" y="686" type="curve" smooth="yes"/>
			<point x="328" y="686" type="line"/>
			<point x="332" y="708" type="line"/>
			<point x="300" y="708" type="line" smooth="yes"/>
			<point x="229" y="708"/>
			<point x="194" y="682"/>
			<point x="174" y="582" type="curve" smooth="yes"/>
			<point x="160" y="514"/>
			<point x="152" y="436"/>
			<point x="140" y="372" type="curve" smooth="yes"/>
			<point x="132" y="332"/>
			<point x="112" y="290"/>
			<point x="42" y="290" type="curve"/>
			<point x="36" y="266" type="line"/>
			<point x="96" y="266"/>
			<point x="106" y="238"/>
			<point x="106" y="214" type="curve" smooth="yes"/>
			<point x="106" y="148"/>
			<point x="46" y="-8"/>
			<point x="46" y="-78" type="curve" smooth="yes"/>
			<point x="46" y="-130"/>
			<point x="73" y="-152"/>
		</contour>
	</outline>
</glyph>
<glyph name="copyright" format="2">
	<unicode hex="00A9"/>
	<advance width="660"/>
	<outline>
		<contour>
			<point x="298" y="-12" type="curve" smooth="yes"/>
			<point x="514" y="-12"/>
			<point x="652" y="190"/>
			<point x="652" y="376" type="curve" smooth="yes"/>
			<point x="652" y="540"/>
			<point x="548" y="652"/>
			<point x="394" y="652" type="curve" smooth="yes"/>
			<point x="178" y="652"/>
			<point x="40" y="450"/>
			<point x="40" y="264" type="curve" smooth="yes"/>
			<point x="40" y="100"/>
			<point x="144" y="-12"/>
		</contour>
		<contour>
			<point x="300" y="12" type="curve" smooth="yes"/>
			<point x="158" y="12"/>
			<point x="66" y="112"/>
			<point x="66" y="268" type="curve" smooth="yes"/>
			<point x="66" y="434"/>
			<point x="194" y="628"/>
			<point x="392" y="628" type="curve" smooth="yes"/>
			<point x="534" y="628"/>
			<point x="626" y="528"/>
			<point x="626" y="372" type="curve" smooth="yes"/>
			<point x="626" y="206"/>
			<point x="498" y="12"/>
		</contour>
		<contour>
			<point x="318" y="130" type="curve" smooth="yes"/>
			<point x="376" y="130"/>
			<point x="412" y="152"/>
			<point x="452" y="182" type="curve"/>
			<point x="438" y="202" type="line"/>
			<point x="402" y="176"/>
			<point x="366" y="156"/>
			<point x="320" y="156" type="curve" smooth="yes"/>
			<point x="254" y="156"/>
			<point x="212" y="198"/>
			<point x="212" y="284" type="curve" smooth="yes"/>
			<point x="212" y="402"/>
			<point x="304" y="488"/>
			<point x="380" y="488" type="curve" smooth="yes"/>
			<point x="416" y="488"/>
			<point x="436" y="476"/>
			<point x="456" y="450" type="curve"/>
			<point x="476" y="464" type="line"/>
			<point x="456" y="496"/>
			<point x="430" y="514"/>
			<point x="382" y="514" type="curve" smooth="yes"/>
			<point x="292" y="514"/>
			<point x="184" y="424"/>
			<point x="184" y="278" type="curve" smooth="yes"/>
			<point x="184" y="178"/>
			<point x="240" y="130"/>
		</contour>
	</outline>
</glyph>
<glyph name="registered" format="2">
	<unicode hex="00AE"/>
	<advance width="376"/>
	<outline>
		<contour>
			<point x="220" y="332" type="curve" smooth="yes"/>
			<point x="326" y="332"/>
			<point x="412" y="433"/>
			<point x="412" y="544" type="curve" smooth="yes"/>
			<point x="412" y="640"/>
			<point x="342" y="706"/>
			<point x="258" y="706" type="curve" smooth="yes"/>
			<point x="150" y="706"/>
			<point x="66" y="603"/>
			<point x="66" y="494" type="curve" smooth="yes"/>
			<point x="66" y="396"/>
			<point x="136" y="332"/>
		</contour>
		<contour>
			<point x="222" y="356" type="curve" smooth="yes"/>
			<point x="140" y="356"/>
			<point x="92" y="416"/>
			<point x="92" y="498" type="curve" smooth="yes"/>
			<point x="92" y="596"/>
			<point x="166" y="682"/>
			<point x="256" y="682" type="curve" smooth="yes"/>
			<point x="336" y="682"/>
			<point x="386" y="622"/>
			<point x="386" y="540" type="curve" smooth="yes"/>
			<point x="386" y="440"/>
			<point x="310" y="356"/>
		</contour>
		<contour>
			<point x="162" y="418" type="line"/>
			<point x="188" y="418" type="line"/>
			<point x="204" y="494" type="line"/>
			<point x="244" y="494" type="line"/>
			<point x="270" y="418" type="line"/>
			<point x="298" y="418" type="line"/>
			<point x="268" y="500" type="line"/>
			<point x="296" y="510"/>
			<point x="318" y="534"/>
			<point x="318" y="566" type="curve" smooth="yes"/>
			<point x="318" y="604"/>
			<point x="296" y="624"/>
			<point x="258" y="624" type="curve" smooth="yes"/>
			<point x="204" y="624" type="line"/>
		</contour>
		<contour>
			<point x="210" y="518" type="line"/>
			<point x="224" y="600" type="line"/>
			<point x="254" y="600" type="line" smooth="yes"/>
			<point x="280" y="600"/>
			<point x="292" y="586"/>
			<point x="292" y="564" type="curve" smooth="yes"/>
			<point x="292" y="534"/>
			<point x="270" y="518"/>
			<point x="236" y="518" type="curve" smooth="yes"/>
		</contour>
	</outline>
</glyph>
<glyph name="Eth" format="2">
	<unicode hex="00D0"/>
	<advance width="590"/>
	<outline>
		<contour>
			<point x="54" y="338" type="line"/>
			<point x="324" y="338" type="line"/>
			<point x="330" y="364" type="line"/>
			<point x="132" y="364" type="line"/>
			<point x="60" y="360" type="line"/>
		</contour>
		<component base="D" xOffset="18"/>
	</outline>
</glyph>
<glyph name="ae" format="2">
	<unicode hex="00E6"/>
	<advance width="766"/>
	<outline>
		<contour>
			<point x="158" y="-12" type="curve" smooth="yes"/>
			<point x="230" y="-12"/>
			<point x="302" y="28"/>
			<point x="370" y="96" type="curve"/>
			<point x="390" y="34"/>
			<point x="450" y="-12"/>
			<point x="520" y="-12" type="curve" smooth="yes"/>
			<point x="582" y="-12"/>
			<point x="626" y="12"/>
			<point x="662" y="40" type="curve"/>
			<point x="648" y="58" type="line"/>
			<point x="612" y="32"/>
			<point x="576" y="14"/>
			<point x="522" y="14" type="curve" smooth="yes"/>
			<point x="422" y="14"/>
			<point x="364" y="110"/>
			<point x="390" y="242" type="curve"/>
			<point x="718" y="242" type="line"/>
			<point x="724" y="262"/>
			<point x="730" y="290"/>
			<point x="730" y="322" type="curve" smooth="yes"/>
			<point x="730" y="420"/>
			<point x="690" y="490"/>
			<point x="588" y="490" type="curve" smooth="yes"/>
			<point x="520" y="490"/>
			<point x="452" y="444"/>
			<point x="406" y="372" type="curve"/>
			<point x="402" y="452"/>
			<point x="354" y="490"/>
			<point x="282" y="490" type="curve" smooth="yes"/>
			<point x="228" y="490"/>
			<point x="168" y="466"/>
			<point x="124" y="440" type="curve"/>
			<point x="138" y="418" type="line"/>
			<point x="180" y="444"/>
			<point x="238" y="464"/>
			<point x="280" y="464" type="curve" smooth="yes"/>
			<point x="352" y="464"/>
			<point x="378" y="424"/>
			<point x="378" y="356" type="curve" smooth="yes"/>
			<point x="378" y="336"/>
			<point x="376" y="320"/>
			<point x="370" y="294" type="curve"/>
			<point x="170" y="286"/>
			<point x="40" y="234"/>
			<point x="40" y="102" type="curve" smooth="yes"/>
			<point x="40" y="26"/>
			<point x="96" y="-12"/>
		</contour>
		<contour>
			<point x="164" y="14" type="curve" smooth="yes"/>
			<point x="110" y="14"/>
			<point x="68" y="46"/>
			<point x="68" y="108" type="curve" smooth="yes"/>
			<point x="68" y="214"/>
			<point x="188" y="264"/>
			<point x="366" y="268" type="curve"/>
			<point x="356" y="214"/>
			<point x="354" y="178"/>
			<point x="362" y="122" type="curve"/>
			<point x="290" y="48"/>
			<point x="216" y="14"/>
		</contour>
		<contour>
			<point x="396" y="268" type="line"/>
			<point x="422" y="382"/>
			<point x="508" y="464"/>
			<point x="586" y="464" type="curve" smooth="yes"/>
			<point x="672" y="464"/>
			<point x="702" y="396"/>
			<point x="702" y="328" type="curve" smooth="yes"/>
			<point x="702" y="306"/>
			<point x="700" y="288"/>
			<point x="696" y="268" type="curve"/>
		</contour>
	</outline>
	<anchor name="aboveLC" x="440" y="522"/>
	<anchor name="belowLC" x="340" y="-22"/>
</glyph>
<glyph name="oslash" format="2">
	<unicode hex="00F8"/>
	<advance width="500"/>
	<outline>
		<contour>
			<point x="204" y="-12" type="curve" smooth="yes"/>
			<point x="330" y="-12"/>
			<point x="454" y="124"/>
			<point x="454" y="302" type="curve" smooth="yes"/>
			<point x="454" y="422"/>
			<point x="394" y="490"/>
			<point x="296" y="490" type="curve" smooth="yes"/>
			<point x="170" y="490"/>
			<point x="46" y="354"/>
			<point x="46" y="176" type="curve" smooth="yes"/>
			<point x="46" y="56"/>
			<point x="106" y="-12"/>
		</contour>
		<contour>
			<point x="206" y="14" type="curve" smooth="yes"/>
			<point x="122" y="14"/>
			<point x="74" y="72"/>
			<point x="74" y="182" type="curve" smooth="yes"/>
			<point x="74" y="334"/>
			<point x="186" y="464"/>
			<point x="294" y="464" type="curve" smooth="yes"/>
			<point x="378" y="464"/>
			<point x="426" y="406"/>
			<point x="426" y="296" type="curve" smooth="yes"/>
			<point x="426" y="144"/>
			<point x="314" y="14"/>
		</contour>
		<contour>
			<point x="18" y="-22" type="line"/>
			<point x="506" y="480" type="line"/>
			<point x="488" y="498" type="line"/>
			<point x="0" y="-4" type="line"/>
		</contour>
	</outline>
	<anchor name="aboveLC" x="310" y="502"/>
	<anchor name="belowLC" x="190" y="-22"/>
</glyph>
<glyph name="aogonek" format="2">
	<unicode hex="0105"/>
	<advance width="524"/>
	<outline>
		<contour>
			<point x="328" y="-212" type="curve" smooth="yes"/>
			<point x="354" y="-212"/>
			<point x="376" y="-202"/>
			<point x="400" y="-180" type="curve"/>
			<point x="388" y="-164" type="line"/>
			<point x="366" y="-180"/>
			<point x="352" y="-186"/>
			<point x="332" y="-186" type="curve" smooth="yes"/>
			<point x="306" y="-186"/>
			<point x="288" y="-168"/>
			<point x="288" y="-138" type="curve" smooth="yes"/>
			<point x="288" y="-87"/>
			<point x="330" y="-36"/>
			<point x="382" y="0" type="curve"/>
			<point x="478" y="478" type="line"/>
			<point x="454" y="478" type="line"/>
			<point x="436" y="410" type="line"/>
			<point x="432" y="410" type="line"/>
			<point x="406" y="458"/>
			<point x="364" y="490"/>
			<point x="306" y="490" type="curve" smooth="yes"/>
			<point x="174" y="490"/>
			<point x="46" y="344"/>
			<point x="46" y="160" type="curve" smooth="yes"/>
			<point x="46" y="48"/>
			<point x="102" y="-12"/>
			<point x="186" y="-12" type="curve" smooth="yes"/>
			<point x="254" y="-12"/>
			<point x="316" y="26"/>
			<point x="366" y="78" type="curve"/>
			<point x="370" y="78" type="line"/>
			<point x="360" y="10" type="line"/>
			<point x="312" y="-22"/>
			<point x="258" y="-84"/>
			<point x="258" y="-144" type="curve" smooth="yes"/>
			<point x="258" y="-190"/>
			<point x="288" y="-212"/>
		</contour>
		<contour>
			<point x="188" y="14" type="curve" smooth="yes"/>
			<point x="118" y="14"/>
			<point x="74" y="64"/>
			<point x="74" y="166" type="curve" smooth="yes"/>
			<point x="74" y="314"/>
			<point x="184" y="464"/>
			<point x="304" y="464" type="curve" smooth="yes"/>
			<point x="352" y="464"/>
			<point x="392" y="438"/>
			<point x="430" y="372" type="curve"/>
			<point x="378" y="122" type="line"/>
			<point x="318" y="54"/>
			<point x="254" y="14"/>
		</contour>
	</outline>
	<anchor name="aboveLC" x="310" y="502"/>
</glyph>
<glyph name="Eogonek" format="2">
	<unicode hex="0118"/>
	<advance width="484"/>
	<outline>
		<contour>
			<point x="310" y="-214" type="curve" smooth="yes"/>
			<point x="336" y="-214"/>
			<point x="358" y="-204"/>
			<point x="382" y="-182" type="curve"/>
			<point x="370" y="-166" type="line"/>
			<point x="348" y="-182"/>
			<point x="334" y="-188"/>
			<point x="314" y="-188" type="curve" smooth="yes"/>
			<point x="286" y="-188"/>
			<point x="266" y="-170"/>
			<point x="266" y="-142" type="curve" smooth="yes"/>
			<point x="266" y="-82"/>
			<point x="340" y="0"/>
			<point x="390" y="0" type="curve"/>
			<point x="396" y="26" type="line"/>
			<point x="74" y="26" type="line"/>
			<point x="138" y="338" type="line"/>
			<point x="400" y="338" type="line"/>
			<point x="406" y="364" type="line"/>
			<point x="142" y="364" type="line"/>
			<point x="196" y="634" type="line"/>
			<point x="508" y="634" type="line"/>
			<point x="514" y="660" type="line"/>
			<point x="172" y="660" type="line"/>
			<point x="40" y="0" type="line"/>
			<point x="330" y="0" type="line"/>
			<point x="290" y="-32"/>
			<point x="236" y="-90"/>
			<point x="236" y="-148" type="curve" smooth="yes"/>
			<point x="236" y="-192"/>
			<point x="268" y="-214"/>
		</contour>
	</outline>
	<anchor name="aboveUC" x="362" y="682"/>
	<anchor name="belowLC" x="200" y="-222"/>
</glyph>
<glyph name="hbar" format="1">
	<unicode hex="0127"/>
	<advance width="504"/>
	<outline>
		<contour>
			<point x="44" y="0" type="line"/>
			<point x="72" y="0" type="line"/>
			<point x="140" y="338" type="line"/>
			<point x="216" y="412"/>
			<point x="276" y="444"/>
			<point x="320" y="444" type="curve" smooth="yes"/>
			<point x="384" y="444"/>
			<point x="410" y="412"/>
			<point x="410" y="350" type="curve" smooth="yes"/>
			<point x="410" y="330"/>
			<point x="408" y="316"/>
			<point x="402" y="286" type="curve" smooth="yes"/>
			<point x="344" y="0" type="line"/>
			<point x="372" y="0" type="line"/>
			<point x="430" y="290" type="line" smooth="yes"/>
			<point x="436" y="318"/>
			<point x="438" y="330"/>
			<point x="438" y="354" type="curve" smooth="yes"/>
			<point x="438" y="422"/>
			<point x="406" y="470"/>
			<point x="324" y="470" type="curve" smooth="yes"/>
			<point x="266" y="470"/>
			<point x="212" y="432"/>
			<point x="148" y="378" type="curve"/>
			<point x="144" y="378" type="line"/>
			<point x="156" y="424" type="line"/>
			<point x="216" y="722" type="line"/>
			<point x="188" y="722" type="line"/>
		</contour>
		<contour>
			<point x="88" y="584" type="line"/>
			<point x="374" y="584" type="line"/>
			<point x="380" y="610" type="line"/>
			<point x="166" y="610" type="line"/>
			<point x="92" y="606" type="line"/>
		</contour>
	</outline>
</glyph>
<glyph name="Iogonek" format="2">
	<unicode hex="012E"/>
	<advance width="212"/>
	<outline>
		<contour>
			<point x="22" y="-202" type="curve" smooth="yes"/>
			<point x="40" y="-202"/>
			<point x="60" y="-196"/>
			<point x="78" y="-186" type="curve"/>
			<point x="68" y="-164" type="line"/>
			<point x="54" y="-172"/>
			<point x="42" y="-176"/>
			<point x="26" y="-176" type="curve" smooth="yes"/>
			<point x="4" y="-176"/>
			<point x="-12" y="-160"/>
			<point x="-12" y="-134" type="curve" smooth="yes"/>
			<point x="-12" y="-88"/>
			<point x="30" y="-36"/>
			<point x="70" y="0" type="curve"/>
			<point x="202" y="660" type="line"/>
			<point x="172" y="660" type="line"/>
			<point x="40" y="0" type="line"/>
			<point x="42" y="0" type="line"/>
			<point x="6" y="-30"/>
			<point x="-42" y="-88"/>
			<point x="-42" y="-140" type="curve" smooth="yes"/>
			<point x="-42" y="-182"/>
			<point x="-14" y="-202"/>
		</contour>
	</outline>
	<anchor name="aboveUC" x="190" y="682"/>
</glyph>
<glyph name="dotlessi" format="1">
	<unicode hex="0131"/>
	<advance width="214"/>
	<outline>
		<contour>
			<point x="44" y="0" type="line"/>
			<point x="72" y="0" type="line"/>
			<point x="168" y="478" type="line"/>
			<point x="140" y="478" type="line"/>
		</contour>
		<contour>
			<point name="ogonekLC" x="60" y="0" type="move"/>
		</contour>
		<contour>
			<point name="aboveLC" x="160" y="502" type="move"/>
		</contour>
		<contour>
			<point name="belowLC" x="60" y="-22" type="move"/>
		</contour>
	</outline>
</glyph>
<glyph name="IJ" format="1">
	<unicode hex="0132"/>
	<advance width="424"/>
	<outline>
		<contour>
			<point x="166" y="-150" type="curve" smooth="yes"/>
			<point x="226" y="-150"/>
			<point x="263" y="-98"/>
			<point x="280" y="-12" type="curve" smooth="yes"/>
			<point x="414" y="660" type="line"/>
			<point x="384" y="660" type="line"/>
			<point x="248" y="-20" type="line" smooth="yes"/>
			<point x="236" y="-82"/>
			<point x="208" y="-122"/>
			<point x="168" y="-122" type="curve" smooth="yes"/>
			<point x="142" y="-122"/>
			<point x="132" y="-116"/>
			<point x="120" y="-108" type="curve"/>
			<point x="108" y="-134" type="line"/>
			<point x="122" y="-142"/>
			<point x="138" y="-150"/>
		</contour>
		<contour>
			<point x="40" y="0" type="line"/>
			<point x="70" y="0" type="line"/>
			<point x="202" y="660" type="line"/>
			<point x="172" y="660" type="line"/>
		</contour>
	</outline>
</glyph>
<glyph name="kgreenlandic" format="2">
	<unicode hex="0138"/>
	<advance width="436"/>
	<outline>
		<contour>
			<point x="44" y="0" type="line"/>
			<point x="72" y="0" type="line"/>
			<point x="98" y="126" type="line"/>
			<point x="236" y="266" type="line"/>
			<point x="344" y="0" type="line"/>
			<point x="374" y="0" type="line"/>
			<point x="258" y="286" type="line"/>
			<point x="444" y="478" type="line"/>
			<point x="408" y="478" type="line"/>
			<point x="110" y="176" type="line"/>
			<point x="108" y="176" type="line"/>
			<point x="168" y="478" type="line"/>
			<point x="140" y="478" type="line"/>
		</contour>
	</outline>
</glyph>
<glyph name="lslash" format="2">
	<unicode hex="0142"/>
	<advance width="226"/>
	<outline>
		<contour>
			<point x="54" y="336" type="line"/>
			<point x="130" y="382" type="line"/>
			<point x="143" y="388" type="line"/>
			<point x="242" y="448" type="line"/>
			<point x="232" y="470" type="line"/>
			<point x="150" y="420" type="line"/>
			<point x="136" y="414" type="line"/>
			<point x="44" y="358" type="line"/>
		</contour>
		<component base="l"/>
	</outline>
	<anchor name="aboveUC" x="210" y="730"/>
	<anchor name="belowLC" x="60" y="-22"/>
</glyph>
<glyph name="uogonek" format="2">
	<unicode hex="0173"/>
	<advance width="504"/>
	<outline>
		<contour>
			<point x="318" y="-212" type="curve" smooth="yes"/>
			<point x="344" y="-212"/>
			<point x="366" y="-202"/>
			<point x="390" y="-180" type="curve"/>
			<point x="378" y="-164" type="line"/>
			<point x="356" y="-180"/>
			<point x="342" y="-186"/>
			<point x="322" y="-186" type="curve" smooth="yes"/>
			<point x="296" y="-186"/>
			<point x="278" y="-168"/>
			<point x="278" y="-138" type="curve" smooth="yes"/>
			<point x="278" y="-87"/>
			<point x="320" y="-36"/>
			<point x="372" y="0" type="curve"/>
			<point x="468" y="478" type="line"/>
			<point x="440" y="478" type="line"/>
			<point x="368" y="120" type="line"/>
			<point x="292" y="46"/>
			<point x="232" y="14"/>
			<point x="188" y="14" type="curve" smooth="yes"/>
			<point x="124" y="14"/>
			<point x="98" y="46"/>
			<point x="98" y="108" type="curve" smooth="yes"/>
			<point x="98" y="128"/>
			<point x="100" y="142"/>
			<point x="106" y="172" type="curve" smooth="yes"/>
			<point x="168" y="478" type="line"/>
			<point x="140" y="478" type="line"/>
			<point x="78" y="168" type="line" smooth="yes"/>
			<point x="72" y="140"/>
			<point x="70" y="128"/>
			<point x="70" y="104" type="curve" smooth="yes"/>
			<point x="70" y="36"/>
			<point x="102" y="-12"/>
			<point x="184" y="-12" type="curve" smooth="yes"/>
			<point x="242" y="-12"/>
			<point x="296" y="28"/>
			<point x="356" y="80" type="curve"/>
			<point x="360" y="80" type="line"/>
			<point x="350" y="10" type="line"/>
			<point x="302" y="-22"/>
			<point x="248" y="-84"/>
			<point x="248" y="-144" type="curve" smooth="yes"/>
			<point x="248" y="-190"/>
			<point x="278" y="-212"/>
		</contour>
	</outline>
	<anchor name="aboveLC" x="310" y="502"/>
</glyph>
<glyph name="longs" format="2">
	<unicode hex="017F"/>
	<advance width="246"/>
	<outline>
		<contour>
			<point x="48" y="0" type="line"/>
			<point x="76" y="0" type="line"/>
			<point x="196" y="598" type="line" smooth="yes"/>
			<point x="208" y="656"/>
			<point x="240" y="708"/>
			<point x="290" y="708" type="curve" smooth="yes"/>
			<point x="318" y="708"/>
			<point x="334" y="702"/>
			<point x="350" y="692" type="curve"/>
			<point x="362" y="712" type="line"/>
			<point x="346" y="724"/>
			<point x="324" y="734"/>
			<point x="292" y="734" type="curve" smooth="yes"/>
			<point x="236" y="734"/>
			<point x="187" y="692"/>
			<point x="168" y="598" type="curve" smooth="yes"/>
		</contour>
		<contour>
			<point x="76" y="452" type="line"/>
			<point x="154" y="452" type="line"/>
			<point x="160" y="478" type="line"/>
			<point x="146" y="478" type="line"/>
			<point x="80" y="474" type="line"/>
		</contour>
	</outline>
	<anchor name="aboveUC" x="280" y="732"/>
	<anchor name="belowLC" x="60" y="-22"/>
</glyph>
<glyph name="Oopen" format="2">
	<unicode hex="0186"/>
	<advance width="536"/>
	<outline>
		<contour>
			<point x="194" y="-12" type="curve" smooth="yes"/>
			<point x="376" y="-12"/>
			<point x="508" y="174"/>
			<point x="508" y="398" type="curve" smooth="yes"/>
			<point x="508" y="574"/>
			<point x="436" y="672"/>
			<point x="308" y="672" type="curve" smooth="yes"/>
			<point x="232" y="672"/>
			<point x="166" y="636"/>
			<point x="122" y="594" type="curve"/>
			<point x="140" y="574" type="line"/>
			<point x="184" y="616"/>
			<point x="246" y="646"/>
			<point x="306" y="646" type="curve" smooth="yes"/>
			<point x="418" y="646"/>
			<point x="478" y="552"/>
			<point x="478" y="394" type="curve" smooth="yes"/>
			<point x="478" y="190"/>
			<point x="356" y="14"/>
			<point x="196" y="14" type="curve" smooth="yes"/>
			<point x="124" y="14"/>
			<point x="74" y="42"/>
			<point x="36" y="98" type="curve"/>
			<point x="16" y="82" type="line"/>
			<point x="54" y="22"/>
			<point x="110" y="-12"/>
		</contour>
	</outline>
	<anchor name="aboveUC" x="320" y="682"/>
	<anchor name="baseLC" x="210" y="0"/>
	<anchor name="belowLC" x="190" y="-22"/>
	<anchor name="ogonekUC" x="210" y="0"/>
</glyph>
<glyph name="Ghook" format="2">
	<unicode hex="0193"/>
	<advance width="570"/>
	<outline>
		<contour>
			<point x="288" y="-12" type="curve" smooth="yes"/>
			<point x="358" y="-12"/>
			<point x="414" y="14"/>
			<point x="460" y="54" type="curve"/>
			<point x="514" y="316" type="line"/>
			<point x="326" y="316" type="line"/>
			<point x="320" y="290" type="line"/>
			<point x="478" y="290" type="line"/>
			<point x="434" y="68" type="line"/>
			<point x="402" y="38"/>
			<point x="354" y="14"/>
			<point x="290" y="14" type="curve" smooth="yes"/>
			<point x="144" y="14"/>
			<point x="88" y="122"/>
			<point x="88" y="252" type="curve" smooth="yes"/>
			<point x="88" y="422"/>
			<point x="198" y="646"/>
			<point x="394" y="646" type="curve" smooth="yes"/>
			<point x="461" y="646"/>
			<point x="504" y="612"/>
			<point x="530" y="564" type="curve"/>
			<point x="552" y="578" type="line"/>
			<point x="536" y="622"/>
			<point x="534" y="654"/>
			<point x="534" y="686" type="curve" smooth="yes"/>
			<point x="534" y="732"/>
			<point x="557" y="764"/>
			<point x="594" y="764" type="curve" smooth="yes"/>
			<point x="614" y="764"/>
			<point x="622" y="760"/>
			<point x="634" y="752" type="curve"/>
			<point x="646" y="772" type="line"/>
			<point x="632" y="782"/>
			<point x="614" y="790"/>
			<point x="596" y="790" type="curve" smooth="yes"/>
			<point x="538" y="790"/>
			<point x="508" y="748"/>
			<point x="508" y="692" type="curve" smooth="yes"/>
			<point x="508" y="666"/>
			<point x="510" y="650"/>
			<point x="520" y="598" type="curve"/>
			<point x="536" y="606" type="line"/>
			<point x="498" y="648"/>
			<point x="456" y="672"/>
			<point x="396" y="672" type="curve" smooth="yes"/>
			<point x="178" y="672"/>
			<point x="58" y="441"/>
			<point x="58" y="246" type="curve" smooth="yes"/>
			<point x="58" y="96"/>
			<point x="132" y="-12"/>
		</contour>
	</outline>
	<anchor name="aboveUC" x="350" y="682"/>
	<anchor name="belowLC" x="270" y="-22"/>
</glyph>
<glyph name="Iotalatin" format="2">
	<unicode hex="0196"/>
	<advance width="212"/>
	<outline>
		<contour>
			<point x="84" y="-8" type="curve" smooth="yes"/>
			<point x="96" y="-8"/>
			<point x="102" y="-6"/>
			<point x="112" y="-2" type="curve"/>
			<point x="106" y="20" type="line"/>
			<point x="98" y="18"/>
			<point x="96" y="18"/>
			<point x="92" y="18" type="curve" smooth="yes"/>
			<point x="82" y="18"/>
			<point x="78" y="24"/>
			<point x="78" y="32" type="curve" smooth="yes"/>
			<point x="78" y="36"/>
			<point x="78" y="42"/>
			<point x="80" y="52" type="curve" smooth="yes"/>
			<point x="202" y="660" type="line"/>
			<point x="172" y="660" type="line"/>
			<point x="50" y="54" type="line" smooth="yes"/>
			<point x="48" y="44"/>
			<point x="46" y="34"/>
			<point x="46" y="28" type="curve" smooth="yes"/>
			<point x="46" y="4"/>
			<point x="64" y="-8"/>
		</contour>
	</outline>
	<anchor name="aboveUC" x="190" y="682"/>
	<anchor name="belowLC" x="70" y="-22"/>
</glyph>
<glyph name="Istroke" format="2">
	<unicode hex="0197"/>
	<advance width="244"/>
	<outline>
		<contour>
			<point x="48" y="338" type="line"/>
			<point x="224" y="338" type="line"/>
			<point x="230" y="364" type="line"/>
			<point x="128" y="364" type="line"/>
			<point x="54" y="360" type="line"/>
		</contour>
		<component base="I" xOffset="14"/>
	</outline>
	<anchor name="aboveUC" x="204" y="682"/>
	<anchor name="belowLC" x="64" y="-22"/>
</glyph>
<glyph name="lbar" format="2">
	<unicode hex="019A"/>
	<advance width="244"/>
	<outline>
		<contour>
			<point x="40" y="388" type="line"/>
			<point x="252" y="388" type="line"/>
			<point x="258" y="412" type="line"/>
			<point x="138" y="412" type="line"/>
			<point x="46" y="408" type="line"/>
		</contour>
		<component base="l" xOffset="10"/>
	</outline>
	<anchor name="aboveUC" x="220" y="732"/>
	<anchor name="belowLC" x="90" y="-22"/>
</glyph>
<glyph name="Ohorn" format="2">
	<unicode hex="01A0"/>
	<advance width="612"/>
	<outline>
		<contour>
			<point x="501" y="620" type="line"/>
			<point x="565" y="631"/>
			<point x="626" y="670"/>
			<point x="626" y="748" type="curve" smooth="yes"/>
			<point x="626" y="762"/>
			<point x="624" y="775"/>
			<point x="618" y="792" type="curve"/>
			<point x="588" y="779" type="line"/>
			<point x="594" y="765"/>
			<point x="594" y="753"/>
			<point x="594" y="742" type="curve" smooth="yes"/>
			<point x="594" y="683"/>
			<point x="547" y="647"/>
			<point x="474" y="644" type="curve"/>
		</contour>
		<component base="O"/>
	</outline>
	<anchor name="aboveUC" x="406" y="682"/>
	<anchor name="belowLC" x="270" y="-22"/>
</glyph>
<glyph name="uhorn" format="1">
	<unicode hex="01B0"/>
	<advance width="524"/>
	<outline>
		<contour>
			<point x="463" y="456" type="line"/>
			<point x="498" y="464"/>
			<point x="574" y="500"/>
			<point x="574" y="584" type="curve" smooth="yes"/>
			<point x="574" y="600"/>
			<point x="572" y="618"/>
			<point x="566" y="636" type="curve"/>
			<point x="538" y="622" type="line"/>
			<point x="543" y="607"/>
			<point x="545" y="592"/>
			<point x="544" y="580" type="curve" smooth="yes"/>
			<point x="540" y="515"/>
			<point x="491" y="482"/>
			<point x="440" y="478" type="curve"/>
		</contour>
		<component base="u"/>
		<contour>
			<point name="aboveLC" x="308" y="502" type="move"/>
		</contour>
		<contour>
			<point name="belowLC" x="240" y="-22" type="move"/>
		</contour>
	</outline>
</glyph>
<glyph name="clickalveolar" format="1">
	<unicode hex="01C2"/>
	<advance width="210"/>
	<outline>
		<contour>
			<point x="0" y="334" type="line"/>
			<point x="242" y="334" type="line"/>
			<point x="248" y="360" type="line"/>
			<point x="84" y="360" type="line"/>
			<point x="4" y="356" type="line"/>
		</contour>
		<contour>
			<point x="-30" y="182" type="line"/>
			<point x="212" y="182" type="line"/>
			<point x="218" y="208" type="line"/>
			<point x="54" y="208" type="line"/>
			<point x="-26" y="204" type="line"/>
		</contour>
		<contour>
			<point x="2" y="-222" type="line"/>
			<point x="30" y="-222" type="line"/>
			<point x="218" y="722" type="line"/>
			<point x="190" y="722" type="line"/>
		</contour>
	</outline>
</glyph>
<glyph name="clickretroflex" format="2">
	<unicode hex="01C3"/>
	<advance width="186"/>
	<outline>
		<contour>
			<point x="72" y="172" type="line"/>
			<point x="96" y="172" type="line"/>
			<point x="184" y="608" type="line"/>
			<point x="206" y="722" type="line"/>
			<point x="178" y="722" type="line"/>
			<point x="156" y="608" type="line"/>
		</contour>
		<contour>
			<point x="50" y="-12" type="curve" smooth="yes"/>
			<point x="72" y="-12"/>
			<point x="90" y="10"/>
			<point x="90" y="32" type="curve" smooth="yes"/>
			<point x="90" y="50"/>
			<point x="82" y="64"/>
			<point x="64" y="64" type="curve" smooth="yes"/>
			<point x="42" y="64"/>
			<point x="22" y="40"/>
			<point x="22" y="18" type="curve" smooth="yes"/>
			<point x="22" y="2"/>
			<point x="32" y="-12"/>
		</contour>
	</outline>
	<anchor name="aboveUC" x="200" y="732"/>
	<anchor name="belowLC" x="40" y="-22"/>
</glyph>
<glyph name="Oogonek" format="1">
	<unicode hex="01EA"/>
	<advance width="612"/>
	<outline>
		<contour>
			<point x="246" y="-202" type="curve" smooth="yes"/>
			<point x="262" y="-202"/>
			<point x="282" y="-196"/>
			<point x="300" y="-186" type="curve"/>
			<point x="290" y="-164" type="line"/>
			<point x="276" y="-172"/>
			<point x="264" y="-176"/>
			<point x="248" y="-176" type="curve" smooth="yes"/>
			<point x="226" y="-176"/>
			<point x="210" y="-160"/>
			<point x="210" y="-134" type="curve" smooth="yes"/>
			<point x="210" y="-92"/>
			<point x="246" y="-30"/>
			<point x="332" y="-6" type="curve" smooth="yes"/>
			<point x="492" y="38"/>
			<point x="584" y="234"/>
			<point x="584" y="398" type="curve" smooth="yes"/>
			<point x="584" y="558"/>
			<point x="516" y="672"/>
			<point x="372" y="672" type="curve" smooth="yes"/>
			<point x="174" y="672"/>
			<point x="62" y="438"/>
			<point x="62" y="262" type="curve" smooth="yes"/>
			<point x="62" y="102"/>
			<point x="130" y="-12"/>
			<point x="274" y="-12" type="curve"/>
			<point x="288" y="4" type="line"/>
			<point x="224" y="-30"/>
			<point x="180" y="-88"/>
			<point x="180" y="-140" type="curve" smooth="yes"/>
			<point x="180" y="-182"/>
			<point x="208" y="-202"/>
		</contour>
		<contour>
			<point x="276" y="14" type="curve" smooth="yes"/>
			<point x="146" y="14"/>
			<point x="92" y="118"/>
			<point x="92" y="266" type="curve" smooth="yes"/>
			<point x="92" y="422"/>
			<point x="190" y="646"/>
			<point x="370" y="646" type="curve" smooth="yes"/>
			<point x="500" y="646"/>
			<point x="554" y="542"/>
			<point x="554" y="394" type="curve" smooth="yes"/>
			<point x="554" y="238"/>
			<point x="456" y="14"/>
		</contour>
		<contour>
			<point name="aboveUC" x="390" y="682" type="move"/>
		</contour>
	</outline>
</glyph>
<glyph name="oogonek" format="2">
	<unicode hex="01EB"/>
	<advance width="500"/>
	<outline>
		<contour>
			<point x="164" y="-202" type="curve" smooth="yes"/>
			<point x="180" y="-202"/>
			<point x="200" y="-196"/>
			<point x="218" y="-186" type="curve"/>
			<point x="208" y="-164" type="line"/>
			<point x="194" y="-172"/>
			<point x="182" y="-176"/>
			<point x="166" y="-176" type="curve" smooth="yes"/>
			<point x="144" y="-176"/>
			<point x="128" y="-160"/>
			<point x="128" y="-134" type="curve" smooth="yes"/>
			<point x="128" y="-94"/>
			<point x="156" y="-40"/>
			<point x="256" y="-6" type="curve" smooth="yes"/>
			<point x="378" y="36"/>
			<point x="454" y="160"/>
			<point x="454" y="302" type="curve" smooth="yes"/>
			<point x="454" y="422"/>
			<point x="392" y="490"/>
			<point x="296" y="490" type="curve" smooth="yes"/>
			<point x="166" y="490"/>
			<point x="46" y="354"/>
			<point x="46" y="176" type="curve" smooth="yes"/>
			<point x="46" y="56"/>
			<point x="108" y="-12"/>
			<point x="204" y="-12" type="curve"/>
			<point x="218" y="2" type="line"/>
			<point x="146" y="-24"/>
			<point x="98" y="-88"/>
			<point x="98" y="-140" type="curve" smooth="yes"/>
			<point x="98" y="-182"/>
			<point x="126" y="-202"/>
		</contour>
		<contour>
			<point x="206" y="14" type="curve" smooth="yes"/>
			<point x="122" y="14"/>
			<point x="74" y="72"/>
			<point x="74" y="182" type="curve" smooth="yes"/>
			<point x="74" y="334"/>
			<point x="186" y="464"/>
			<point x="294" y="464" type="curve" smooth="yes"/>
			<point x="378" y="464"/>
			<point x="426" y="406"/>
			<point x="426" y="296" type="curve" smooth="yes"/>
			<point x="426" y="144"/>
			<point x="314" y="14"/>
		</contour>
	</outline>
	<anchor name="aboveLC" x="318" y="502"/>
</glyph>
<glyph name="Nlong" format="2">
	<unicode hex="0220"/>
	<advance width="594"/>
	<outline>
		<contour>
			<point x="388" y="-188" type="line"/>
			<point x="418" y="-188" type="line"/>
			<point x="534" y="388" type="line" smooth="yes"/>
			<point x="542" y="430"/>
			<point x="548" y="472"/>
			<point x="548" y="506" type="curve" smooth="yes"/>
			<point x="548" y="622"/>
			<point x="482" y="672"/>
			<point x="380" y="672" type="curve" smooth="yes"/>
			<point x="322" y="672"/>
			<point x="240" y="634"/>
			<point x="184" y="572" type="curve"/>
			<point x="200" y="660" type="line"/>
			<point x="172" y="660" type="line"/>
			<point x="40" y="0" type="line"/>
			<point x="70" y="0" type="line"/>
			<point x="176" y="532" type="line"/>
			<point x="248" y="614"/>
			<point x="328" y="646"/>
			<point x="378" y="646" type="curve" smooth="yes"/>
			<point x="462" y="646"/>
			<point x="518" y="608"/>
			<point x="518" y="502" type="curve" smooth="yes"/>
			<point x="518" y="470"/>
			<point x="512" y="430"/>
			<point x="504" y="388" type="curve" smooth="yes"/>
		</contour>
	</outline>
	<anchor name="aboveUC" x="390" y="682"/>
	<anchor name="belowLC" x="210" y="-222"/>
</glyph>
<glyph name="OU" format="2">
	<unicode hex="0222"/>
	<advance width="646"/>
	<outline>
		<contour>
			<point x="276" y="-12" type="curve" smooth="yes"/>
			<point x="468" y="-12"/>
			<point x="592" y="80"/>
			<point x="592" y="210" type="curve" smooth="yes"/>
			<point x="592" y="318"/>
			<point x="524" y="374"/>
			<point x="420" y="394" type="curve"/>
			<point x="418" y="376" type="line"/>
			<point x="516" y="398"/>
			<point x="568" y="448"/>
			<point x="598" y="586" type="curve" smooth="yes"/>
			<point x="614" y="660" type="line"/>
			<point x="584" y="660" type="line"/>
			<point x="570" y="594" type="line" smooth="yes"/>
			<point x="536" y="432"/>
			<point x="463" y="400"/>
			<point x="376" y="400" type="curve" smooth="yes"/>
			<point x="269" y="400"/>
			<point x="210" y="440"/>
			<point x="210" y="544" type="curve" smooth="yes"/>
			<point x="210" y="568"/>
			<point x="212" y="593"/>
			<point x="220" y="626" type="curve" smooth="yes"/>
			<point x="228" y="660" type="line"/>
			<point x="198" y="660" type="line"/>
			<point x="188" y="618" type="line" smooth="yes"/>
			<point x="180" y="584"/>
			<point x="180" y="562"/>
			<point x="180" y="536" type="curve" smooth="yes"/>
			<point x="180" y="450"/>
			<point x="228" y="396"/>
			<point x="314" y="379" type="curve"/>
			<point x="316" y="396" type="line"/>
			<point x="192" y="384"/>
			<point x="48" y="310"/>
			<point x="48" y="160" type="curve" smooth="yes"/>
			<point x="48" y="46"/>
			<point x="144" y="-12"/>
		</contour>
		<contour>
			<point x="278" y="14" type="curve" smooth="yes"/>
			<point x="166" y="14"/>
			<point x="78" y="64"/>
			<point x="78" y="162" type="curve" smooth="yes"/>
			<point x="78" y="286"/>
			<point x="198" y="372"/>
			<point x="366" y="372" type="curve" smooth="yes"/>
			<point x="475" y="372"/>
			<point x="562" y="317"/>
			<point x="562" y="208" type="curve" smooth="yes"/>
			<point x="562" y="96"/>
			<point x="444" y="14"/>
		</contour>
	</outline>
	<anchor name="aboveUC" x="400" y="682"/>
	<anchor name="belowLC" x="270" y="-22"/>
</glyph>
<glyph name="Cstroke" format="2">
	<unicode hex="023B"/>
	<advance width="536"/>
	<outline>
		<contour>
			<point x="118" y="-20" type="line"/>
			<point x="502" y="670" type="line"/>
			<point x="478" y="680" type="line"/>
			<point x="94" y="-10" type="line"/>
		</contour>
		<component base="C"/>
	</outline>
	<anchor name="aboveUC" x="380" y="682"/>
	<anchor name="belowLC" x="260" y="-22"/>
</glyph>
<glyph name="aturned" format="2">
	<unicode hex="0250"/>
	<advance width="474"/>
	<outline>
		<contour>
			<point x="214" y="-12" type="curve" smooth="yes"/>
			<point x="272" y="-12"/>
			<point x="332" y="14"/>
			<point x="380" y="42" type="curve"/>
			<point x="366" y="64" type="line"/>
			<point x="318" y="34"/>
			<point x="264" y="14"/>
			<point x="216" y="14" type="curve" smooth="yes"/>
			<point x="136" y="14"/>
			<point x="102" y="42"/>
			<point x="102" y="122" type="curve" smooth="yes"/>
			<point x="102" y="142"/>
			<point x="104" y="158"/>
			<point x="110" y="184" type="curve"/>
			<point x="310" y="196"/>
			<point x="448" y="256"/>
			<point x="448" y="386" type="curve" smooth="yes"/>
			<point x="448" y="455"/>
			<point x="397" y="490"/>
			<point x="340" y="490" type="curve" smooth="yes"/>
			<point x="279" y="490"/>
			<point x="208" y="454"/>
			<point x="158" y="416" type="curve"/>
			<point x="156" y="416" type="line"/>
			<point x="164" y="478" type="line"/>
			<point x="140" y="478" type="line"/>
			<point x="82" y="182" type="line" smooth="yes"/>
			<point x="78" y="164"/>
			<point x="74" y="138"/>
			<point x="74" y="120" type="curve" smooth="yes"/>
			<point x="74" y="22"/>
			<point x="127" y="-12"/>
		</contour>
		<contour>
			<point x="114" y="210" type="curve"/>
			<point x="148" y="378" type="line"/>
			<point x="216" y="434"/>
			<point x="279" y="464"/>
			<point x="334" y="464" type="curve" smooth="yes"/>
			<point x="382" y="464"/>
			<point x="420" y="439"/>
			<point x="420" y="380" type="curve" smooth="yes"/>
			<point x="420" y="276"/>
			<point x="292" y="220"/>
		</contour>
	</outline>
	<anchor name="aboveLC" x="310" y="502"/>
	<anchor name="belowLC" x="220" y="-22"/>
	<anchor name="ogonekLC" x="280" y="0"/>
</glyph>
<glyph name="alphalatin" format="1">
	<unicode hex="0251"/>
	<advance width="524"/>
	<outline>
		<component base="a"/>
		<contour>
			<point name="aboveLC" x="312" y="502" type="move"/>
		</contour>
		<contour>
			<point name="belowLC" x="222" y="-22" type="move"/>
		</contour>
	</outline>
</glyph>
<glyph name="alphalatinturned" format="1">
	<unicode hex="0252"/>
	<advance width="560"/>
	<outline>
		<contour>
			<point x="216" y="-12" type="curve" smooth="yes"/>
			<point x="348" y="-12"/>
			<point x="476" y="134"/>
			<point x="476" y="318" type="curve" smooth="yes"/>
			<point x="476" y="430"/>
			<point x="420" y="490"/>
			<point x="336" y="490" type="curve" smooth="yes"/>
			<point x="268" y="490"/>
			<point x="208" y="450"/>
			<point x="155" y="408" type="curve"/>
			<point x="152" y="408" type="line"/>
			<point x="158" y="434"/>
			<point x="160" y="446"/>
			<point x="160" y="454" type="curve" smooth="yes"/>
			<point x="160" y="478"/>
			<point x="145" y="490"/>
			<point x="126" y="490" type="curve" smooth="yes"/>
			<point x="114" y="490"/>
			<point x="108" y="488"/>
			<point x="98" y="484" type="curve"/>
			<point x="102" y="460" type="line"/>
			<point x="112" y="464"/>
			<point x="114" y="464"/>
			<point x="118" y="464" type="curve" smooth="yes"/>
			<point x="128" y="464"/>
			<point x="132" y="458"/>
			<point x="132" y="450" type="curve" smooth="yes"/>
			<point x="132" y="446"/>
			<point x="132" y="440"/>
			<point x="130" y="430" type="curve"/>
			<point x="44" y="0" type="line"/>
			<point x="68" y="0" type="line"/>
			<point x="86" y="68" type="line"/>
			<point x="90" y="68" type="line"/>
			<point x="116" y="20"/>
			<point x="158" y="-12"/>
		</contour>
		<contour>
			<point x="218" y="14" type="curve" smooth="yes"/>
			<point x="170" y="14"/>
			<point x="130" y="40"/>
			<point x="92" y="106" type="curve"/>
			<point x="146" y="370" type="line"/>
			<point x="204" y="424"/>
			<point x="278" y="464"/>
			<point x="334" y="464" type="curve" smooth="yes"/>
			<point x="404" y="464"/>
			<point x="448" y="413"/>
			<point x="448" y="312" type="curve" smooth="yes"/>
			<point x="448" y="164"/>
			<point x="338" y="14"/>
		</contour>
		<contour>
			<point name="aboveLC" x="320" y="502" type="move"/>
		</contour>
		<contour>
			<point name="belowLC" x="220" y="-22" type="move"/>
		</contour>
	</outline>
</glyph>
<glyph name="oopen" format="2">
	<unicode hex="0254"/>
	<advance width="427"/>
	<outline>
		<contour>
			<point x="116" y="-12" type="curve" smooth="yes"/>
			<point x="249" y="-12"/>
			<point x="376" y="108"/>
			<point x="376" y="298" type="curve" smooth="yes"/>
			<point x="376" y="420"/>
			<point x="310" y="490"/>
			<point x="220" y="490" type="curve" smooth="yes"/>
			<point x="152" y="490"/>
			<point x="108" y="468"/>
			<point x="66" y="430" type="curve"/>
			<point x="82" y="409" type="line"/>
			<point x="122" y="444"/>
			<point x="162" y="464"/>
			<point x="218" y="464" type="curve" smooth="yes"/>
			<point x="296" y="464"/>
			<point x="348" y="394"/>
			<point x="348" y="292" type="curve" smooth="yes"/>
			<point x="348" y="135"/>
			<point x="245" y="14"/>
			<point x="118" y="14" type="curve" smooth="yes"/>
			<point x="66" y="14"/>
			<point x="26" y="36"/>
			<point x="-2" y="70" type="curve"/>
			<point x="-20" y="52" type="line"/>
			<point x="8" y="16"/>
			<point x="53" y="-12"/>
		</contour>
	</outline>
	<anchor name="aboveLC" x="230" y="502"/>
	<anchor name="baseLC" x="140" y="0"/>
	<anchor name="belowLC" x="130" y="-22"/>
	<anchor name="ogonekLC" x="140" y="0"/>
</glyph>
<glyph name="dtail" format="1">
	<unicode hex="0256"/>
	<advance width="557"/>
	<outline>
		<contour>
			<point x="475" y="-188" type="curve" smooth="yes"/>
			<point x="514" y="-188"/>
			<point x="538" y="-182"/>
			<point x="559" y="-174" type="curve"/>
			<point x="555" y="-48" type="line"/>
			<point x="544" y="-52"/>
			<point x="537" y="-54"/>
			<point x="529" y="-54" type="curve" smooth="yes"/>
			<point x="501" y="-54"/>
			<point x="494" y="-37"/>
			<point x="503" y="10" type="curve"/>
			<point x="643" y="708" type="line"/>
			<point x="477" y="708" type="line"/>
			<point x="443" y="534" type="line"/>
			<point x="434" y="462" type="line"/>
			<point x="411" y="492"/>
			<point x="385" y="512"/>
			<point x="333" y="512" type="curve" smooth="yes"/>
			<point x="235" y="512"/>
			<point x="117" y="414"/>
			<point x="85" y="250" type="curve" smooth="yes"/>
			<point x="52" y="88"/>
			<point x="109" y="-12"/>
			<point x="228" y="-12" type="curve" smooth="yes"/>
			<point x="268" y="-12"/>
			<point x="313" y="8"/>
			<point x="349" y="38" type="curve"/>
			<point x="335" y="-32" type="line"/>
			<point x="320" y="-110"/>
			<point x="358" y="-188"/>
		</contour>
		<contour>
			<point x="300" y="128" type="curve" smooth="yes"/>
			<point x="256" y="128"/>
			<point x="236" y="162"/>
			<point x="254" y="252" type="curve" smooth="yes"/>
			<point x="271" y="340"/>
			<point x="310" y="372"/>
			<point x="345" y="372" type="curve" smooth="yes"/>
			<point x="366" y="372"/>
			<point x="390" y="366"/>
			<point x="406" y="348" type="curve"/>
			<point x="369" y="164" type="line"/>
			<point x="346" y="136"/>
			<point x="325" y="128"/>
		</contour>
		<contour>
			<point name="aboveUC" x="278" y="730" type="move"/>
		</contour>
		<contour>
			<point name="belowLC" x="278" y="-119" type="move"/>
		</contour>
	</outline>
</glyph>
<glyph name="schwa" format="1">
	<unicode hex="0259"/>
	<advance width="468"/>
	<outline>
		<contour>
			<point x="176" y="-12" type="curve" smooth="yes"/>
			<point x="296" y="-12"/>
			<point x="422" y="112"/>
			<point x="422" y="294" type="curve" smooth="yes"/>
			<point x="422" y="420"/>
			<point x="360" y="490"/>
			<point x="264" y="490" type="curve" smooth="yes"/>
			<point x="204" y="490"/>
			<point x="160" y="468"/>
			<point x="122" y="448" type="curve"/>
			<point x="134" y="424" type="line"/>
			<point x="172" y="446"/>
			<point x="212" y="464"/>
			<point x="262" y="464" type="curve" smooth="yes"/>
			<point x="358" y="464"/>
			<point x="410" y="376"/>
			<point x="390" y="248" type="curve"/>
			<point x="48" y="248" type="line"/>
			<point x="40" y="220"/>
			<point x="34" y="190"/>
			<point x="34" y="156" type="curve" smooth="yes"/>
			<point x="34" y="58"/>
			<point x="74" y="-12"/>
		</contour>
		<contour>
			<point x="178" y="14" type="curve" smooth="yes"/>
			<point x="88" y="14"/>
			<point x="62" y="82"/>
			<point x="62" y="150" type="curve" smooth="yes"/>
			<point x="62" y="172"/>
			<point x="64" y="200"/>
			<point x="70" y="222" type="curve"/>
			<point x="384" y="222" type="line"/>
			<point x="356" y="94"/>
			<point x="268" y="14"/>
		</contour>
		<contour>
			<point name="ogonekLC" x="180" y="0" type="move"/>
		</contour>
		<contour>
			<point name="aboveLC" x="280" y="502" type="move"/>
		</contour>
		<contour>
			<point name="belowLC" x="170" y="-22" type="move"/>
		</contour>
	</outline>
</glyph>
<glyph name="schwahookrhotic" format="1">
	<unicode hex="025A"/>
	<advance width="600"/>
	<outline>
		<contour>
			<point x="240" y="-12" type="curve" smooth="yes"/>
			<point x="367" y="-12"/>
			<point x="478" y="137"/>
			<point x="478" y="312" type="curve" smooth="yes"/>
			<point x="478" y="429"/>
			<point x="410" y="490"/>
			<point x="314" y="490" type="curve" smooth="yes"/>
			<point x="244" y="490"/>
			<point x="202" y="468"/>
			<point x="158" y="444" type="curve"/>
			<point x="170" y="420" type="line"/>
			<point x="214" y="444"/>
			<point x="252" y="464"/>
			<point x="312" y="464" type="curve" smooth="yes"/>
			<point x="392" y="464"/>
			<point x="450" y="411"/>
			<point x="450" y="306" type="curve" smooth="yes"/>
			<point x="450" y="155"/>
			<point x="354" y="14"/>
			<point x="242" y="14" type="curve" smooth="yes"/>
			<point x="148" y="14"/>
			<point x="102" y="76"/>
			<point x="102" y="166" type="curve"/>
			<point x="550" y="328" type="line"/>
			<point x="550" y="260"/>
			<point x="572" y="234"/>
			<point x="614" y="234" type="curve" smooth="yes"/>
			<point x="634" y="234"/>
			<point x="658" y="246"/>
			<point x="670" y="258" type="curve"/>
			<point x="656" y="278" type="line"/>
			<point x="646" y="270"/>
			<point x="632" y="262"/>
			<point x="616" y="262" type="curve" smooth="yes"/>
			<point x="593" y="262"/>
			<point x="578" y="270"/>
			<point x="578" y="323" type="curve" smooth="yes"/>
			<point x="578" y="330"/>
			<point x="579" y="339"/>
			<point x="580" y="348" type="curve"/>
			<point x="564" y="360" type="line"/>
			<point x="72" y="182" type="line"/>
			<point x="72" y="70"/>
			<point x="120" y="-12"/>
		</contour>
		<contour>
			<point name="aboveLC" x="320" y="502" type="move"/>
		</contour>
		<contour>
			<point name="belowLC" x="240" y="-22" type="move"/>
		</contour>
	</outline>
</glyph>
<glyph name="eopen" format="1">
	<unicode hex="025B"/>
	<advance width="451"/>
	<outline>
		<contour>
			<point x="263" y="-12" type="curve" smooth="yes"/>
			<point x="321" y="-12"/>
			<point x="374" y="-2"/>
			<point x="441" y="36" type="curve"/>
			<point x="399" y="144" type="line"/>
			<point x="363" y="126"/>
			<point x="328" y="118"/>
			<point x="305" y="118" type="curve" smooth="yes"/>
			<point x="260" y="118"/>
			<point x="230" y="134"/>
			<point x="236" y="162" type="curve" smooth="yes"/>
			<point x="241" y="190"/>
			<point x="259" y="198"/>
			<point x="299" y="198" type="curve"/>
			<point x="384" y="198" type="line"/>
			<point x="407" y="310" type="line"/>
			<point x="337" y="310" type="line"/>
			<point x="304" y="310"/>
			<point x="288" y="318"/>
			<point x="293" y="342" type="curve" smooth="yes"/>
			<point x="297" y="364"/>
			<point x="318" y="382"/>
			<point x="353" y="382" type="curve" smooth="yes"/>
			<point x="385" y="382"/>
			<point x="409" y="374"/>
			<point x="436" y="358" type="curve"/>
			<point x="518" y="468" type="line"/>
			<point x="474" y="498"/>
			<point x="425" y="512"/>
			<point x="369" y="512" type="curve" smooth="yes"/>
			<point x="262" y="512"/>
			<point x="157" y="469"/>
			<point x="136" y="366" type="curve" smooth="yes"/>
			<point x="129" y="328"/>
			<point x="143" y="282"/>
			<point x="194" y="266" type="curve"/>
			<point x="193" y="262" type="line"/>
			<point x="130" y="246"/>
			<point x="84" y="210"/>
			<point x="71" y="144" type="curve" smooth="yes"/>
			<point x="50" y="40"/>
			<point x="153" y="-12"/>
		</contour>
		<contour>
			<point name="aboveLC" x="362" y="520" type="move"/>
		</contour>
		<contour>
			<point name="baseLC" x="225" y="0" type="move"/>
		</contour>
		<contour>
			<point name="belowLC" x="241" y="-20" type="move"/>
		</contour>
	</outline>
</glyph>
<glyph name="eopenreversedclosed" format="2">
	<unicode hex="025E"/>
	<advance width="468"/>
	<outline>
		<contour>
			<point x="232" y="-12" type="curve" smooth="yes"/>
			<point x="346" y="-12"/>
			<point x="434" y="56"/>
			<point x="434" y="152" type="curve" smooth="yes"/>
			<point x="434" y="212"/>
			<point x="388" y="242"/>
			<point x="346" y="254" type="curve"/>
			<point x="346" y="258" type="line"/>
			<point x="398" y="278"/>
			<point x="452" y="320"/>
			<point x="452" y="392" type="curve" smooth="yes"/>
			<point x="452" y="456"/>
			<point x="394" y="490"/>
			<point x="324" y="490" type="curve" smooth="yes"/>
			<point x="168" y="490"/>
			<point x="46" y="346"/>
			<point x="46" y="160" type="curve" smooth="yes"/>
			<point x="46" y="50"/>
			<point x="116" y="-12"/>
		</contour>
		<contour>
			<point x="234" y="14" type="curve" smooth="yes"/>
			<point x="130" y="14"/>
			<point x="74" y="68"/>
			<point x="74" y="166" type="curve" smooth="yes"/>
			<point x="74" y="326"/>
			<point x="188" y="464"/>
			<point x="322" y="464" type="curve" smooth="yes"/>
			<point x="376" y="464"/>
			<point x="424" y="440"/>
			<point x="424" y="386" type="curve" smooth="yes"/>
			<point x="424" y="324"/>
			<point x="366" y="268"/>
			<point x="252" y="268" type="curve" smooth="yes"/>
			<point x="242" y="268" type="line"/>
			<point x="236" y="242" type="line"/>
			<point x="260" y="242" type="line" smooth="yes"/>
			<point x="356" y="242"/>
			<point x="406" y="206"/>
			<point x="406" y="146" type="curve" smooth="yes"/>
			<point x="406" y="70"/>
			<point x="330" y="14"/>
		</contour>
	</outline>
	<anchor name="aboveLC" x="320" y="502"/>
	<anchor name="belowLC" x="220" y="-22"/>
</glyph>
<glyph name="ghook" format="2">
	<unicode hex="0260"/>
	<advance width="518"/>
	<outline>
		<contour>
			<point x="166" y="-234" type="curve" smooth="yes"/>
			<point x="274" y="-234"/>
			<point x="343" y="-162"/>
			<point x="366" y="-48" type="curve" smooth="yes"/>
			<point x="496" y="602" type="line" smooth="yes"/>
			<point x="508" y="664"/>
			<point x="532" y="706"/>
			<point x="578" y="706" type="curve" smooth="yes"/>
			<point x="590" y="706"/>
			<point x="604" y="702"/>
			<point x="614" y="698" type="curve"/>
			<point x="624" y="722" type="line"/>
			<point x="612" y="728"/>
			<point x="594" y="734"/>
			<point x="580" y="734" type="curve" smooth="yes"/>
			<point x="524" y="734"/>
			<point x="487" y="694"/>
			<point x="468" y="600" type="curve" smooth="yes"/>
			<point x="430" y="410" type="line"/>
			<point x="426" y="410" type="line"/>
			<point x="400" y="458"/>
			<point x="357" y="490"/>
			<point x="300" y="490" type="curve" smooth="yes"/>
			<point x="174" y="490"/>
			<point x="46" y="344"/>
			<point x="46" y="166" type="curve" smooth="yes"/>
			<point x="46" y="56"/>
			<point x="102" y="-4"/>
			<point x="184" y="-4" type="curve" smooth="yes"/>
			<point x="252" y="-4"/>
			<point x="310" y="32"/>
			<point x="366" y="86" type="curve"/>
			<point x="342" y="-30" type="line" smooth="yes"/>
			<point x="320" y="-136"/>
			<point x="266" y="-208"/>
			<point x="168" y="-208" type="curve" smooth="yes"/>
			<point x="108" y="-208"/>
			<point x="60" y="-180"/>
			<point x="24" y="-146" type="curve"/>
			<point x="6" y="-168" type="line"/>
			<point x="46" y="-202"/>
			<point x="96" y="-234"/>
		</contour>
		<contour>
			<point x="186" y="22" type="curve" smooth="yes"/>
			<point x="116" y="22"/>
			<point x="74" y="72"/>
			<point x="74" y="172" type="curve" smooth="yes"/>
			<point x="74" y="314"/>
			<point x="184" y="464"/>
			<point x="298" y="464" type="curve" smooth="yes"/>
			<point x="346" y="464"/>
			<point x="385" y="438"/>
			<point x="424" y="372" type="curve"/>
			<point x="372" y="124" type="line"/>
			<point x="314" y="62"/>
			<point x="242" y="22"/>
		</contour>
	</outline>
	<anchor name="aboveLC" x="290" y="502"/>
	<anchor name="belowLC" x="170" y="-222"/>
</glyph>
<glyph name="gscript" format="1">
	<unicode hex="0261"/>
	<advance width="518"/>
	<outline>
		<component base="g"/>
		<contour>
			<point name="aboveLC" x="310" y="502" type="move"/>
		</contour>
		<contour>
			<point name="belowLC" x="170" y="-222" type="move"/>
		</contour>
	</outline>
</glyph>
<glyph name="lbelt" format="1">
	<unicode hex="026C"/>
	<advance width="242"/>
	<outline>
		<contour>
			<point x="108" y="342" type="curve" smooth="yes"/>
			<point x="236" y="342" type="line"/>
			<point x="242" y="368" type="line"/>
			<point x="102" y="368" type="line" smooth="yes"/>
			<point x="54" y="368"/>
			<point x="28" y="384"/>
			<point x="28" y="412" type="curve" smooth="yes"/>
			<point x="28" y="436"/>
			<point x="40" y="452"/>
			<point x="66" y="452" type="curve" smooth="yes"/>
			<point x="108" y="452"/>
			<point x="120" y="415"/>
			<point x="120" y="378" type="curve"/>
			<point x="140" y="370" type="line"/>
			<point x="140" y="406"/>
			<point x="132" y="478"/>
			<point x="64" y="478" type="curve" smooth="yes"/>
			<point x="26" y="478"/>
			<point x="2" y="450"/>
			<point x="2" y="414" type="curve" smooth="yes"/>
			<point x="2" y="372"/>
			<point x="36" y="342"/>
		</contour>
		<component base="l"/>
		<contour>
			<point name="aboveUC" x="206" y="730" type="move"/>
		</contour>
		<contour>
			<point name="belowLC" x="60" y="-22" type="move"/>
		</contour>
	</outline>
</glyph>
<glyph name="lretroflex" format="1">
	<unicode hex="026D"/>
	<advance width="216"/>
	<outline>
		<contour>
			<point x="84" y="-234" type="curve" smooth="yes"/>
			<point x="99" y="-234"/>
			<point x="121" y="-228"/>
			<point x="132" y="-222" type="curve"/>
			<point x="126" y="-198" type="line"/>
			<point x="116" y="-202"/>
			<point x="101" y="-208"/>
			<point x="86" y="-208" type="curve" smooth="yes"/>
			<point x="56" y="-208"/>
			<point x="46" y="-192"/>
			<point x="46" y="-158" type="curve" smooth="yes"/>
			<point x="46" y="-138"/>
			<point x="48" y="-126"/>
			<point x="52" y="-104" type="curve" smooth="yes"/>
			<point x="216" y="722" type="line"/>
			<point x="188" y="722" type="line"/>
			<point x="24" y="-104" type="line" smooth="yes"/>
			<point x="20" y="-126"/>
			<point x="18" y="-144"/>
			<point x="18" y="-162" type="curve" smooth="yes"/>
			<point x="18" y="-214"/>
			<point x="44" y="-234"/>
		</contour>
		<contour>
			<point name="aboveUC" x="210" y="730" type="move"/>
		</contour>
		<contour>
			<point name="belowLC" x="70" y="-218" type="move"/>
		</contour>
	</outline>
</glyph>
<glyph name="lezh" format="2">
	<unicode hex="026E"/>
	<advance width="526"/>
	<outline>
		<contour>
			<point x="44" y="0" type="line"/>
			<point x="72" y="0" type="line"/>
			<point x="216" y="722" type="line"/>
			<point x="188" y="722" type="line"/>
		</contour>
		<contour>
			<point x="236" y="-234" type="curve" smooth="yes"/>
			<point x="348" y="-234"/>
			<point x="466" y="-126"/>
			<point x="466" y="24" type="curve" smooth="yes"/>
			<point x="466" y="122"/>
			<point x="388" y="192"/>
			<point x="260" y="160" type="curve"/>
			<point x="540" y="460" type="line"/>
			<point x="542" y="478" type="line"/>
			<point x="150" y="478" type="line"/>
			<point x="144" y="452" type="line"/>
			<point x="498" y="452" type="line"/>
			<point x="210" y="144" type="line"/>
			<point x="223" y="122" type="line"/>
			<point x="250" y="134"/>
			<point x="271" y="142"/>
			<point x="301" y="142" type="curve" smooth="yes"/>
			<point x="392" y="142"/>
			<point x="438" y="102"/>
			<point x="438" y="18" type="curve" smooth="yes"/>
			<point x="438" y="-110"/>
			<point x="332" y="-208"/>
			<point x="238" y="-208" type="curve" smooth="yes"/>
			<point x="156" y="-208"/>
			<point x="110" y="-172"/>
			<point x="80" y="-140" type="curve"/>
			<point x="60" y="-158" type="line"/>
			<point x="92" y="-194"/>
			<point x="142" y="-234"/>
		</contour>
	</outline>
	<anchor name="aboveUC" x="230" y="732"/>
	<anchor name="belowLC" x="230" y="-222"/>
</glyph>
<glyph name="nhookleft" format="1">
	<unicode hex="0272"/>
	<advance width="559"/>
	<outline>
		<contour>
			<point x="7" y="-188" type="curve" smooth="yes"/>
			<point x="143" y="-188"/>
			<point x="203" y="-91"/>
			<point x="224" y="16" type="curve" smooth="yes"/>
			<point x="286" y="328" type="line"/>
			<point x="316" y="352"/>
			<point x="336" y="366"/>
			<point x="367" y="366" type="curve" smooth="yes"/>
			<point x="400" y="366"/>
			<point x="412" y="350"/>
			<point x="399" y="286" type="curve" smooth="yes"/>
			<point x="342" y="0" type="line"/>
			<point x="507" y="0" type="line"/>
			<point x="568" y="308" type="line" smooth="yes"/>
			<point x="593" y="432"/>
			<point x="565" y="512"/>
			<point x="459" y="512" type="curve" smooth="yes"/>
			<point x="394" y="512"/>
			<point x="339" y="478"/>
			<point x="293" y="440" type="curve"/>
			<point x="290" y="440" type="line"/>
			<point x="290" y="500" type="line"/>
			<point x="156" y="500" type="line"/>
			<point x="58" y="10" type="line" smooth="yes"/>
			<point x="48" y="-37"/>
			<point x="34" y="-54"/>
			<point x="6" y="-54" type="curve" smooth="yes"/>
			<point x="-2" y="-54"/>
			<point x="-8" y="-52"/>
			<point x="-17" y="-48" type="curve"/>
			<point x="-71" y="-174" type="line"/>
			<point x="-54" y="-182"/>
			<point x="-33" y="-188"/>
		</contour>
		<contour>
			<point name="aboveLC" x="406" y="520" type="move"/>
		</contour>
		<contour>
			<point name="belowLC" x="279" y="-119" type="move"/>
		</contour>
	</outline>
</glyph>
<glyph name="nsmall" format="2">
	<unicode hex="0274"/>
	<advance width="514"/>
	<outline>
		<contour>
			<point x="44" y="0" type="line"/>
			<point x="72" y="0" type="line"/>
			<point x="124" y="254" type="line" smooth="yes"/>
			<point x="135" y="307"/>
			<point x="144" y="368"/>
			<point x="154" y="432" type="curve"/>
			<point x="158" y="432" type="line"/>
			<point x="172" y="402"/>
			<point x="189" y="358"/>
			<point x="202" y="328" type="curve" smooth="yes"/>
			<point x="346" y="0" type="line"/>
			<point x="372" y="0" type="line"/>
			<point x="468" y="478" type="line"/>
			<point x="440" y="478" type="line"/>
			<point x="390" y="224" type="line" smooth="yes"/>
			<point x="380" y="171"/>
			<point x="369" y="110"/>
			<point x="359" y="46" type="curve"/>
			<point x="355" y="46" type="line"/>
			<point x="341" y="76"/>
			<point x="324" y="120"/>
			<point x="311" y="150" type="curve" smooth="yes"/>
			<point x="166" y="478" type="line"/>
			<point x="140" y="478" type="line"/>
		</contour>
	</outline>
	<anchor name="aboveLC" x="300" y="502"/>
	<anchor name="belowLC" x="220" y="-22"/>
</glyph>
<glyph name="rsmall" format="2">
	<unicode hex="0280"/>
	<advance width="440"/>
	<outline>
		<contour>
			<point x="44" y="0" type="line"/>
			<point x="72" y="0" type="line"/>
			<point x="116" y="218" type="line"/>
			<point x="240" y="218" type="line" smooth="yes"/>
			<point x="350" y="218"/>
			<point x="422" y="284"/>
			<point x="422" y="372" type="curve" smooth="yes"/>
			<point x="422" y="448"/>
			<point x="362" y="478"/>
			<point x="272" y="478" type="curve" smooth="yes"/>
			<point x="140" y="478" type="line"/>
		</contour>
		<contour>
			<point x="120" y="244" type="line"/>
			<point x="162" y="452" type="line"/>
			<point x="266" y="452" type="line" smooth="yes"/>
			<point x="350" y="452"/>
			<point x="394" y="430"/>
			<point x="394" y="366" type="curve" smooth="yes"/>
			<point x="394" y="296"/>
			<point x="336" y="244"/>
			<point x="228" y="244" type="curve" smooth="yes"/>
		</contour>
		<contour>
			<point x="334" y="0" type="line"/>
			<point x="366" y="0" type="line"/>
			<point x="258" y="230" type="line"/>
			<point x="234" y="218" type="line"/>
		</contour>
	</outline>
	<anchor name="aboveLC" x="290" y="502"/>
	<anchor name="belowLC" x="210" y="-22"/>
</glyph>
<glyph name="shook" format="2">
	<unicode hex="0282"/>
	<advance width="384"/>
	<outline>
		<contour>
			<point x="24" y="-234" type="curve" smooth="yes"/>
			<point x="39" y="-234"/>
			<point x="61" y="-228"/>
			<point x="72" y="-222" type="curve"/>
			<point x="66" y="-198" type="line"/>
			<point x="56" y="-202"/>
			<point x="41" y="-208"/>
			<point x="26" y="-208" type="curve" smooth="yes"/>
			<point x="-4" y="-208"/>
			<point x="-14" y="-192"/>
			<point x="-14" y="-158" type="curve" smooth="yes"/>
			<point x="-14" y="-134"/>
			<point x="-14" y="-108"/>
			<point x="22" y="52" type="curve"/>
			<point x="0" y="48" type="line"/>
			<point x="44" y="10"/>
			<point x="102" y="-12"/>
			<point x="158" y="-12" type="curve" smooth="yes"/>
			<point x="248" y="-12"/>
			<point x="320" y="42"/>
			<point x="320" y="128" type="curve" smooth="yes"/>
			<point x="320" y="178"/>
			<point x="300" y="206"/>
			<point x="198" y="264" type="curve" smooth="yes"/>
			<point x="152" y="290"/>
			<point x="108" y="318"/>
			<point x="108" y="364" type="curve" smooth="yes"/>
			<point x="108" y="418"/>
			<point x="154" y="464"/>
			<point x="216" y="464" type="curve" smooth="yes"/>
			<point x="266" y="464"/>
			<point x="306" y="444"/>
			<point x="334" y="414" type="curve"/>
			<point x="352" y="432" type="line"/>
			<point x="318" y="470"/>
			<point x="272" y="490"/>
			<point x="218" y="490" type="curve" smooth="yes"/>
			<point x="144" y="490"/>
			<point x="80" y="438"/>
			<point x="80" y="358" type="curve" smooth="yes"/>
			<point x="80" y="310"/>
			<point x="120" y="274"/>
			<point x="188" y="236" type="curve" smooth="yes"/>
			<point x="276" y="186"/>
			<point x="292" y="162"/>
			<point x="292" y="122" type="curve" smooth="yes"/>
			<point x="292" y="60"/>
			<point x="232" y="14"/>
			<point x="162" y="14" type="curve" smooth="yes"/>
			<point x="98" y="14"/>
			<point x="56" y="34"/>
			<point x="4" y="78" type="curve"/>
			<point x="0" y="76" type="line"/>
			<point x="-39" y="-93"/>
			<point x="-42" y="-138"/>
			<point x="-42" y="-162" type="curve" smooth="yes"/>
			<point x="-42" y="-214"/>
			<point x="-16" y="-234"/>
		</contour>
	</outline>
	<anchor name="aboveLC" x="250" y="502"/>
	<anchor name="belowLC" x="140" y="-222"/>
</glyph>
<glyph name="dotlessjstrokehook" format="1">
	<unicode hex="0284"/>
	<advance width="326"/>
	<outline>
		<contour>
			<point x="57" y="220" type="line"/>
			<point x="353" y="220" type="line"/>
			<point x="369" y="300" type="line"/>
			<point x="146" y="300" type="line"/>
			<point x="72" y="294" type="line"/>
		</contour>
		<component base="esh" xScale="0.96"/>
		<contour>
			<point name="aboveUC" x="163" y="730" type="move"/>
		</contour>
		<contour>
			<point name="belowLC" x="163" y="-119" type="move"/>
		</contour>
	</outline>
</glyph>
<glyph name="tturned" format="2">
	<unicode hex="0287"/>
	<advance width="290"/>
	<outline>
		<contour>
			<point x="78" y="-158" type="line"/>
			<point x="102" y="-158" type="line"/>
			<point x="138" y="0" type="line"/>
			<point x="216" y="4" type="line"/>
			<point x="220" y="26" type="line"/>
			<point x="144" y="26" type="line"/>
			<point x="212" y="354" type="line" smooth="yes"/>
			<point x="215" y="370"/>
			<point x="216" y="382"/>
			<point x="216" y="400" type="curve" smooth="yes"/>
			<point x="216" y="448"/>
			<point x="192" y="490"/>
			<point x="120" y="490" type="curve" smooth="yes"/>
			<point x="92" y="490"/>
			<point x="66" y="478"/>
			<point x="48" y="468" type="curve"/>
			<point x="58" y="446" type="line"/>
			<point x="74" y="454"/>
			<point x="94" y="464"/>
			<point x="118" y="464" type="curve" smooth="yes"/>
			<point x="172" y="464"/>
			<point x="188" y="440"/>
			<point x="188" y="394" type="curve" smooth="yes"/>
			<point x="188" y="380"/>
			<point x="186" y="368"/>
			<point x="184" y="356" type="curve" smooth="yes"/>
			<point x="116" y="26" type="line"/>
			<point x="-16" y="26" type="line"/>
			<point x="-22" y="0" type="line"/>
			<point x="110" y="0" type="line"/>
		</contour>
	</outline>
	<anchor name="aboveLC" x="150" y="502"/>
	<anchor name="belowLC" x="90" y="-160"/>
</glyph>
<glyph name="ubar" format="2">
	<unicode hex="0289"/>
	<advance width="530"/>
	<outline>
		<contour>
			<point x="2" y="258" type="line"/>
			<point x="514" y="258" type="line"/>
			<point x="520" y="284" type="line"/>
			<point x="100" y="284" type="line"/>
			<point x="6" y="280" type="line"/>
		</contour>
		<component base="u" xOffset="4"/>
	</outline>
	<anchor name="aboveLC" x="310" y="502"/>
	<anchor name="baseLC" x="190" y="0"/>
	<anchor name="belowLC" x="220" y="-22"/>
	<anchor name="ogonekLC" x="330" y="0"/>
</glyph>
<glyph name="upsilonlatin" format="1">
	<unicode hex="028A"/>
	<advance width="500"/>
	<outline>
		<contour>
			<point x="212" y="-12" type="curve" smooth="yes"/>
			<point x="338" y="-12"/>
			<point x="454" y="116"/>
			<point x="454" y="280" type="curve" smooth="yes"/>
			<point x="454" y="336"/>
			<point x="428" y="416"/>
			<point x="396" y="450" type="curve"/>
			<point x="396" y="452" type="line"/>
			<point x="514" y="452" type="line"/>
			<point x="520" y="478" type="line"/>
			<point x="360" y="478" type="line"/>
			<point x="356" y="458" type="line"/>
			<point x="400" y="424"/>
			<point x="426" y="340"/>
			<point x="426" y="274" type="curve" smooth="yes"/>
			<point x="426" y="132"/>
			<point x="318" y="14"/>
			<point x="214" y="14" type="curve" smooth="yes"/>
			<point x="124" y="14"/>
			<point x="74" y="68"/>
			<point x="74" y="170" type="curve" smooth="yes"/>
			<point x="74" y="296"/>
			<point x="150" y="402"/>
			<point x="238" y="458" type="curve"/>
			<point x="242" y="478" type="line"/>
			<point x="80" y="478" type="line"/>
			<point x="74" y="452" type="line"/>
			<point x="192" y="452" type="line"/>
			<point x="192" y="450" type="line"/>
			<point x="118" y="398"/>
			<point x="46" y="290"/>
			<point x="46" y="164" type="curve" smooth="yes"/>
			<point x="46" y="52"/>
			<point x="112" y="-12"/>
		</contour>
		<contour>
			<point name="aboveLC" x="300" y="502" type="move"/>
		</contour>
		<contour>
			<point name="belowLC" x="210" y="-22" type="move"/>
		</contour>
	</outline>
</glyph>
<glyph name="glottalstopreversed" format="2">
	<unicode hex="0295"/>
	<advance width="392"/>
	<outline>
		<contour>
			<point x="154" y="0" type="line"/>
			<point x="182" y="0" type="line"/>
			<point x="246" y="326" type="line"/>
			<point x="152" y="382"/>
			<point x="104" y="448"/>
			<point x="104" y="532" type="curve" smooth="yes"/>
			<point x="104" y="628"/>
			<point x="186" y="708"/>
			<point x="286" y="708" type="curve" smooth="yes"/>
			<point x="363" y="708"/>
			<point x="413" y="671"/>
			<point x="444" y="630" type="curve"/>
			<point x="466" y="646" type="line"/>
			<point x="435" y="687"/>
			<point x="381" y="734"/>
			<point x="288" y="734" type="curve" smooth="yes"/>
			<point x="168" y="734"/>
			<point x="76" y="644"/>
			<point x="76" y="526" type="curve" smooth="yes"/>
			<point x="76" y="430"/>
			<point x="134" y="366"/>
			<point x="216" y="312" type="curve"/>
		</contour>
	</outline>
	<anchor name="aboveUC" x="300" y="732"/>
	<anchor name="belowLC" x="170" y="-22"/>
</glyph>
<glyph name="clickbilabial" format="2">
	<unicode hex="0298"/>
	<advance width="460"/>
	<outline>
		<contour>
			<point x="186" y="-12" type="curve" smooth="yes"/>
			<point x="346" y="-12"/>
			<point x="452" y="282"/>
			<point x="452" y="542" type="curve" smooth="yes"/>
			<point x="452" y="689"/>
			<point x="386" y="734"/>
			<point x="316" y="734" type="curve" smooth="yes"/>
			<point x="156" y="734"/>
			<point x="50" y="440"/>
			<point x="50" y="180" type="curve" smooth="yes"/>
			<point x="50" y="33"/>
			<point x="116" y="-12"/>
		</contour>
		<contour>
			<point x="188" y="14" type="curve" smooth="yes"/>
			<point x="126" y="14"/>
			<point x="78" y="52"/>
			<point x="78" y="184" type="curve" smooth="yes"/>
			<point x="78" y="418"/>
			<point x="176" y="708"/>
			<point x="314" y="708" type="curve" smooth="yes"/>
			<point x="376" y="708"/>
			<point x="424" y="670"/>
			<point x="424" y="538" type="curve" smooth="yes"/>
			<point x="424" y="304"/>
			<point x="326" y="14"/>
		</contour>
		<contour>
			<point x="246" y="330" type="curve" smooth="yes"/>
			<point x="264" y="330"/>
			<point x="282" y="346"/>
			<point x="282" y="368" type="curve" smooth="yes"/>
			<point x="282" y="386"/>
			<point x="270" y="398"/>
			<point x="254" y="398" type="curve" smooth="yes"/>
			<point x="236" y="398"/>
			<point x="218" y="382"/>
			<point x="218" y="358" type="curve" smooth="yes"/>
			<point x="218" y="342"/>
			<point x="230" y="330"/>
		</contour>
	</outline>
	<anchor name="aboveUC" x="330" y="732"/>
	<anchor name="belowLC" x="190" y="-22"/>
</glyph>
<glyph name="gsmallhook" format="2">
	<unicode hex="029B"/>
	<advance width="462"/>
	<outline>
		<contour>
			<point x="210" y="-12" type="curve" smooth="yes"/>
			<point x="272" y="-12"/>
			<point x="327" y="14"/>
			<point x="364" y="46" type="curve"/>
			<point x="402" y="234" type="line"/>
			<point x="244" y="234" type="line"/>
			<point x="238" y="208" type="line"/>
			<point x="370" y="208" type="line"/>
			<point x="338" y="58" type="line"/>
			<point x="309" y="34"/>
			<point x="261" y="14"/>
			<point x="212" y="14" type="curve" smooth="yes"/>
			<point x="118" y="14"/>
			<point x="72" y="72"/>
			<point x="72" y="180" type="curve" smooth="yes"/>
			<point x="72" y="334"/>
			<point x="184" y="464"/>
			<point x="306" y="464" type="curve" smooth="yes"/>
			<point x="362" y="464"/>
			<point x="394" y="448"/>
			<point x="420" y="418" type="curve"/>
			<point x="438" y="432" type="line"/>
			<point x="400" y="506"/>
			<point x="388" y="560"/>
			<point x="388" y="616" type="curve" smooth="yes"/>
			<point x="388" y="666"/>
			<point x="412" y="708"/>
			<point x="458" y="708" type="curve" smooth="yes"/>
			<point x="472" y="708"/>
			<point x="484" y="704"/>
			<point x="494" y="698" type="curve"/>
			<point x="506" y="718" type="line"/>
			<point x="492" y="728"/>
			<point x="478" y="734"/>
			<point x="460" y="734" type="curve" smooth="yes"/>
			<point x="400" y="734"/>
			<point x="360" y="686"/>
			<point x="360" y="610" type="curve" smooth="yes"/>
			<point x="360" y="558"/>
			<point x="380" y="500"/>
			<point x="406" y="440" type="curve"/>
			<point x="420" y="452" type="line"/>
			<point x="390" y="480"/>
			<point x="350" y="490"/>
			<point x="308" y="490" type="curve" smooth="yes"/>
			<point x="174" y="490"/>
			<point x="44" y="364"/>
			<point x="44" y="174" type="curve" smooth="yes"/>
			<point x="44" y="56"/>
			<point x="108" y="-12"/>
		</contour>
	</outline>
	<anchor name="aboveLC" x="320" y="732"/>
	<anchor name="belowLC" x="210" y="-22"/>
</glyph>
<glyph name="hsmall" format="2">
	<unicode hex="029C"/>
	<advance width="514"/>
	<outline>
		<contour>
			<point x="44" y="0" type="line"/>
			<point x="72" y="0" type="line"/>
			<point x="120" y="242" type="line"/>
			<point x="392" y="242" type="line"/>
			<point x="344" y="0" type="line"/>
			<point x="372" y="0" type="line"/>
			<point x="468" y="478" type="line"/>
			<point x="440" y="478" type="line"/>
			<point x="398" y="268" type="line"/>
			<point x="126" y="268" type="line"/>
			<point x="168" y="478" type="line"/>
			<point x="140" y="478" type="line"/>
		</contour>
	</outline>
	<anchor name="aboveLC" x="310" y="502"/>
	<anchor name="belowLC" x="210" y="-22"/>
</glyph>
<glyph name="lsmall" format="2">
	<unicode hex="029F"/>
	<advance width="394"/>
	<outline>
		<contour>
			<point x="44" y="0" type="line"/>
			<point x="316" y="0" type="line"/>
			<point x="322" y="26" type="line"/>
			<point x="78" y="26" type="line"/>
			<point x="168" y="478" type="line"/>
			<point x="140" y="478" type="line"/>
		</contour>
	</outline>
	<anchor name="aboveLC" x="160" y="502"/>
	<anchor name="belowLC" x="180" y="-22"/>
</glyph>
<glyph name="ts" format="1">
	<unicode hex="02A6"/>
	<advance width="600"/>
	<outline>
		<contour>
			<point x="294" y="-12" type="curve" smooth="yes"/>
			<point x="472" y="-12"/>
			<point x="520" y="42"/>
			<point x="520" y="128" type="curve" smooth="yes"/>
			<point x="520" y="246"/>
			<point x="308" y="272"/>
			<point x="308" y="374" type="curve" smooth="yes"/>
			<point x="308" y="423"/>
			<point x="350" y="464"/>
			<point x="406" y="464" type="curve" smooth="yes"/>
			<point x="456" y="464"/>
			<point x="494" y="444"/>
			<point x="520" y="416" type="curve"/>
			<point x="542" y="432" type="line"/>
			<point x="508" y="470"/>
			<point x="462" y="490"/>
			<point x="408" y="490" type="curve" smooth="yes"/>
			<point x="339" y="490"/>
			<point x="280" y="442"/>
			<point x="280" y="368" type="curve" smooth="yes"/>
			<point x="280" y="252"/>
			<point x="492" y="226"/>
			<point x="492" y="122" type="curve" smooth="yes"/>
			<point x="492" y="60"/>
			<point x="453" y="14"/>
			<point x="296" y="14" type="curve" smooth="yes"/>
			<point x="151" y="14"/>
			<point x="110" y="52"/>
			<point x="110" y="124" type="curve" smooth="yes"/>
			<point x="110" y="138"/>
			<point x="112" y="150"/>
			<point x="114" y="162" type="curve" smooth="yes"/>
			<point x="174" y="452" type="line"/>
			<point x="356" y="452" type="line"/>
			<point x="362" y="478" type="line"/>
			<point x="180" y="478" type="line"/>
			<point x="212" y="636" type="line"/>
			<point x="188" y="636" type="line"/>
			<point x="152" y="478" type="line"/>
			<point x="74" y="474" type="line"/>
			<point x="70" y="452" type="line"/>
			<point x="146" y="452" type="line"/>
			<point x="86" y="164" type="line" smooth="yes"/>
			<point x="83" y="148"/>
			<point x="82" y="136"/>
			<point x="82" y="118" type="curve" smooth="yes"/>
			<point x="82" y="49"/>
			<point x="124" y="-12"/>
		</contour>
		<contour>
			<point name="aboveLC" x="330" y="630" type="move"/>
		</contour>
		<contour>
			<point name="belowLC" x="330" y="-20" type="move"/>
		</contour>
	</outline>
</glyph>
<glyph name="tccurl" format="2">
	<unicode hex="02A8"/>
	<advance width="678"/>
	<outline>
		<contour>
			<point x="170" y="-12" type="curve" smooth="yes"/>
			<point x="198" y="-12"/>
			<point x="224" y="0"/>
			<point x="242" y="10" type="curve"/>
			<point x="232" y="32" type="line"/>
			<point x="216" y="24"/>
			<point x="196" y="14"/>
			<point x="172" y="14" type="curve" smooth="yes"/>
			<point x="118" y="14"/>
			<point x="102" y="38"/>
			<point x="102" y="84" type="curve" smooth="yes"/>
			<point x="102" y="98"/>
			<point x="104" y="110"/>
			<point x="106" y="122" type="curve" smooth="yes"/>
			<point x="174" y="452" type="line"/>
			<point x="476" y="452" type="line"/>
			<point x="482" y="478" type="line"/>
			<point x="180" y="478" type="line"/>
			<point x="212" y="636" type="line"/>
			<point x="188" y="636" type="line"/>
			<point x="152" y="478" type="line"/>
			<point x="74" y="474" type="line"/>
			<point x="70" y="452" type="line"/>
			<point x="146" y="452" type="line"/>
			<point x="78" y="124" type="line"/>
			<point x="76" y="108"/>
			<point x="74" y="96"/>
			<point x="74" y="78" type="curve" smooth="yes"/>
			<point x="74" y="30"/>
			<point x="98" y="-12"/>
		</contour>
		<component base="ccurl" xOffset="250"/>
	</outline>
	<anchor name="aboveUC" x="410" y="732"/>
	<anchor name="belowLC" x="300" y="-22"/>
</glyph>
<glyph name="apostrophemod" format="2">
	<unicode hex="02BC"/>
	<advance width="202"/>
	<outline>
		<contour>
			<point x="114" y="480" type="line"/>
			<point x="184" y="520"/>
			<point x="232" y="588"/>
			<point x="232" y="670" type="curve" smooth="yes"/>
			<point x="232" y="702"/>
			<point x="216" y="720"/>
			<point x="196" y="720" type="curve" smooth="yes"/>
			<point x="173" y="720"/>
			<point x="158" y="702"/>
			<point x="158" y="680" type="curve" smooth="yes"/>
			<point x="158" y="658"/>
			<point x="174" y="646"/>
			<point x="194" y="646" type="curve" smooth="yes"/>
			<point x="202" y="646"/>
			<point x="214" y="648"/>
			<point x="223" y="658" type="curve"/>
			<point x="202" y="658" type="line"/>
			<point x="202" y="648" type="line"/>
			<point x="202" y="594"/>
			<point x="168" y="540"/>
			<point x="104" y="500" type="curve"/>
		</contour>
	</outline>
</glyph>
<glyph name="quoteright" format="2">
	<unicode hex="02BC"/>
	<unicode hex="2019"/>
	<advance width="202"/>
	<outline>
		<contour>
			<point x="126" y="498" type="line"/>
			<point x="186" y="532"/>
			<point x="226" y="588"/>
			<point x="226" y="658" type="curve" smooth="yes"/>
			<point x="226" y="686"/>
			<point x="210" y="702"/>
			<point x="190" y="702" type="curve" smooth="yes"/>
			<point x="172" y="702"/>
			<point x="158" y="686"/>
			<point x="158" y="666" type="curve" smooth="yes"/>
			<point x="158" y="646"/>
			<point x="172" y="636"/>
			<point x="190" y="636" type="curve" smooth="yes"/>
			<point x="196" y="636"/>
			<point x="206" y="638"/>
			<point x="214" y="648" type="curve"/>
			<point x="188" y="688" type="line"/>
			<point x="194" y="638" type="line"/>
			<point x="194" y="594"/>
			<point x="166" y="550"/>
			<point x="114" y="518" type="curve"/>
		</contour>
	</outline>
</glyph>
<glyph name="verticallinemod" format="1">
	<unicode hex="02C8"/>
	<advance width="84"/>
	<outline>
		<contour>
			<point x="98" y="588" type="line"/>
			<point x="118" y="588" type="line"/>
			<point x="156" y="756" type="line"/>
			<point x="126" y="756" type="line"/>
		</contour>
	</outline>
</glyph>
<glyph name="colontriangularmod" format="1">
	<unicode hex="02D0"/>
	<advance width="200"/>
	<outline>
		<contour>
			<point x="8" y="0" type="line"/>
			<point x="104" y="0" type="line"/>
			<point x="79" y="96" type="line"/>
			<point x="71" y="96" type="line"/>
		</contour>
		<contour>
			<point x="121" y="348" type="line"/>
			<point x="129" y="348" type="line"/>
			<point x="192" y="442" type="line"/>
			<point x="96" y="442" type="line"/>
		</contour>
	</outline>
</glyph>
<glyph name="colontriangularhalfmod" format="2">
	<unicode hex="02D1"/>
	<advance width="140"/>
	<outline>
		<contour>
			<point x="95" y="378" type="line"/>
			<point x="103" y="378" type="line"/>
			<point x="168" y="478" type="line"/>
			<point x="72" y="478" type="line"/>
		</contour>
	</outline>
</glyph>
<glyph name="hookrhoticmod" format="1">
	<unicode hex="02DE"/>
	<advance width="120"/>
	<outline>
		<contour>
			<point x="94" y="233" type="curve" smooth="yes"/>
			<point x="119" y="233"/>
			<point x="137" y="245"/>
			<point x="150" y="256" type="curve"/>
			<point x="134" y="278" type="line"/>
			<point x="125" y="269"/>
			<point x="113" y="261"/>
			<point x="97" y="261" type="curve" smooth="yes"/>
			<point x="69" y="261"/>
			<point x="50" y="276"/>
			<point x="40" y="367" type="curve"/>
			<point x="-72" y="324" type="line"/>
			<point x="-72" y="296" type="line"/>
			<point x="16" y="328" type="line"/>
			<point x="28" y="260"/>
			<point x="56" y="233"/>
		</contour>
	</outline>
</glyph>
<glyph name="s.sups" format="2">
	<unicode hex="02E2"/>
	<advance width="260"/>
	<outline>
		<contour>
			<point x="170" y="402" type="curve" smooth="yes"/>
			<point x="238" y="402"/>
			<point x="282" y="436"/>
			<point x="282" y="496" type="curve" smooth="yes"/>
			<point x="282" y="530"/>
			<point x="262" y="554"/>
			<point x="202" y="586" type="curve" smooth="yes"/>
			<point x="168" y="604"/>
			<point x="142" y="622"/>
			<point x="142" y="648" type="curve" smooth="yes"/>
			<point x="142" y="682"/>
			<point x="172" y="710"/>
			<point x="214" y="710" type="curve" smooth="yes"/>
			<point x="246" y="710"/>
			<point x="272" y="694"/>
			<point x="290" y="676" type="curve"/>
			<point x="308" y="696" type="line"/>
			<point x="284" y="718"/>
			<point x="254" y="734"/>
			<point x="216" y="734" type="curve" smooth="yes"/>
			<point x="160" y="734"/>
			<point x="116" y="698"/>
			<point x="116" y="644" type="curve" smooth="yes"/>
			<point x="116" y="608"/>
			<point x="146" y="584"/>
			<point x="194" y="560" type="curve" smooth="yes"/>
			<point x="242" y="536"/>
			<point x="256" y="514"/>
			<point x="256" y="492" type="curve" smooth="yes"/>
			<point x="256" y="454"/>
			<point x="224" y="426"/>
			<point x="176" y="426" type="curve" smooth="yes"/>
			<point x="134" y="426"/>
			<point x="102" y="450"/>
			<point x="80" y="474" type="curve"/>
			<point x="60" y="456" type="line"/>
			<point x="88" y="426"/>
			<point x="124" y="402"/>
		</contour>
	</outline>
</glyph>
<glyph name="x.sups" format="2">
	<unicode hex="02E3"/>
	<advance width="264"/>
	<outline>
		<contour>
			<point x="36" y="410" type="line"/>
			<point x="68" y="410" type="line"/>
			<point x="146" y="500" type="line"/>
			<point x="192" y="554" type="line"/>
			<point x="196" y="554" type="line"/>
			<point x="224" y="492" type="line"/>
			<point x="260" y="410" type="line"/>
			<point x="286" y="410" type="line"/>
			<point x="216" y="572" type="line"/>
			<point x="348" y="726" type="line"/>
			<point x="316" y="726" type="line"/>
			<point x="248" y="644" type="line"/>
			<point x="206" y="596" type="line"/>
			<point x="202" y="596" type="line"/>
			<point x="176" y="652" type="line"/>
			<point x="144" y="726" type="line"/>
			<point x="118" y="726" type="line"/>
			<point x="184" y="576" type="line"/>
		</contour>
	</outline>
</glyph>
<glyph name="glottalstopreversedsupmod" format="1">
	<unicode hex="02E4"/>
	<advance width="270"/>
	<outline>
		<contour>
			<point x="148" y="410" type="line"/>
			<point x="174" y="410" type="line"/>
			<point x="216" y="624" type="line"/>
			<point x="154" y="660"/>
			<point x="124" y="700"/>
			<point x="124" y="754" type="curve" smooth="yes"/>
			<point x="124" y="814"/>
			<point x="168" y="868"/>
			<point x="244" y="868" type="curve" smooth="yes"/>
			<point x="296" y="868"/>
			<point x="320" y="844"/>
			<point x="343" y="820" type="curve"/>
			<point x="362" y="836" type="line"/>
			<point x="340" y="860"/>
			<point x="308" y="892"/>
			<point x="246" y="892" type="curve" smooth="yes"/>
			<point x="158" y="892"/>
			<point x="98" y="830"/>
			<point x="98" y="750" type="curve" smooth="yes"/>
			<point x="98" y="688"/>
			<point x="134" y="648"/>
			<point x="188" y="612" type="curve"/>
		</contour>
	</outline>
</glyph>
<glyph name="gravecmb" format="2">
	<unicode hex="0300"/>
	<outline>
		<contour>
			<point x="150" y="570" type="line"/>
			<point x="170" y="584" type="line"/>
			<point x="62" y="748" type="line"/>
			<point x="36" y="730" type="line"/>
		</contour>
	</outline>
	<anchor name="_aboveLC" x="100" y="502"/>
</glyph>
<glyph name="macroncmb" format="2">
	<unicode hex="0304"/>
	<outline>
		<contour>
			<point x="4" y="610" type="line"/>
			<point x="236" y="610" type="line"/>
			<point x="240" y="636" type="line"/>
			<point x="8" y="636" type="line"/>
		</contour>
	</outline>
	<anchor name="_aboveLC" x="100" y="502"/>
	<anchor name="aboveLC" x="120" y="622"/>
</glyph>
<glyph name="overlinecmb" format="1">
	<unicode hex="0305"/>
	<outline>
		<component base="macroncmb"/>
		<contour>
			<point name="_aboveLC" x="100" y="502" type="move"/>
		</contour>
		<contour>
			<point name="aboveLC" x="120" y="622" type="move"/>
		</contour>
	</outline>
</glyph>
<glyph name="brevecmb" format="1">
	<unicode hex="0306"/>
	<outline>
		<contour>
			<point x="110" y="570" type="curve" smooth="yes"/>
			<point x="212" y="570"/>
			<point x="266" y="654"/>
			<point x="284" y="716" type="curve"/>
			<point x="258" y="720" type="line"/>
			<point x="240" y="662"/>
			<point x="190" y="596"/>
			<point x="116" y="596" type="curve" smooth="yes"/>
			<point x="39" y="596"/>
			<point x="18" y="657"/>
			<point x="18" y="718" type="curve"/>
			<point x="-8" y="716" type="line"/>
			<point x="-8" y="650"/>
			<point x="12" y="570"/>
		</contour>
		<contour>
			<point name="_aboveLC" x="100" y="502" type="move"/>
		</contour>
	</outline>
</glyph>
<glyph name="hoicmb" format="1">
	<unicode hex="0309"/>
	<outline>
		<contour>
			<point x="94" y="576" type="line"/>
			<point x="140" y="590"/>
			<point x="188" y="612"/>
			<point x="198" y="662" type="curve" smooth="yes"/>
			<point x="206" y="712"/>
			<point x="154" y="732"/>
			<point x="96" y="734" type="curve"/>
			<point x="90" y="708" type="line"/>
			<point x="142" y="706"/>
			<point x="172" y="690"/>
			<point x="166" y="658" type="curve" smooth="yes"/>
			<point x="162" y="628"/>
			<point x="130" y="612"/>
			<point x="90" y="600" type="curve"/>
		</contour>
		<contour>
			<point name="_aboveLC" x="104" y="502" type="move"/>
		</contour>
	</outline>
</glyph>
<glyph name="ringcmb" format="1">
	<unicode hex="030A"/>
	<outline>
		<contour>
			<point x="118" y="548" type="curve" smooth="yes"/>
			<point x="176" y="548"/>
			<point x="216" y="599"/>
			<point x="216" y="656" type="curve" smooth="yes"/>
			<point x="216" y="706"/>
			<point x="180" y="732"/>
			<point x="136" y="732" type="curve" smooth="yes"/>
			<point x="78" y="732"/>
			<point x="38" y="681"/>
			<point x="38" y="624" type="curve" smooth="yes"/>
			<point x="38" y="574"/>
			<point x="74" y="548"/>
		</contour>
		<contour>
			<point x="120" y="570" type="curve" smooth="yes"/>
			<point x="84" y="570"/>
			<point x="62" y="592"/>
			<point x="62" y="626" type="curve" smooth="yes"/>
			<point x="62" y="672"/>
			<point x="95" y="710"/>
			<point x="134" y="710" type="curve" smooth="yes"/>
			<point x="170" y="710"/>
			<point x="192" y="688"/>
			<point x="192" y="654" type="curve" smooth="yes"/>
			<point x="192" y="608"/>
			<point x="159" y="570"/>
		</contour>
		<contour>
			<point name="_aboveLC" x="100" y="502" type="move"/>
		</contour>
	</outline>
</glyph>
<glyph name="hungarumlautcmb" format="2">
	<unicode hex="030B"/>
	<outline>
		<contour>
			<point x="10" y="570" type="line"/>
			<point x="36" y="570" type="line"/>
			<point x="160" y="716" type="line"/>
			<point x="158" y="720" type="line"/>
			<point x="126" y="720" type="line"/>
		</contour>
		<contour>
			<point x="160" y="570" type="line"/>
			<point x="186" y="570" type="line"/>
			<point x="310" y="716" type="line"/>
			<point x="308" y="720" type="line"/>
			<point x="276" y="720" type="line"/>
		</contour>
	</outline>
	<anchor name="_aboveLC" x="100" y="502"/>
</glyph>
<glyph name="caroncmb" format="1">
	<unicode hex="030C"/>
	<outline>
		<contour>
			<point x="98" y="572" type="line"/>
			<point x="126" y="572" type="line"/>
			<point x="270" y="718" type="line"/>
			<point x="252" y="734" type="line"/>
			<point x="116" y="602" type="line"/>
			<point x="112" y="602" type="line"/>
			<point x="26" y="734" type="line"/>
			<point x="6" y="720" type="line"/>
		</contour>
		<contour>
			<point name="_aboveLC" x="104" y="502" type="move"/>
		</contour>
	</outline>
</glyph>
<glyph name="dblgravecmb" format="1">
	<unicode hex="030F"/>
	<outline>
		<contour>
			<point x="28" y="568" type="line"/>
			<point x="50" y="576" type="line"/>
			<point x="-6" y="748" type="line"/>
			<point x="-36" y="734" type="line"/>
		</contour>
		<contour>
			<point x="156" y="568" type="line"/>
			<point x="178" y="576" type="line"/>
			<point x="122" y="748" type="line"/>
			<point x="92" y="734" type="line"/>
		</contour>
		<contour>
			<point name="_aboveLC" x="100" y="502" type="move"/>
		</contour>
	</outline>
</glyph>
<glyph name="commaabovecmb" format="2">
	<unicode hex="0313"/>
	<outline>
		<contour>
			<point x="70" y="574" type="line"/>
			<point x="140" y="602"/>
			<point x="166" y="644"/>
			<point x="166" y="692" type="curve" smooth="yes"/>
			<point x="166" y="720"/>
			<point x="152" y="744"/>
			<point x="128" y="744" type="curve" smooth="yes"/>
			<point x="108" y="744"/>
			<point x="92" y="732"/>
			<point x="92" y="706" type="curve" smooth="yes"/>
			<point x="92" y="688"/>
			<point x="106" y="674"/>
			<point x="122" y="674" type="curve" smooth="yes"/>
			<point x="132" y="674"/>
			<point x="144" y="676"/>
			<point x="156" y="690" type="curve"/>
			<point x="126" y="728" type="line"/>
			<point x="136" y="678" type="line"/>
			<point x="128" y="644"/>
			<point x="110" y="616"/>
			<point x="62" y="596" type="curve"/>
		</contour>
	</outline>
	<anchor name="_aboveLC" x="100" y="502"/>
</glyph>
<glyph name="righttackbelowcmb" format="2">
	<unicode hex="0319"/>
	<outline>
		<contour>
			<point x="-121" y="-242" type="line"/>
			<point x="-93" y="-242" type="line"/>
			<point x="-78" y="-166" type="line"/>
			<point x="34" y="-166" type="line"/>
			<point x="39" y="-138" type="line"/>
			<point x="-73" y="-138" type="line"/>
			<point x="-58" y="-62" type="line"/>
			<point x="-86" y="-62" type="line"/>
		</contour>
	</outline>
	<anchor name="_belowLC" x="0" y="-22"/>
</glyph>
<glyph name="leftangleabovecmb" format="1">
	<unicode hex="031A"/>
	<outline>
		<contour>
			<point x="157" y="572" type="line"/>
			<point x="185" y="572" type="line"/>
			<point x="211" y="706" type="line"/>
			<point x="71" y="706" type="line"/>
			<point x="66" y="678" type="line"/>
			<point x="178" y="678" type="line"/>
		</contour>
		<contour>
			<point name="_aboverightLC" x="100" y="502" type="move"/>
		</contour>
	</outline>
</glyph>
<glyph name="ringhalfleftbelowcmb" format="2">
	<unicode hex="031C"/>
	<outline>
		<contour>
			<point x="8" y="-256" type="curve"/>
			<point x="12" y="-236" type="line"/>
			<point x="-34" y="-236"/>
			<point x="-66" y="-218"/>
			<point x="-66" y="-178" type="curve" smooth="yes"/>
			<point x="-66" y="-120"/>
			<point x="-16" y="-92"/>
			<point x="40" y="-92" type="curve"/>
			<point x="44" y="-72" type="line"/>
			<point x="-24" y="-70"/>
			<point x="-94" y="-102"/>
			<point x="-94" y="-180" type="curve" smooth="yes"/>
			<point x="-94" y="-231"/>
			<point x="-42" y="-260"/>
		</contour>
	</outline>
	<anchor name="_belowLC" x="0" y="-22"/>
</glyph>
<glyph name="tildebelowcmb" format="1">
	<unicode hex="0330"/>
	<outline>
		<component base="tildecmb" xOffset="-156" yOffset="-800"/>
		<contour>
			<point name="_belowLC" x="0" y="-22" type="move"/>
		</contour>
	</outline>
</glyph>
<glyph name="xabovecmb" format="2">
	<unicode hex="033D"/>
	<outline>
		<contour>
			<point x="59" y="567" type="line"/>
			<point x="120" y="618" type="line"/>
			<point x="161" y="567" type="line"/>
			<point x="185" y="587" type="line"/>
			<point x="144" y="638" type="line"/>
			<point x="205" y="689" type="line"/>
			<point x="189" y="709" type="line"/>
			<point x="128" y="658" type="line"/>
			<point x="87" y="709" type="line"/>
			<point x="63" y="689" type="line"/>
			<point x="104" y="638" type="line"/>
			<point x="43" y="587" type="line"/>
		</contour>
	</outline>
	<anchor name="_aboveLC" x="100" y="502"/>
</glyph>
<glyph name="variacmb" format="2">
	<unicode hex="0340"/>
	<outline>
		<contour>
			<point x="103" y="562" type="line"/>
			<point x="126" y="566" type="line"/>
			<point x="118" y="750" type="line"/>
			<point x="84" y="746" type="line"/>
		</contour>
	</outline>
	<anchor name="_aboveLC" x="100" y="502"/>
</glyph>
<glyph name="breveinverteddoublecmb" format="2">
	<unicode hex="0361"/>
	<outline>
		<contour>
			<point x="-364" y="562" type="line"/>
			<point x="-228" y="642"/>
			<point x="-72" y="684"/>
			<point x="82" y="684" type="curve" smooth="yes"/>
			<point x="236" y="684"/>
			<point x="374" y="642"/>
			<point x="480" y="562" type="curve"/>
			<point x="494" y="582" type="line"/>
			<point x="382" y="664"/>
			<point x="256" y="712"/>
			<point x="88" y="712" type="curve" smooth="yes"/>
			<point x="-92" y="712"/>
			<point x="-242" y="664"/>
			<point x="-374" y="582" type="curve"/>
		</contour>
	</outline>
</glyph>
<glyph name="numeralsign" format="2">
	<unicode hex="0374"/>
	<advance width="198"/>
	<outline>
		<contour>
			<point x="124" y="501" type="line"/>
			<point x="142" y="501" type="line"/>
			<point x="191" y="632" type="line"/>
			<point x="211" y="694" type="line"/>
			<point x="186" y="694" type="line"/>
		</contour>
	</outline>
</glyph>
<glyph name="dieresistonos" format="1">
	<unicode hex="0385"/>
	<advance width="500"/>
	<outline>
		<component base="dialytikatonoscmb" xOffset="214"/>
		<contour>
			<point name="_aboveLC" x="314" y="500" type="move"/>
		</contour>
	</outline>
</glyph>
<glyph name="Alpha" format="1">
	<unicode hex="0391"/>
	<advance width="480"/>
	<outline>
		<component base="A"/>
		<contour>
			<point name="aboveUC" x="330" y="680" type="move"/>
		</contour>
		<contour>
			<point name="belowLC" x="212" y="-20" type="move"/>
		</contour>
	</outline>
</glyph>
<glyph name="Gamma" format="2">
	<unicode hex="0393"/>
	<advance width="454"/>
	<outline>
		<contour>
			<point x="40" y="0" type="line"/>
			<point x="70" y="0" type="line"/>
			<point x="196" y="634" type="line"/>
			<point x="504" y="634" type="line"/>
			<point x="510" y="660" type="line"/>
			<point x="172" y="660" type="line"/>
		</contour>
	</outline>
	<anchor name="aboveUC" x="350" y="682"/>
</glyph>
<glyph name="Eta" format="1">
	<unicode hex="0397"/>
	<advance width="598"/>
	<outline>
		<component base="H"/>
		<contour>
			<point name="belowLC" x="256" y="-20" type="move"/>
		</contour>
	</outline>
</glyph>
<glyph name="Iota" format="1">
	<unicode hex="0399"/>
	<advance width="212"/>
	<outline>
		<component base="I"/>
		<contour>
			<point name="aboveUC" x="190" y="680" type="move"/>
		</contour>
	</outline>
</glyph>
<glyph name="Xi" format="2">
	<unicode hex="039E"/>
	<advance width="480"/>
	<outline>
		<contour>
			<point x="-11" y="0" type="line"/>
			<point x="382" y="0" type="line"/>
			<point x="387" y="26" type="line"/>
			<point x="-6" y="26" type="line"/>
		</contour>
		<contour>
			<point x="134" y="340" type="line"/>
			<point x="373" y="340" type="line"/>
			<point x="378" y="365" type="line"/>
			<point x="139" y="365" type="line"/>
		</contour>
		<contour>
			<point x="125" y="635" type="line"/>
			<point x="499" y="635" type="line"/>
			<point x="504" y="660" type="line"/>
			<point x="131" y="660" type="line"/>
		</contour>
	</outline>
</glyph>
<glyph name="Omicron" format="1">
	<unicode hex="039F"/>
	<advance width="612"/>
	<outline>
		<component base="O"/>
		<contour>
			<point name="aboveUC" x="390" y="680" type="move"/>
		</contour>
	</outline>
</glyph>
<glyph name="Psi" format="2">
	<unicode hex="03A8"/>
	<advance width="624"/>
	<outline>
		<contour>
			<point x="244" y="0" type="line"/>
			<point x="274" y="0" type="line"/>
			<point x="406" y="660" type="line"/>
			<point x="376" y="660" type="line"/>
		</contour>
		<contour>
			<point x="301" y="268" type="curve"/>
			<point x="304" y="268" type="line" smooth="yes"/>
			<point x="492" y="268"/>
			<point x="574" y="348"/>
			<point x="604" y="498" type="curve" smooth="yes"/>
			<point x="636" y="660" type="line"/>
			<point x="607" y="660" type="line"/>
			<point x="574" y="498" type="line" smooth="yes"/>
			<point x="548" y="372"/>
			<point x="484" y="294"/>
			<point x="309" y="294" type="curve" smooth="yes"/>
			<point x="306" y="294" type="line" smooth="yes"/>
			<point x="218" y="294"/>
			<point x="140" y="348"/>
			<point x="140" y="456" type="curve" smooth="yes"/>
			<point x="140" y="472"/>
			<point x="141" y="489"/>
			<point x="145" y="508" type="curve" smooth="yes"/>
			<point x="175" y="660" type="line"/>
			<point x="146" y="660" type="line"/>
			<point x="116" y="508" type="line" smooth="yes"/>
			<point x="112" y="488"/>
			<point x="110" y="469"/>
			<point x="110" y="452" type="curve" smooth="yes"/>
			<point x="110" y="332"/>
			<point x="204" y="268"/>
		</contour>
	</outline>
</glyph>
<glyph name="Omega" format="1">
	<unicode hex="03A9"/>
	<unicode hex="2126"/>
	<advance width="624"/>
	<outline>
		<contour>
			<point x="-6" y="0" type="line"/>
			<point x="190" y="0" type="line"/>
			<point x="194" y="20" type="line"/>
			<point x="140" y="64"/>
			<point x="92" y="150"/>
			<point x="92" y="268" type="curve" smooth="yes"/>
			<point x="92" y="480"/>
			<point x="218" y="646"/>
			<point x="386" y="646" type="curve" smooth="yes"/>
			<point x="502" y="646"/>
			<point x="562" y="554"/>
			<point x="562" y="424" type="curve" smooth="yes"/>
			<point x="562" y="218"/>
			<point x="442" y="88"/>
			<point x="332" y="20" type="curve"/>
			<point x="326" y="0" type="line"/>
			<point x="524" y="0" type="line"/>
			<point x="528" y="26" type="line"/>
			<point x="392" y="26" type="line"/>
			<point x="394" y="30" type="line"/>
			<point x="492" y="110"/>
			<point x="592" y="232"/>
			<point x="592" y="426" type="curve" smooth="yes"/>
			<point x="592" y="570"/>
			<point x="522" y="672"/>
			<point x="390" y="672" type="curve" smooth="yes"/>
			<point x="204" y="672"/>
			<point x="62" y="496"/>
			<point x="62" y="264" type="curve" smooth="yes"/>
			<point x="62" y="160"/>
			<point x="104" y="78"/>
			<point x="146" y="30" type="curve"/>
			<point x="146" y="26" type="line"/>
			<point x="-2" y="26" type="line"/>
		</contour>
		<contour>
			<point name="aboveUC" x="312" y="680" type="move"/>
		</contour>
		<contour>
			<point name="belowLC" x="312" y="-20" type="move"/>
		</contour>
	</outline>
</glyph>
<glyph name="alpha" format="2">
	<unicode hex="03B1"/>
	<advance width="512"/>
	<outline>
		<contour>
			<point x="180" y="-12" type="curve" smooth="yes"/>
			<point x="242" y="-12"/>
			<point x="310" y="30"/>
			<point x="356" y="102" type="curve"/>
			<point x="360" y="102" type="line"/>
			<point x="358" y="80"/>
			<point x="356" y="58"/>
			<point x="356" y="46" type="curve" smooth="yes"/>
			<point x="356" y="3"/>
			<point x="382" y="-12"/>
			<point x="411" y="-12" type="curve" smooth="yes"/>
			<point x="426" y="-12"/>
			<point x="431" y="-10"/>
			<point x="442" y="-6" type="curve"/>
			<point x="436" y="18" type="line"/>
			<point x="432" y="16"/>
			<point x="425" y="14"/>
			<point x="417" y="14" type="curve" smooth="yes"/>
			<point x="387" y="14"/>
			<point x="382" y="37"/>
			<point x="382" y="62" type="curve" smooth="yes"/>
			<point x="382" y="140"/>
			<point x="440" y="318"/>
			<point x="499" y="478" type="curve"/>
			<point x="468" y="478" type="line"/>
			<point x="428" y="350" type="line"/>
			<point x="424" y="350" type="line"/>
			<point x="412" y="442"/>
			<point x="380" y="490"/>
			<point x="304" y="490" type="curve" smooth="yes"/>
			<point x="184" y="490"/>
			<point x="46" y="344"/>
			<point x="46" y="146" type="curve" smooth="yes"/>
			<point x="46" y="42"/>
			<point x="100" y="-12"/>
		</contour>
		<contour>
			<point x="182" y="14" type="curve" smooth="yes"/>
			<point x="114" y="14"/>
			<point x="74" y="60"/>
			<point x="74" y="152" type="curve" smooth="yes"/>
			<point x="74" y="323"/>
			<point x="194" y="464"/>
			<point x="302" y="464" type="curve" smooth="yes"/>
			<point x="368" y="464"/>
			<point x="404" y="408"/>
			<point x="404" y="288" type="curve"/>
			<point x="381" y="202" type="line" smooth="yes"/>
			<point x="360" y="114"/>
			<point x="262" y="14"/>
		</contour>
	</outline>
	<anchor name="aboveLC" x="320" y="502"/>
	<anchor name="belowLC" x="200" y="-22"/>
</glyph>
<glyph name="delta" format="1">
	<unicode hex="03B4"/>
	<advance width="489"/>
	<outline>
		<contour>
			<point x="200" y="-12" type="curve" smooth="yes"/>
			<point x="340" y="-12"/>
			<point x="434" y="127"/>
			<point x="434" y="282" type="curve" smooth="yes"/>
			<point x="434" y="402"/>
			<point x="380" y="444"/>
			<point x="320" y="488" type="curve" smooth="yes"/>
			<point x="254" y="536"/>
			<point x="204" y="586"/>
			<point x="204" y="640" type="curve" smooth="yes"/>
			<point x="204" y="682"/>
			<point x="232" y="708"/>
			<point x="286" y="708" type="curve" smooth="yes"/>
			<point x="336" y="708"/>
			<point x="398" y="690"/>
			<point x="500" y="630" type="curve"/>
			<point x="514" y="654" type="line"/>
			<point x="416" y="710"/>
			<point x="348" y="734"/>
			<point x="288" y="734" type="curve" smooth="yes"/>
			<point x="208" y="734"/>
			<point x="176" y="690"/>
			<point x="176" y="634" type="curve" smooth="yes"/>
			<point x="176" y="580"/>
			<point x="236" y="514"/>
			<point x="300" y="470" type="curve" smooth="yes"/>
			<point x="362" y="428"/>
			<point x="406" y="388"/>
			<point x="406" y="275" type="curve" smooth="yes"/>
			<point x="406" y="144"/>
			<point x="324" y="14"/>
			<point x="202" y="14" type="curve" smooth="yes"/>
			<point x="120" y="14"/>
			<point x="64" y="76"/>
			<point x="64" y="176" type="curve" smooth="yes"/>
			<point x="64" y="298"/>
			<point x="156" y="452"/>
			<point x="321" y="456" type="curve"/>
			<point x="306" y="478" type="line"/>
			<point x="143" y="470"/>
			<point x="36" y="315"/>
			<point x="36" y="170" type="curve" smooth="yes"/>
			<point x="36" y="54"/>
			<point x="110" y="-12"/>
		</contour>
	</outline>
</glyph>
<glyph name="epsilon" format="1">
	<unicode hex="03B5"/>
	<advance width="384"/>
	<outline>
		<contour>
			<point x="158" y="-12" type="curve" smooth="yes"/>
			<point x="226" y="-12"/>
			<point x="268" y="2"/>
			<point x="340" y="46" type="curve"/>
			<point x="328" y="66" type="line"/>
			<point x="255" y="26"/>
			<point x="222" y="14"/>
			<point x="160" y="14" type="curve" smooth="yes"/>
			<point x="94" y="14"/>
			<point x="52" y="50"/>
			<point x="52" y="104" type="curve" smooth="yes"/>
			<point x="52" y="184"/>
			<point x="134" y="240"/>
			<point x="292" y="252" type="curve"/>
			<point x="288" y="280" type="line"/>
			<point x="264" y="274"/>
			<point x="250" y="272"/>
			<point x="228" y="272" type="curve" smooth="yes"/>
			<point x="170" y="272"/>
			<point x="126" y="312"/>
			<point x="126" y="362" type="curve" smooth="yes"/>
			<point x="126" y="428"/>
			<point x="192" y="464"/>
			<point x="272" y="464" type="curve" smooth="yes"/>
			<point x="308" y="464"/>
			<point x="330" y="460"/>
			<point x="368" y="446" type="curve"/>
			<point x="378" y="468" type="line"/>
			<point x="342" y="482"/>
			<point x="314" y="490"/>
			<point x="274" y="490" type="curve" smooth="yes"/>
			<point x="168" y="490"/>
			<point x="98" y="438"/>
			<point x="98" y="356" type="curve" smooth="yes"/>
			<point x="98" y="310"/>
			<point x="132" y="276"/>
			<point x="172" y="262" type="curve"/>
			<point x="172" y="258" type="line"/>
			<point x="104" y="236"/>
			<point x="24" y="192"/>
			<point x="24" y="98" type="curve" smooth="yes"/>
			<point x="24" y="34"/>
			<point x="72" y="-12"/>
		</contour>
		<contour>
			<point name="aboveLC" x="270" y="502" type="move"/>
		</contour>
	</outline>
</glyph>
<glyph name="zeta" format="1">
	<unicode hex="03B6"/>
	<advance width="372"/>
	<outline>
		<contour>
			<point x="242" y="-186" type="line"/>
			<point x="272" y="-152"/>
			<point x="308" y="-110"/>
			<point x="308" y="-66" type="curve" smooth="yes"/>
			<point x="308" y="-22"/>
			<point x="270" y="-2"/>
			<point x="198" y="18" type="curve" smooth="yes"/>
			<point x="126" y="38"/>
			<point x="72" y="74"/>
			<point x="72" y="170" type="curve" smooth="yes"/>
			<point x="72" y="366"/>
			<point x="275" y="570"/>
			<point x="453" y="695" type="curve"/>
			<point x="458" y="720" type="line"/>
			<point x="162" y="734" type="line"/>
			<point x="156" y="706" type="line"/>
			<point x="224" y="706"/>
			<point x="340" y="702"/>
			<point x="418" y="698" type="curve"/>
			<point x="418" y="694" type="line"/>
			<point x="253" y="580"/>
			<point x="44" y="378"/>
			<point x="44" y="164" type="curve" smooth="yes"/>
			<point x="44" y="66"/>
			<point x="96" y="20"/>
			<point x="178" y="-4" type="curve" smooth="yes"/>
			<point x="260" y="-28"/>
			<point x="280" y="-46"/>
			<point x="280" y="-70" type="curve" smooth="yes"/>
			<point x="280" y="-104"/>
			<point x="253" y="-137"/>
			<point x="220" y="-172" type="curve"/>
		</contour>
	</outline>
</glyph>
<glyph name="eta" format="2">
	<unicode hex="03B7"/>
	<advance width="504"/>
	<outline>
		<contour>
			<point x="306" y="-180" type="curve"/>
			<point x="334" y="-180" type="line"/>
			<point x="433" y="308" type="line" smooth="yes"/>
			<point x="439" y="338"/>
			<point x="442" y="360"/>
			<point x="442" y="382" type="curve" smooth="yes"/>
			<point x="442" y="448"/>
			<point x="408" y="490"/>
			<point x="346" y="490" type="curve" smooth="yes"/>
			<point x="278" y="490"/>
			<point x="228" y="456"/>
			<point x="146" y="364" type="curve"/>
			<point x="144" y="364" type="line"/>
			<point x="150" y="394"/>
			<point x="160" y="438"/>
			<point x="162" y="478" type="curve"/>
			<point x="134" y="478" type="line"/>
			<point x="132" y="434"/>
			<point x="124" y="396"/>
			<point x="116" y="358" type="curve" smooth="yes"/>
			<point x="44" y="0" type="line"/>
			<point x="72" y="0" type="line"/>
			<point x="138" y="326" type="line"/>
			<point x="234" y="436"/>
			<point x="284" y="464"/>
			<point x="344" y="464" type="curve" smooth="yes"/>
			<point x="388" y="464"/>
			<point x="416" y="430"/>
			<point x="416" y="380" type="curve" smooth="yes"/>
			<point x="416" y="326"/>
			<point x="364" y="92"/>
		</contour>
	</outline>
	<anchor name="aboveLC" x="310" y="502"/>
	<anchor name="belowLC" x="60" y="-22"/>
</glyph>
<glyph name="theta" format="1">
	<unicode hex="03B8"/>
	<advance width="479"/>
	<outline>
		<contour>
			<point x="164" y="-12" type="curve" smooth="yes"/>
			<point x="294" y="-12"/>
			<point x="379" y="144"/>
			<point x="428" y="352" type="curve" smooth="yes"/>
			<point x="442" y="414"/>
			<point x="450" y="482"/>
			<point x="450" y="552" type="curve" smooth="yes"/>
			<point x="450" y="678"/>
			<point x="406" y="734"/>
			<point x="338" y="734" type="curve" smooth="yes"/>
			<point x="230" y="734"/>
			<point x="136" y="600"/>
			<point x="136" y="468" type="curve" smooth="yes"/>
			<point x="136" y="386"/>
			<point x="206" y="344"/>
			<point x="398" y="344" type="curve"/>
			<point x="402" y="356" type="line"/>
			<point x="406" y="368" type="line"/>
			<point x="218" y="368"/>
			<point x="164" y="398"/>
			<point x="164" y="474" type="curve" smooth="yes"/>
			<point x="164" y="590"/>
			<point x="250" y="708"/>
			<point x="336" y="708" type="curve" smooth="yes"/>
			<point x="390" y="708"/>
			<point x="422" y="660"/>
			<point x="422" y="546" type="curve" smooth="yes"/>
			<point x="422" y="480"/>
			<point x="414" y="416"/>
			<point x="400" y="358" type="curve" smooth="yes"/>
			<point x="352" y="160"/>
			<point x="274" y="14"/>
			<point x="166" y="14" type="curve" smooth="yes"/>
			<point x="108" y="14"/>
			<point x="72" y="44"/>
			<point x="72" y="118" type="curve" smooth="yes"/>
			<point x="72" y="154"/>
			<point x="106" y="244"/>
			<point x="106" y="278" type="curve"/>
			<point x="78" y="278" type="line"/>
			<point x="78" y="235"/>
			<point x="46" y="157"/>
			<point x="46" y="112" type="curve" smooth="yes"/>
			<point x="46" y="32"/>
			<point x="90" y="-12"/>
		</contour>
	</outline>
</glyph>
<glyph name="kappa" format="1">
	<unicode hex="03BA"/>
	<advance width="426"/>
	<outline>
		<contour>
			<point x="44" y="0" type="line"/>
			<point x="70" y="0" type="line"/>
			<point x="76" y="32" type="line" smooth="yes"/>
			<point x="86" y="86"/>
			<point x="103" y="131"/>
			<point x="134" y="172" type="curve" smooth="yes"/>
			<point x="248" y="322"/>
			<point x="370" y="416"/>
			<point x="458" y="452" type="curve"/>
			<point x="450" y="480" type="line"/>
			<point x="358" y="436"/>
			<point x="216" y="330"/>
			<point x="110" y="176" type="curve"/>
			<point x="106" y="176" type="line"/>
			<point x="146" y="374" type="line" smooth="yes"/>
			<point x="154" y="414"/>
			<point x="160" y="456"/>
			<point x="160" y="478" type="curve"/>
			<point x="132" y="478" type="line"/>
			<point x="132" y="442"/>
			<point x="124" y="398"/>
			<point x="116" y="360" type="curve" smooth="yes"/>
		</contour>
		<contour>
			<point x="354" y="-6" type="curve"/>
			<point x="382" y="0" type="line"/>
			<point x="338" y="56"/>
			<point x="272" y="198"/>
			<point x="258" y="316" type="curve"/>
			<point x="236" y="299" type="line"/>
			<point x="252" y="188"/>
			<point x="314" y="50"/>
		</contour>
	</outline>
</glyph>
<glyph name="lambda" format="1">
	<unicode hex="03BB"/>
	<advance width="392"/>
	<outline>
		<contour>
			<point x="330" y="-6" type="curve"/>
			<point x="360" y="0" type="line"/>
			<point x="326" y="78"/>
			<point x="301" y="354"/>
			<point x="278" y="544" type="curve" smooth="yes"/>
			<point x="266" y="642"/>
			<point x="258" y="734"/>
			<point x="172" y="734" type="curve" smooth="yes"/>
			<point x="146" y="734"/>
			<point x="130" y="730"/>
			<point x="114" y="724" type="curve"/>
			<point x="124" y="698" type="line"/>
			<point x="138" y="704"/>
			<point x="148" y="706"/>
			<point x="168" y="706" type="curve" smooth="yes"/>
			<point x="230" y="706"/>
			<point x="240" y="640"/>
			<point x="254" y="532" type="curve" smooth="yes"/>
			<point x="277" y="349"/>
			<point x="300" y="72"/>
		</contour>
		<contour>
			<point x="-39" y="0" type="curve"/>
			<point x="-11" y="-6" type="line"/>
			<point x="80" y="156"/>
			<point x="168" y="306"/>
			<point x="266" y="450" type="curve"/>
			<point x="262" y="488" type="line"/>
			<point x="152" y="326"/>
			<point x="60" y="170"/>
		</contour>
	</outline>
</glyph>
<glyph name="nu" format="2">
	<unicode hex="03BD"/>
	<advance width="414"/>
	<outline>
		<contour>
			<point x="125" y="0" type="curve"/>
			<point x="160" y="-4" type="line"/>
			<point x="274" y="152"/>
			<point x="370" y="313"/>
			<point x="430" y="478" type="curve"/>
			<point x="402" y="484" type="line"/>
			<point x="352" y="335"/>
			<point x="250" y="160"/>
			<point x="154" y="28" type="curve"/>
			<point x="150" y="28" type="line"/>
			<point x="148" y="164"/>
			<point x="126" y="356"/>
			<point x="74" y="490" type="curve"/>
			<point x="48" y="480" type="line"/>
			<point x="100" y="348"/>
			<point x="122" y="172"/>
		</contour>
	</outline>
	<anchor name="aboveLC" x="240" y="502"/>
	<anchor name="belowLC" x="140" y="-22"/>
</glyph>
<glyph name="xi" format="1">
	<unicode hex="03BE"/>
	<advance width="383"/>
	<outline>
		<contour>
			<point x="236" y="-186" type="line"/>
			<point x="266" y="-152"/>
			<point x="302" y="-110"/>
			<point x="302" y="-66" type="curve" smooth="yes"/>
			<point x="302" y="-22"/>
			<point x="260" y="-2"/>
			<point x="186" y="18" type="curve" smooth="yes"/>
			<point x="112" y="38"/>
			<point x="56" y="64"/>
			<point x="56" y="142" type="curve" smooth="yes"/>
			<point x="56" y="256"/>
			<point x="184" y="362"/>
			<point x="346" y="374" type="curve"/>
			<point x="342" y="402" type="line"/>
			<point x="320" y="398"/>
			<point x="296" y="396"/>
			<point x="272" y="396" type="curve" smooth="yes"/>
			<point x="218" y="396"/>
			<point x="160" y="438"/>
			<point x="160" y="500" type="curve" smooth="yes"/>
			<point x="160" y="600"/>
			<point x="259" y="678"/>
			<point x="438" y="694" type="curve"/>
			<point x="444" y="694" type="line"/>
			<point x="448" y="720" type="line"/>
			<point x="134" y="734" type="line"/>
			<point x="128" y="706" type="line"/>
			<point x="188" y="706"/>
			<point x="274" y="706"/>
			<point x="344" y="702" type="curve"/>
			<point x="344" y="698" type="line"/>
			<point x="234" y="680"/>
			<point x="132" y="607"/>
			<point x="132" y="496" type="curve" smooth="yes"/>
			<point x="132" y="436"/>
			<point x="178" y="394"/>
			<point x="232" y="378" type="curve"/>
			<point x="232" y="374" type="line"/>
			<point x="146" y="344"/>
			<point x="28" y="266"/>
			<point x="28" y="136" type="curve" smooth="yes"/>
			<point x="28" y="56"/>
			<point x="86" y="16"/>
			<point x="166" y="-4" type="curve" smooth="yes"/>
			<point x="252" y="-26"/>
			<point x="274" y="-46"/>
			<point x="274" y="-70" type="curve" smooth="yes"/>
			<point x="274" y="-104"/>
			<point x="247" y="-137"/>
			<point x="214" y="-172" type="curve"/>
		</contour>
	</outline>
</glyph>
<glyph name="omicron" format="1">
	<unicode hex="03BF"/>
	<advance width="500"/>
	<outline>
		<component base="o" xOffset="4"/>
		<contour>
			<point name="aboveLC" x="320" y="502" type="move"/>
		</contour>
	</outline>
</glyph>
<glyph name="pi" format="1">
	<unicode hex="03C0"/>
	<advance width="522"/>
	<outline>
		<contour>
			<point x="391" y="-12" type="curve" smooth="yes"/>
			<point x="407" y="-12"/>
			<point x="416" y="-8"/>
			<point x="428" y="-4" type="curve"/>
			<point x="427" y="20" type="line"/>
			<point x="411" y="16"/>
			<point x="403" y="14"/>
			<point x="397" y="14" type="curve" smooth="yes"/>
			<point x="373" y="14"/>
			<point x="361" y="26"/>
			<point x="361" y="49" type="curve" smooth="yes"/>
			<point x="361" y="65"/>
			<point x="409" y="293"/>
			<point x="448" y="452" type="curve"/>
			<point x="534" y="452" type="line"/>
			<point x="540" y="478" type="line"/>
			<point x="144" y="478" type="line"/>
			<point x="80" y="474" type="line"/>
			<point x="76" y="452" type="line"/>
			<point x="178" y="452" type="line"/>
			<point x="150" y="304"/>
			<point x="108" y="140"/>
			<point x="60" y="0" type="curve"/>
			<point x="88" y="-4" type="line"/>
			<point x="132" y="136"/>
			<point x="172" y="296"/>
			<point x="204" y="452" type="curve"/>
			<point x="421" y="452" type="line"/>
			<point x="388" y="299"/>
			<point x="335" y="76"/>
			<point x="335" y="44" type="curve" smooth="yes"/>
			<point x="335" y="5"/>
			<point x="354" y="-12"/>
		</contour>
	</outline>
</glyph>
<glyph name="sigma.end" format="1">
	<unicode hex="03C2"/>
	<advance width="400"/>
	<outline>
		<contour>
			<point x="232" y="-186" type="line"/>
			<point x="262" y="-152"/>
			<point x="298" y="-110"/>
			<point x="298" y="-66" type="curve" smooth="yes"/>
			<point x="298" y="-18"/>
			<point x="258" y="2"/>
			<point x="192" y="24" type="curve" smooth="yes"/>
			<point x="120" y="48"/>
			<point x="72" y="96"/>
			<point x="72" y="188" type="curve" smooth="yes"/>
			<point x="72" y="347"/>
			<point x="195" y="464"/>
			<point x="322" y="464" type="curve" smooth="yes"/>
			<point x="352" y="464"/>
			<point x="374" y="460"/>
			<point x="408" y="446" type="curve"/>
			<point x="418" y="468" type="line"/>
			<point x="384" y="482"/>
			<point x="358" y="490"/>
			<point x="324" y="490" type="curve" smooth="yes"/>
			<point x="177" y="490"/>
			<point x="44" y="361"/>
			<point x="44" y="182" type="curve" smooth="yes"/>
			<point x="44" y="88"/>
			<point x="96" y="28"/>
			<point x="172" y="2" type="curve" smooth="yes"/>
			<point x="248" y="-24"/>
			<point x="270" y="-44"/>
			<point x="270" y="-70" type="curve" smooth="yes"/>
			<point x="270" y="-104"/>
			<point x="243" y="-137"/>
			<point x="210" y="-172" type="curve"/>
		</contour>
	</outline>
</glyph>
<glyph name="tau" format="2">
	<unicode hex="03C4"/>
	<advance width="412"/>
	<outline>
		<contour>
			<point x="188" y="-8" type="curve" smooth="yes"/>
			<point x="202" y="-8"/>
			<point x="210" y="-6"/>
			<point x="229" y="-2" type="curve"/>
			<point x="225" y="22" type="line"/>
			<point x="214" y="20"/>
			<point x="204" y="18"/>
			<point x="194" y="18" type="curve" smooth="yes"/>
			<point x="182" y="18"/>
			<point x="174" y="22"/>
			<point x="174" y="32" type="curve" smooth="yes"/>
			<point x="174" y="52"/>
			<point x="208" y="226"/>
			<point x="256" y="452" type="curve"/>
			<point x="426" y="452" type="line"/>
			<point x="432" y="478" type="line"/>
			<point x="128" y="478" type="line"/>
			<point x="64" y="474" type="line"/>
			<point x="60" y="452" type="line"/>
			<point x="228" y="452" type="line"/>
			<point x="150" y="54" type="line" smooth="yes"/>
			<point x="148" y="44"/>
			<point x="146" y="34"/>
			<point x="146" y="28" type="curve" smooth="yes"/>
			<point x="146" y="4"/>
			<point x="162" y="-8"/>
		</contour>
	</outline>
	<anchor name="aboveLC" x="250" y="502"/>
	<anchor name="belowLC" x="180" y="-22"/>
</glyph>
<glyph name="upsilon" format="1">
	<unicode hex="03C5"/>
	<advance width="478"/>
	<outline>
		<contour>
			<point x="190" y="-12" type="curve" smooth="yes"/>
			<point x="308" y="-12"/>
			<point x="432" y="99"/>
			<point x="432" y="371" type="curve" smooth="yes"/>
			<point x="432" y="405"/>
			<point x="427" y="455"/>
			<point x="420" y="488" type="curve"/>
			<point x="392" y="480" type="line"/>
			<point x="399" y="449"/>
			<point x="404" y="400"/>
			<point x="404" y="368" type="curve" smooth="yes"/>
			<point x="404" y="116"/>
			<point x="291" y="14"/>
			<point x="192" y="14" type="curve" smooth="yes"/>
			<point x="137" y="14"/>
			<point x="86" y="44"/>
			<point x="86" y="134" type="curve" smooth="yes"/>
			<point x="86" y="173"/>
			<point x="150" y="416"/>
			<point x="150" y="478" type="curve"/>
			<point x="122" y="478" type="line"/>
			<point x="122" y="406"/>
			<point x="60" y="194"/>
			<point x="60" y="128" type="curve" smooth="yes"/>
			<point x="60" y="31"/>
			<point x="119" y="-12"/>
		</contour>
		<contour>
			<point name="aboveLC" x="280" y="502" type="move"/>
		</contour>
	</outline>
</glyph>
<glyph name="chi" format="1">
	<unicode hex="03C7"/>
	<advance width="404"/>
	<outline>
		<contour>
			<point x="-59" y="-192" type="line"/>
			<point x="183" y="136" type="line"/>
			<point x="187" y="136" type="line"/>
			<point x="222" y="12"/>
			<point x="272" y="-120"/>
			<point x="308" y="-192" type="curve"/>
			<point x="336" y="-181" type="line"/>
			<point x="296" y="-110"/>
			<point x="241" y="34"/>
			<point x="204" y="162" type="curve"/>
			<point x="435" y="478" type="line"/>
			<point x="404" y="478" type="line"/>
			<point x="197" y="190" type="line"/>
			<point x="193" y="190" type="line"/>
			<point x="164" y="296"/>
			<point x="116" y="430"/>
			<point x="84" y="490" type="curve"/>
			<point x="56" y="478" type="line"/>
			<point x="94" y="414"/>
			<point x="142" y="286"/>
			<point x="175" y="162" type="curve"/>
			<point x="-84" y="-186" type="line"/>
		</contour>
	</outline>
</glyph>
<glyph name="psi" format="1">
	<unicode hex="03C8"/>
	<advance width="578"/>
	<outline>
		<contour>
			<point x="186" y="-180" type="line"/>
			<point x="214" y="-180" type="line"/>
			<point x="374" y="618" type="line"/>
			<point x="346" y="618" type="line"/>
		</contour>
		<contour>
			<point x="224" y="-12" type="curve"/>
			<point x="226" y="14" type="line"/>
			<point x="136" y="14"/>
			<point x="86" y="70"/>
			<point x="86" y="156" type="curve" smooth="yes"/>
			<point x="86" y="218"/>
			<point x="144" y="414"/>
			<point x="144" y="478" type="curve"/>
			<point x="116" y="478" type="line"/>
			<point x="116" y="404"/>
			<point x="60" y="239"/>
			<point x="60" y="150" type="curve" smooth="yes"/>
			<point x="60" y="58"/>
			<point x="118" y="-12"/>
		</contour>
		<contour>
			<point x="234" y="-12" type="line"/>
			<point x="393" y="-12"/>
			<point x="532" y="96"/>
			<point x="532" y="362" type="curve" smooth="yes"/>
			<point x="532" y="399"/>
			<point x="523" y="452"/>
			<point x="516" y="488" type="curve"/>
			<point x="488" y="480" type="line"/>
			<point x="494" y="446"/>
			<point x="504" y="393"/>
			<point x="504" y="358" type="curve" smooth="yes"/>
			<point x="504" y="113"/>
			<point x="377" y="14"/>
			<point x="236" y="14" type="curve"/>
		</contour>
	</outline>
</glyph>
<glyph name="omega" format="1">
	<unicode hex="03C9"/>
	<unicode hex="A7B7"/>
	<advance width="630"/>
	<outline>
		<contour>
			<point x="152" y="-12" type="curve" smooth="yes"/>
			<point x="216" y="-12"/>
			<point x="270" y="38"/>
			<point x="296" y="110" type="curve"/>
			<point x="300" y="110" type="line"/>
			<point x="302" y="34"/>
			<point x="336" y="-12"/>
			<point x="402" y="-12" type="curve" smooth="yes"/>
			<point x="498" y="-12"/>
			<point x="580" y="108"/>
			<point x="580" y="310" type="curve" smooth="yes"/>
			<point x="580" y="378"/>
			<point x="572" y="439"/>
			<point x="556" y="490" type="curve"/>
			<point x="532" y="480" type="line"/>
			<point x="548" y="432"/>
			<point x="552" y="373"/>
			<point x="552" y="308" type="curve" smooth="yes"/>
			<point x="552" y="130"/>
			<point x="484" y="14"/>
			<point x="404" y="14" type="curve" smooth="yes"/>
			<point x="352" y="14"/>
			<point x="322" y="48"/>
			<point x="322" y="126" type="curve" smooth="yes"/>
			<point x="322" y="188"/>
			<point x="342" y="264"/>
			<point x="358" y="320" type="curve"/>
			<point x="322" y="320" type="line"/>
			<point x="298" y="116"/>
			<point x="238" y="14"/>
			<point x="154" y="14" type="curve" smooth="yes"/>
			<point x="108" y="14"/>
			<point x="72" y="56"/>
			<point x="72" y="120" type="curve" smooth="yes"/>
			<point x="72" y="224"/>
			<point x="130" y="372"/>
			<point x="226" y="476" type="curve"/>
			<point x="206" y="490" type="line"/>
			<point x="112" y="382"/>
			<point x="44" y="238"/>
			<point x="44" y="114" type="curve" smooth="yes"/>
			<point x="44" y="33"/>
			<point x="96" y="-12"/>
		</contour>
		<contour>
			<point name="aboveLC" x="380" y="502" type="move"/>
		</contour>
		<contour>
			<point name="belowLC" x="280" y="-22" type="move"/>
		</contour>
	</outline>
</glyph>
<glyph name="Kai" format="2">
	<unicode hex="03CF"/>
	<advance width="532"/>
	<outline>
		<contour>
			<point x="40" y="0" type="line"/>
			<point x="70" y="0" type="line"/>
			<point x="120" y="244" type="line"/>
			<point x="256" y="372" type="line"/>
			<point x="564" y="660" type="line"/>
			<point x="526" y="660" type="line"/>
			<point x="130" y="290" type="line"/>
			<point x="128" y="290" type="line"/>
			<point x="202" y="660" type="line"/>
			<point x="172" y="660" type="line"/>
		</contour>
		<contour>
			<point x="156" y="-150" type="curve" smooth="yes"/>
			<point x="346" y="-150"/>
			<point x="478" y="4"/>
			<point x="478" y="168" type="curve" smooth="yes"/>
			<point x="478" y="318"/>
			<point x="386" y="382"/>
			<point x="238" y="382" type="curve"/>
			<point x="236" y="358" type="line"/>
			<point x="372" y="358"/>
			<point x="448" y="300"/>
			<point x="448" y="162" type="curve" smooth="yes"/>
			<point x="448" y="20"/>
			<point x="324" y="-122"/>
			<point x="158" y="-122" type="curve" smooth="yes"/>
			<point x="102" y="-122"/>
			<point x="50" y="-112"/>
			<point x="18" y="-84" type="curve"/>
			<point x="2" y="-104" type="line"/>
			<point x="32" y="-132"/>
			<point x="80" y="-150"/>
		</contour>
	</outline>
</glyph>
<glyph name="beta.a" format="1">
	<unicode hex="03D0"/>
	<advance width="517"/>
	<outline>
		<contour>
			<point x="238" y="-12" type="curve" smooth="yes"/>
			<point x="360" y="-12"/>
			<point x="454" y="90"/>
			<point x="454" y="226" type="curve" smooth="yes"/>
			<point x="454" y="309"/>
			<point x="410" y="370"/>
			<point x="312" y="380" type="curve"/>
			<point x="312" y="384" type="line"/>
			<point x="408" y="430"/>
			<point x="468" y="501"/>
			<point x="468" y="598" type="curve" smooth="yes"/>
			<point x="468" y="688"/>
			<point x="408" y="734"/>
			<point x="340" y="734" type="curve" smooth="yes"/>
			<point x="252" y="734"/>
			<point x="178" y="652"/>
			<point x="144" y="494" type="curve" smooth="yes"/>
			<point x="86" y="228" type="line" smooth="yes"/>
			<point x="80" y="201"/>
			<point x="80" y="177"/>
			<point x="80" y="156" type="curve" smooth="yes"/>
			<point x="80" y="30"/>
			<point x="170" y="-12"/>
		</contour>
		<contour>
			<point x="242" y="14" type="curve" smooth="yes"/>
			<point x="192" y="14"/>
			<point x="108" y="40"/>
			<point x="108" y="160" type="curve" smooth="yes"/>
			<point x="108" y="222"/>
			<point x="141" y="354"/>
			<point x="168" y="480" type="curve" smooth="yes"/>
			<point x="200" y="630"/>
			<point x="268" y="707"/>
			<point x="338" y="707" type="curve" smooth="yes"/>
			<point x="396" y="707"/>
			<point x="440" y="670"/>
			<point x="440" y="592" type="curve" smooth="yes"/>
			<point x="440" y="484"/>
			<point x="342" y="380"/>
			<point x="123" y="367" type="curve"/>
			<point x="126" y="340" type="line"/>
			<point x="218" y="356"/>
			<point x="265" y="360"/>
			<point x="280" y="360" type="curve" smooth="yes"/>
			<point x="384" y="360"/>
			<point x="426" y="296"/>
			<point x="426" y="220" type="curve" smooth="yes"/>
			<point x="426" y="100"/>
			<point x="334" y="14"/>
		</contour>
	</outline>
</glyph>
<glyph name="phi" format="1">
	<unicode hex="03D5"/>
	<unicode hex="03C6"/>
	<advance width="594"/>
	<outline>
		<contour>
			<point x="178" y="-180" type="line"/>
			<point x="208" y="-180" type="line"/>
			<point x="238" y="-26"/>
			<point x="280" y="120"/>
			<point x="318" y="284" type="curve" smooth="yes"/>
			<point x="346" y="406"/>
			<point x="390" y="444"/>
			<point x="446" y="444" type="curve" smooth="yes"/>
			<point x="490" y="444"/>
			<point x="520" y="404"/>
			<point x="520" y="344" type="curve" smooth="yes"/>
			<point x="520" y="150"/>
			<point x="400" y="16"/>
			<point x="240" y="14" type="curve"/>
			<point x="234" y="-10" type="line"/>
			<point x="416" y="-8"/>
			<point x="548" y="132"/>
			<point x="548" y="356" type="curve" smooth="yes"/>
			<point x="548" y="422"/>
			<point x="506" y="470"/>
			<point x="448" y="470" type="curve" smooth="yes"/>
			<point x="374" y="470"/>
			<point x="324" y="422"/>
			<point x="294" y="298" type="curve" smooth="yes"/>
		</contour>
		<contour>
			<point x="232" y="-10" type="curve"/>
			<point x="238" y="14" type="line"/>
			<point x="156" y="14"/>
			<point x="74" y="66"/>
			<point x="74" y="182" type="curve" smooth="yes"/>
			<point x="74" y="330"/>
			<point x="178" y="434"/>
			<point x="288" y="468" type="curve"/>
			<point x="282" y="490" type="line"/>
			<point x="166" y="458"/>
			<point x="46" y="348"/>
			<point x="46" y="176" type="curve" smooth="yes"/>
			<point x="46" y="52"/>
			<point x="142" y="-10"/>
		</contour>
	</outline>
</glyph>
<glyph name="kai" format="1">
	<unicode hex="03D7"/>
	<advance width="426"/>
	<outline>
		<contour>
			<point x="44" y="0" type="line"/>
			<point x="70" y="0" type="line"/>
			<point x="76" y="32" type="line" smooth="yes"/>
			<point x="86" y="86"/>
			<point x="103" y="131"/>
			<point x="134" y="172" type="curve" smooth="yes"/>
			<point x="248" y="322"/>
			<point x="370" y="416"/>
			<point x="458" y="452" type="curve"/>
			<point x="450" y="480" type="line"/>
			<point x="358" y="436"/>
			<point x="216" y="330"/>
			<point x="110" y="176" type="curve"/>
			<point x="106" y="176" type="line"/>
			<point x="146" y="374" type="line" smooth="yes"/>
			<point x="154" y="414"/>
			<point x="160" y="456"/>
			<point x="160" y="478" type="curve"/>
			<point x="132" y="478" type="line"/>
			<point x="132" y="442"/>
			<point x="124" y="398"/>
			<point x="116" y="360" type="curve" smooth="yes"/>
		</contour>
		<contour>
			<point x="204" y="-188" type="line"/>
			<point x="291" y="-105"/>
			<point x="374" y="0"/>
			<point x="374" y="124" type="curve" smooth="yes"/>
			<point x="374" y="224"/>
			<point x="318" y="280"/>
			<point x="204" y="280" type="curve"/>
			<point x="202" y="256" type="line"/>
			<point x="302" y="256"/>
			<point x="346" y="210"/>
			<point x="346" y="118" type="curve" smooth="yes"/>
			<point x="346" y="8"/>
			<point x="271" y="-87"/>
			<point x="180" y="-176" type="curve"/>
		</contour>
	</outline>
</glyph>
<glyph name="koppa" format="1">
	<unicode hex="03D9"/>
	<unicode hex="03DF"/>
	<advance width="500"/>
	<outline>
		<contour>
			<point x="204" y="-12" type="curve" smooth="yes"/>
			<point x="334" y="-12"/>
			<point x="454" y="124"/>
			<point x="454" y="302" type="curve" smooth="yes"/>
			<point x="454" y="422"/>
			<point x="392" y="490"/>
			<point x="296" y="490" type="curve" smooth="yes"/>
			<point x="166" y="490"/>
			<point x="46" y="354"/>
			<point x="46" y="176" type="curve" smooth="yes"/>
			<point x="46" y="56"/>
			<point x="108" y="-12"/>
		</contour>
		<contour>
			<point x="206" y="14" type="curve" smooth="yes"/>
			<point x="122" y="14"/>
			<point x="74" y="72"/>
			<point x="74" y="182" type="curve" smooth="yes"/>
			<point x="74" y="334"/>
			<point x="186" y="464"/>
			<point x="294" y="464" type="curve" smooth="yes"/>
			<point x="378" y="464"/>
			<point x="426" y="406"/>
			<point x="426" y="296" type="curve" smooth="yes"/>
			<point x="426" y="144"/>
			<point x="314" y="14"/>
		</contour>
		<contour>
			<point x="144" y="-180" type="line"/>
			<point x="172" y="-180" type="line"/>
			<point x="186" y="-110"/>
			<point x="198" y="-62"/>
			<point x="212" y="-2" type="curve"/>
			<point x="190" y="8" type="line"/>
		</contour>
	</outline>
</glyph>
<glyph name="stigma" format="1">
	<unicode hex="03DB"/>
	<advance width="426"/>
	<outline>
		<contour>
			<point x="232" y="-186" type="line"/>
			<point x="262" y="-152"/>
			<point x="298" y="-110"/>
			<point x="298" y="-66" type="curve" smooth="yes"/>
			<point x="298" y="-22"/>
			<point x="261" y="-2"/>
			<point x="192" y="18" type="curve"/>
			<point x="124" y="39"/>
			<point x="72" y="80"/>
			<point x="72" y="182" type="curve" smooth="yes"/>
			<point x="72" y="329"/>
			<point x="184" y="454"/>
			<point x="316" y="454" type="curve"/>
			<point x="362" y="454"/>
			<point x="392" y="454"/>
			<point x="438" y="450" type="curve"/>
			<point x="444" y="478" type="line"/>
			<point x="318" y="478" type="line" smooth="yes"/>
			<point x="174" y="478"/>
			<point x="44" y="358"/>
			<point x="44" y="176" type="curve" smooth="yes"/>
			<point x="44" y="72"/>
			<point x="98" y="19"/>
			<point x="172" y="-4" type="curve" smooth="yes"/>
			<point x="250" y="-28"/>
			<point x="270" y="-47"/>
			<point x="270" y="-70" type="curve" smooth="yes"/>
			<point x="270" y="-104"/>
			<point x="244" y="-138"/>
			<point x="212" y="-172" type="curve"/>
		</contour>
	</outline>
</glyph>
<glyph name="Dje" format="1">
	<unicode hex="0402"/>
	<advance width="658"/>
	<outline>
		<contour>
			<point x="376" y="-12" type="curve" smooth="yes"/>
			<point x="472" y="-12"/>
			<point x="578" y="70"/>
			<point x="578" y="234" type="curve" smooth="yes"/>
			<point x="578" y="338"/>
			<point x="494" y="396"/>
			<point x="376" y="396" type="curve" smooth="yes"/>
			<point x="338" y="396"/>
			<point x="292" y="388"/>
			<point x="266" y="382" type="curve"/>
			<point x="316" y="632" type="line"/>
			<point x="552" y="632" type="line"/>
			<point x="558" y="660" type="line"/>
			<point x="106" y="660" type="line"/>
			<point x="100" y="632" type="line"/>
			<point x="286" y="632" type="line"/>
			<point x="160" y="0" type="line"/>
			<point x="190" y="0" type="line"/>
			<point x="260" y="354" type="line"/>
			<point x="288" y="362"/>
			<point x="333" y="368"/>
			<point x="374" y="368" type="curve" smooth="yes"/>
			<point x="474" y="368"/>
			<point x="548" y="322"/>
			<point x="548" y="228" type="curve" smooth="yes"/>
			<point x="548" y="86"/>
			<point x="452" y="18"/>
			<point x="380" y="18" type="curve" smooth="yes"/>
			<point x="360" y="18"/>
			<point x="344" y="22"/>
			<point x="332" y="26" type="curve"/>
			<point x="322" y="-2" type="line"/>
			<point x="337" y="-8"/>
			<point x="358" y="-12"/>
		</contour>
	</outline>
</glyph>
<glyph name="Iukran" format="1">
	<unicode hex="0406"/>
	<advance width="218"/>
	<outline>
		<component base="I"/>
		<contour>
			<point name="aboveUC" x="190" y="680" type="move"/>
		</contour>
	</outline>
</glyph>
<glyph name="Lje" format="1">
	<unicode hex="0409"/>
	<advance width="850"/>
	<outline>
		<contour>
			<point x="-6" y="-12" type="curve" smooth="yes"/>
			<point x="48" y="-12"/>
			<point x="85" y="26"/>
			<point x="155" y="210" type="curve" smooth="yes"/>
			<point x="209" y="352"/>
			<point x="262" y="492"/>
			<point x="310" y="632" type="curve"/>
			<point x="512" y="632" type="line"/>
			<point x="386" y="0" type="line"/>
			<point x="532" y="0" type="line" smooth="yes"/>
			<point x="690" y="0"/>
			<point x="796" y="70"/>
			<point x="796" y="210" type="curve" smooth="yes"/>
			<point x="796" y="302"/>
			<point x="720" y="364"/>
			<point x="600" y="364" type="curve" smooth="yes"/>
			<point x="488" y="364" type="line"/>
			<point x="548" y="660" type="line"/>
			<point x="290" y="660" type="line"/>
			<point x="234" y="498"/>
			<point x="184" y="366"/>
			<point x="126" y="214" type="curve" smooth="yes"/>
			<point x="63" y="48"/>
			<point x="31" y="22"/>
			<point x="-4" y="22" type="curve" smooth="yes"/>
			<point x="-16" y="22"/>
			<point x="-24" y="24"/>
			<point x="-34" y="28" type="curve"/>
			<point x="-46" y="-4" type="line"/>
			<point x="-32" y="-10"/>
			<point x="-18" y="-12"/>
		</contour>
		<contour>
			<point x="420" y="26" type="line"/>
			<point x="484" y="338" type="line"/>
			<point x="588" y="338" type="line" smooth="yes"/>
			<point x="702" y="338"/>
			<point x="766" y="286"/>
			<point x="766" y="204" type="curve" smooth="yes"/>
			<point x="766" y="84"/>
			<point x="666" y="26"/>
			<point x="522" y="26" type="curve" smooth="yes"/>
		</contour>
	</outline>
</glyph>
<glyph name="Acyr" format="1">
	<unicode hex="0410"/>
	<advance width="480"/>
	<outline>
		<component base="A"/>
		<contour>
			<point name="aboveUC" x="330" y="680" type="move"/>
		</contour>
	</outline>
</glyph>
<glyph name="Be" format="2">
	<unicode hex="0411"/>
	<advance width="542"/>
	<outline>
		<contour>
			<point x="40" y="0" type="line"/>
			<point x="230" y="0" type="line" smooth="yes"/>
			<point x="388" y="0"/>
			<point x="494" y="70"/>
			<point x="494" y="210" type="curve" smooth="yes"/>
			<point x="494" y="302"/>
			<point x="418" y="364"/>
			<point x="298" y="364" type="curve" smooth="yes"/>
			<point x="142" y="364" type="line"/>
			<point x="196" y="634" type="line"/>
			<point x="528" y="634" type="line"/>
			<point x="534" y="660" type="line"/>
			<point x="172" y="660" type="line"/>
		</contour>
		<contour>
			<point x="74" y="26" type="line"/>
			<point x="138" y="338" type="line"/>
			<point x="286" y="338" type="line" smooth="yes"/>
			<point x="400" y="338"/>
			<point x="464" y="286"/>
			<point x="464" y="204" type="curve" smooth="yes"/>
			<point x="464" y="84"/>
			<point x="364" y="26"/>
			<point x="220" y="26" type="curve" smooth="yes"/>
		</contour>
	</outline>
</glyph>
<glyph name="Zhe" format="1">
	<unicode hex="0416"/>
	<advance width="770"/>
	<outline>
		<contour>
			<point x="-24" y="0" type="line"/>
			<point x="12" y="0" type="line"/>
			<point x="266" y="338" type="line"/>
			<point x="386" y="338" type="line"/>
			<point x="320" y="0" type="line"/>
			<point x="350" y="0" type="line"/>
			<point x="416" y="338" type="line"/>
			<point x="540" y="338" type="line"/>
			<point x="670" y="0" type="line"/>
			<point x="702" y="0" type="line"/>
			<point x="560" y="366" type="line"/>
			<point x="421" y="366" type="line"/>
			<point x="478" y="660" type="line"/>
			<point x="448" y="660" type="line"/>
			<point x="391" y="366" type="line"/>
			<point x="252" y="366" type="line"/>
		</contour>
		<contour>
			<point x="248" y="350" type="line"/>
			<point x="273" y="356" type="line"/>
			<point x="228" y="546" type="line" smooth="yes"/>
			<point x="206" y="638"/>
			<point x="180" y="672"/>
			<point x="128" y="672" type="curve" smooth="yes"/>
			<point x="120" y="672"/>
			<point x="110" y="670"/>
			<point x="104" y="668" type="curve"/>
			<point x="108" y="636" type="line"/>
			<point x="116" y="638"/>
			<point x="120" y="638"/>
			<point x="126" y="638" type="curve" smooth="yes"/>
			<point x="156" y="638"/>
			<point x="180" y="624"/>
			<point x="202" y="536" type="curve" smooth="yes"/>
		</contour>
		<contour>
			<point x="564" y="350" type="line"/>
			<point x="680" y="538" type="line" smooth="yes"/>
			<point x="734" y="626"/>
			<point x="760" y="638"/>
			<point x="786" y="638" type="curve" smooth="yes"/>
			<point x="794" y="638"/>
			<point x="798" y="638"/>
			<point x="804" y="636" type="curve"/>
			<point x="816" y="668" type="line"/>
			<point x="810" y="670"/>
			<point x="800" y="672"/>
			<point x="788" y="672" type="curve" smooth="yes"/>
			<point x="748" y="672"/>
			<point x="720" y="658"/>
			<point x="652" y="546" type="curve" smooth="yes"/>
			<point x="536" y="356" type="line"/>
		</contour>
		<contour>
			<point name="aboveUC" x="468" y="682" type="move"/>
		</contour>
	</outline>
</glyph>
<glyph name="Ze" format="1">
	<unicode hex="0417"/>
	<advance width="524"/>
	<outline>
		<contour>
			<point x="222" y="-12" type="curve" smooth="yes"/>
			<point x="356" y="-12"/>
			<point x="464" y="70"/>
			<point x="464" y="196" type="curve" smooth="yes"/>
			<point x="464" y="283"/>
			<point x="418" y="330"/>
			<point x="342" y="350" type="curve"/>
			<point x="342" y="354" type="line"/>
			<point x="426" y="372"/>
			<point x="496" y="437"/>
			<point x="496" y="526" type="curve" smooth="yes"/>
			<point x="496" y="618"/>
			<point x="427" y="672"/>
			<point x="336" y="672" type="curve" smooth="yes"/>
			<point x="255" y="672"/>
			<point x="188" y="636"/>
			<point x="144" y="594" type="curve"/>
			<point x="162" y="574" type="line"/>
			<point x="206" y="615"/>
			<point x="262" y="644"/>
			<point x="334" y="644" type="curve" smooth="yes"/>
			<point x="412" y="644"/>
			<point x="466" y="600"/>
			<point x="466" y="524" type="curve" smooth="yes"/>
			<point x="466" y="436"/>
			<point x="400" y="364"/>
			<point x="233" y="364" type="curve" smooth="yes"/>
			<point x="192" y="364" type="line"/>
			<point x="186" y="338" type="line"/>
			<point x="246" y="338" type="line" smooth="yes"/>
			<point x="366" y="338"/>
			<point x="434" y="289"/>
			<point x="434" y="190" type="curve" smooth="yes"/>
			<point x="434" y="84"/>
			<point x="336" y="16"/>
			<point x="224" y="16" type="curve" smooth="yes"/>
			<point x="156" y="16"/>
			<point x="86" y="37"/>
			<point x="30" y="106" type="curve"/>
			<point x="9" y="88" type="line"/>
			<point x="65" y="17"/>
			<point x="140" y="-12"/>
		</contour>
	</outline>
</glyph>
<glyph name="El" format="1">
	<unicode hex="041B"/>
	<advance width="608"/>
	<outline>
		<contour>
			<point x="-6" y="-12" type="curve" smooth="yes"/>
			<point x="51" y="-12"/>
			<point x="91" y="25"/>
			<point x="163" y="210" type="curve" smooth="yes"/>
			<point x="218" y="352"/>
			<point x="274" y="492"/>
			<point x="322" y="632" type="curve"/>
			<point x="542" y="632" type="line"/>
			<point x="416" y="0" type="line"/>
			<point x="446" y="0" type="line"/>
			<point x="578" y="660" type="line"/>
			<point x="302" y="660" type="line"/>
			<point x="246" y="498"/>
			<point x="194" y="366"/>
			<point x="134" y="214" type="curve" smooth="yes"/>
			<point x="68" y="47"/>
			<point x="33" y="22"/>
			<point x="-4" y="22" type="curve" smooth="yes"/>
			<point x="-16" y="22"/>
			<point x="-24" y="24"/>
			<point x="-34" y="28" type="curve"/>
			<point x="-46" y="-4" type="line"/>
			<point x="-32" y="-10"/>
			<point x="-18" y="-12"/>
		</contour>
	</outline>
</glyph>
<glyph name="Ucyr" format="2">
	<unicode hex="0423"/>
	<advance width="448"/>
	<outline>
		<contour>
			<point x="40" y="-12" type="curve" smooth="yes"/>
			<point x="116" y="-12"/>
			<point x="160" y="46"/>
			<point x="200" y="114" type="curve" smooth="yes"/>
			<point x="520" y="660" type="line"/>
			<point x="488" y="660" type="line"/>
			<point x="274" y="292" type="line"/>
			<point x="210" y="184" type="line"/>
			<point x="206" y="184" type="line"/>
			<point x="184" y="292" type="line"/>
			<point x="102" y="660" type="line"/>
			<point x="72" y="660" type="line"/>
			<point x="188" y="150" type="line"/>
			<point x="162" y="104" type="line" smooth="yes"/>
			<point x="135" y="56"/>
			<point x="96" y="18"/>
			<point x="42" y="18" type="curve" smooth="yes"/>
			<point x="30" y="18"/>
			<point x="16" y="22"/>
			<point x="6" y="28" type="curve"/>
			<point x="-10" y="0" type="line"/>
			<point x="6" y="-8"/>
			<point x="22" y="-12"/>
		</contour>
	</outline>
	<anchor name="aboveUC" x="290" y="682"/>
</glyph>
<glyph name="Ef" format="1">
	<unicode hex="0424"/>
	<advance width="678"/>
	<outline>
		<contour>
			<point x="298" y="106" type="curve" smooth="yes"/>
			<point x="311" y="106" type="line" smooth="yes"/>
			<point x="532" y="106"/>
			<point x="648" y="200"/>
			<point x="648" y="354" type="curve" smooth="yes"/>
			<point x="648" y="474"/>
			<point x="558" y="554"/>
			<point x="400" y="554" type="curve" smooth="yes"/>
			<point x="388" y="554" type="line" smooth="yes"/>
			<point x="166" y="554"/>
			<point x="50" y="460"/>
			<point x="50" y="306" type="curve" smooth="yes"/>
			<point x="50" y="186"/>
			<point x="140" y="106"/>
		</contour>
		<contour>
			<point x="304" y="132" type="line" smooth="yes"/>
			<point x="160" y="132"/>
			<point x="80" y="206"/>
			<point x="80" y="310" type="curve" smooth="yes"/>
			<point x="80" y="444"/>
			<point x="178" y="528"/>
			<point x="382" y="528" type="curve" smooth="yes"/>
			<point x="394" y="528" type="line" smooth="yes"/>
			<point x="538" y="528"/>
			<point x="618" y="454"/>
			<point x="618" y="350" type="curve" smooth="yes"/>
			<point x="618" y="216"/>
			<point x="520" y="132"/>
			<point x="316" y="132" type="curve" smooth="yes"/>
		</contour>
		<contour>
			<point x="265" y="-12" type="line"/>
			<point x="294" y="-12" type="line"/>
			<point x="431" y="672" type="line"/>
			<point x="402" y="672" type="line"/>
		</contour>
	</outline>
</glyph>
<glyph name="Tse" format="2">
	<unicode hex="0426"/>
	<advance width="604"/>
	<outline>
		<contour>
			<point x="36" y="0" type="line"/>
			<point x="450" y="0" type="line"/>
			<point x="582" y="660" type="line"/>
			<point x="552" y="660" type="line"/>
			<point x="424" y="26" type="line"/>
			<point x="70" y="26" type="line"/>
			<point x="198" y="660" type="line"/>
			<point x="168" y="660" type="line"/>
		</contour>
		<contour>
			<point x="450" y="-188" type="line"/>
			<point x="474" y="-188" type="line"/>
			<point x="520" y="10" type="line"/>
			<point x="522" y="26" type="line"/>
			<point x="449" y="26" type="line"/>
			<point x="444" y="0" type="line"/>
			<point x="488" y="0" type="line"/>
		</contour>
	</outline>
	<anchor name="aboveUC" x="376" y="682"/>
</glyph>
<glyph name="Che" format="1">
	<unicode hex="0427"/>
	<advance width="540"/>
	<outline>
		<contour>
			<point x="368" y="0" type="line"/>
			<point x="398" y="0" type="line"/>
			<point x="530" y="660" type="line"/>
			<point x="500" y="660" type="line"/>
			<point x="434" y="328" type="line"/>
			<point x="406" y="320"/>
			<point x="361" y="314"/>
			<point x="320" y="314" type="curve" smooth="yes"/>
			<point x="214" y="314"/>
			<point x="136" y="360"/>
			<point x="136" y="454" type="curve" smooth="yes"/>
			<point x="136" y="472"/>
			<point x="138" y="488"/>
			<point x="140" y="500" type="curve" smooth="yes"/>
			<point x="172" y="660" type="line"/>
			<point x="142" y="660" type="line"/>
			<point x="111" y="500" type="line"/>
			<point x="107" y="479"/>
			<point x="106" y="466"/>
			<point x="106" y="448" type="curve" smooth="yes"/>
			<point x="106" y="345"/>
			<point x="194" y="288"/>
			<point x="318" y="288" type="curve" smooth="yes"/>
			<point x="356" y="288"/>
			<point x="402" y="296"/>
			<point x="428" y="302" type="curve"/>
		</contour>
		<contour>
			<point name="aboveUC" x="340" y="682" type="move"/>
		</contour>
	</outline>
</glyph>
<glyph name="Sha" format="2">
	<unicode hex="0428"/>
	<advance width="762"/>
	<outline>
		<contour>
			<point x="40" y="0" type="line"/>
			<point x="610" y="0" type="line"/>
			<point x="742" y="660" type="line"/>
			<point x="712" y="660" type="line"/>
			<point x="586" y="26" type="line"/>
			<point x="346" y="26" type="line"/>
			<point x="472" y="660" type="line"/>
			<point x="442" y="660" type="line"/>
			<point x="316" y="26" type="line"/>
			<point x="76" y="26" type="line"/>
			<point x="202" y="660" type="line"/>
			<point x="172" y="660" type="line"/>
		</contour>
	</outline>
</glyph>
<glyph name="Hard" format="2">
	<unicode hex="042A"/>
	<advance width="664"/>
	<outline>
		<contour>
			<point x="180" y="0" type="line"/>
			<point x="346" y="0" type="line" smooth="yes"/>
			<point x="504" y="0"/>
			<point x="610" y="70"/>
			<point x="610" y="210" type="curve" smooth="yes"/>
			<point x="610" y="302"/>
			<point x="534" y="364"/>
			<point x="414" y="364" type="curve" smooth="yes"/>
			<point x="282" y="364" type="line"/>
			<point x="342" y="660" type="line"/>
			<point x="106" y="660" type="line"/>
			<point x="100" y="634" type="line"/>
			<point x="306" y="634" type="line"/>
		</contour>
		<contour>
			<point x="214" y="26" type="line"/>
			<point x="278" y="338" type="line"/>
			<point x="402" y="338" type="line" smooth="yes"/>
			<point x="515" y="338"/>
			<point x="580" y="285"/>
			<point x="580" y="204" type="curve" smooth="yes"/>
			<point x="580" y="84"/>
			<point x="480" y="26"/>
			<point x="336" y="26" type="curve" smooth="yes"/>
		</contour>
	</outline>
</glyph>
<glyph name="Soft" format="2">
	<unicode hex="042C"/>
	<advance width="534"/>
	<outline>
		<contour>
			<point x="40" y="0" type="line"/>
			<point x="216" y="0" type="line" smooth="yes"/>
			<point x="374" y="0"/>
			<point x="480" y="70"/>
			<point x="480" y="210" type="curve" smooth="yes"/>
			<point x="480" y="302"/>
			<point x="404" y="364"/>
			<point x="284" y="364" type="curve" smooth="yes"/>
			<point x="142" y="364" type="line"/>
			<point x="202" y="660" type="line"/>
			<point x="172" y="660" type="line"/>
		</contour>
		<contour>
			<point x="74" y="26" type="line"/>
			<point x="138" y="338" type="line"/>
			<point x="272" y="338" type="line" smooth="yes"/>
			<point x="386" y="338"/>
			<point x="450" y="286"/>
			<point x="450" y="204" type="curve" smooth="yes"/>
			<point x="450" y="84"/>
			<point x="350" y="26"/>
			<point x="206" y="26" type="curve" smooth="yes"/>
		</contour>
	</outline>
</glyph>
<glyph name="Yu" format="2">
	<unicode hex="042E"/>
	<advance width="834"/>
	<outline>
		<contour>
			<point x="40" y="0" type="line"/>
			<point x="70" y="0" type="line"/>
			<point x="138" y="338" type="line"/>
			<point x="324" y="338" type="line"/>
			<point x="328" y="364" type="line"/>
			<point x="142" y="364" type="line"/>
			<point x="202" y="660" type="line"/>
			<point x="172" y="660" type="line"/>
		</contour>
		<contour>
			<point x="502" y="-12" type="curve" smooth="yes"/>
			<point x="694" y="-12"/>
			<point x="806" y="228"/>
			<point x="806" y="408" type="curve" smooth="yes"/>
			<point x="806" y="562"/>
			<point x="736" y="672"/>
			<point x="600" y="672" type="curve" smooth="yes"/>
			<point x="408" y="672"/>
			<point x="296" y="432"/>
			<point x="296" y="252" type="curve" smooth="yes"/>
			<point x="296" y="98"/>
			<point x="366" y="-12"/>
		</contour>
		<contour>
			<point x="504" y="14" type="curve" smooth="yes"/>
			<point x="382" y="14"/>
			<point x="326" y="114"/>
			<point x="326" y="256" type="curve" smooth="yes"/>
			<point x="326" y="416"/>
			<point x="424" y="646"/>
			<point x="598" y="646" type="curve" smooth="yes"/>
			<point x="720" y="646"/>
			<point x="776" y="546"/>
			<point x="776" y="404" type="curve" smooth="yes"/>
			<point x="776" y="244"/>
			<point x="678" y="14"/>
		</contour>
	</outline>
	<anchor name="aboveUC" x="500" y="682"/>
</glyph>
<glyph name="be" format="1">
	<unicode hex="0431"/>
	<advance width="504"/>
	<outline>
		<contour>
			<point x="233" y="-12" type="curve" smooth="yes"/>
			<point x="361" y="-12"/>
			<point x="461" y="122"/>
			<point x="461" y="278" type="curve" smooth="yes"/>
			<point x="461" y="403"/>
			<point x="401" y="461"/>
			<point x="328" y="461" type="curve" smooth="yes"/>
			<point x="253" y="461"/>
			<point x="178" y="446"/>
			<point x="102" y="338" type="curve"/>
			<point x="97" y="298" type="line"/>
			<point x="194" y="427"/>
			<point x="257" y="436"/>
			<point x="322" y="436" type="curve" smooth="yes"/>
			<point x="381" y="436"/>
			<point x="432" y="385"/>
			<point x="432" y="274" type="curve" smooth="yes"/>
			<point x="432" y="136"/>
			<point x="338" y="14"/>
			<point x="234" y="14" type="curve" smooth="yes"/>
			<point x="168" y="14"/>
			<point x="92" y="58"/>
			<point x="92" y="200" type="curve" smooth="yes"/>
			<point x="92" y="324"/>
			<point x="126" y="472"/>
			<point x="226" y="572" type="curve" smooth="yes"/>
			<point x="270" y="616"/>
			<point x="344" y="652"/>
			<point x="440" y="659" type="curve" smooth="yes"/>
			<point x="482" y="662"/>
			<point x="516" y="664"/>
			<point x="543" y="676" type="curve"/>
			<point x="542" y="708" type="line"/>
			<point x="508" y="694"/>
			<point x="494" y="692"/>
			<point x="440" y="688" type="curve" smooth="yes"/>
			<point x="336" y="680"/>
			<point x="262" y="642"/>
			<point x="208" y="590" type="curve" smooth="yes"/>
			<point x="100" y="486"/>
			<point x="64" y="330"/>
			<point x="64" y="198" type="curve" smooth="yes"/>
			<point x="64" y="50"/>
			<point x="140" y="-12"/>
		</contour>
	</outline>
</glyph>
<glyph name="ve" format="2">
	<unicode hex="0432"/>
	<advance width="450"/>
	<outline>
		<contour>
			<point x="208" y="-12" type="curve" smooth="yes"/>
			<point x="326" y="-12"/>
			<point x="402" y="60"/>
			<point x="402" y="150" type="curve" smooth="yes"/>
			<point x="402" y="214"/>
			<point x="362" y="244"/>
			<point x="312" y="254" type="curve"/>
			<point x="312" y="258" type="line"/>
			<point x="368" y="276"/>
			<point x="416" y="321"/>
			<point x="416" y="384" type="curve" smooth="yes"/>
			<point x="416" y="454"/>
			<point x="376" y="490"/>
			<point x="294" y="490" type="curve" smooth="yes"/>
			<point x="180" y="490"/>
			<point x="46" y="370"/>
			<point x="46" y="140" type="curve" smooth="yes"/>
			<point x="46" y="46"/>
			<point x="108" y="-12"/>
		</contour>
		<contour>
			<point x="210" y="14" type="curve" smooth="yes"/>
			<point x="124" y="14"/>
			<point x="74" y="64"/>
			<point x="74" y="146" type="curve" smooth="yes"/>
			<point x="74" y="352"/>
			<point x="198" y="464"/>
			<point x="292" y="464" type="curve" smooth="yes"/>
			<point x="358" y="464"/>
			<point x="388" y="436"/>
			<point x="388" y="382" type="curve" smooth="yes"/>
			<point x="388" y="324"/>
			<point x="335" y="268"/>
			<point x="226" y="268" type="curve" smooth="yes"/>
			<point x="74" y="268" type="line"/>
			<point x="69" y="242" type="line"/>
			<point x="235" y="242" type="line" smooth="yes"/>
			<point x="322" y="242"/>
			<point x="374" y="210"/>
			<point x="374" y="148" type="curve" smooth="yes"/>
			<point x="374" y="74"/>
			<point x="304" y="14"/>
		</contour>
	</outline>
</glyph>
<glyph name="zhe" format="1">
	<unicode hex="0436"/>
	<advance width="612"/>
	<outline>
		<contour>
			<point x="-12" y="0" type="line"/>
			<point x="22" y="0" type="line"/>
			<point x="206" y="238" type="line"/>
			<point x="302" y="238" type="line"/>
			<point x="254" y="0" type="line"/>
			<point x="282" y="0" type="line"/>
			<point x="330" y="238" type="line"/>
			<point x="424" y="238" type="line"/>
			<point x="518" y="0" type="line"/>
			<point x="548" y="0" type="line"/>
			<point x="442" y="264" type="line"/>
			<point x="336" y="264" type="line"/>
			<point x="378" y="478" type="line"/>
			<point x="350" y="478" type="line"/>
			<point x="308" y="264" type="line"/>
			<point x="194" y="264" type="line"/>
		</contour>
		<contour>
			<point x="192" y="240" type="line"/>
			<point x="218" y="244" type="line"/>
			<point x="188" y="386" type="line" smooth="yes"/>
			<point x="170" y="470"/>
			<point x="142" y="490"/>
			<point x="107" y="490" type="curve" smooth="yes"/>
			<point x="100" y="490"/>
			<point x="91" y="488"/>
			<point x="86" y="486" type="curve"/>
			<point x="92" y="458" type="line"/>
			<point x="97" y="460"/>
			<point x="99" y="460"/>
			<point x="104" y="460" type="curve" smooth="yes"/>
			<point x="130" y="460"/>
			<point x="146" y="450"/>
			<point x="162" y="378" type="curve" smooth="yes"/>
		</contour>
		<contour>
			<point x="446" y="242" type="line"/>
			<point x="526" y="378" type="line" smooth="yes"/>
			<point x="566" y="446"/>
			<point x="586" y="460"/>
			<point x="610" y="460" type="curve" smooth="yes"/>
			<point x="614" y="460"/>
			<point x="616" y="460"/>
			<point x="623" y="458" type="curve"/>
			<point x="634" y="486" type="line"/>
			<point x="630" y="488"/>
			<point x="622" y="490"/>
			<point x="614" y="490" type="curve" smooth="yes"/>
			<point x="572" y="490"/>
			<point x="548" y="470"/>
			<point x="500" y="386" type="curve" smooth="yes"/>
			<point x="419" y="244" type="line"/>
		</contour>
		<contour>
			<point name="aboveLC" x="370" y="502" type="move"/>
		</contour>
	</outline>
</glyph>
<glyph name="el" format="1">
	<unicode hex="043B"/>
	<advance width="480"/>
	<outline>
		<contour>
			<point x="-16" y="-12" type="curve" smooth="yes"/>
			<point x="38" y="-12"/>
			<point x="82" y="38"/>
			<point x="116" y="142" type="curve" smooth="yes"/>
			<point x="150" y="246"/>
			<point x="188" y="348"/>
			<point x="220" y="452" type="curve"/>
			<point x="400" y="452" type="line"/>
			<point x="310" y="0" type="line"/>
			<point x="338" y="0" type="line"/>
			<point x="434" y="478" type="line"/>
			<point x="200" y="478" type="line"/>
			<point x="166" y="365"/>
			<point x="128" y="256"/>
			<point x="88" y="146" type="curve" smooth="yes"/>
			<point x="56" y="58"/>
			<point x="28" y="18"/>
			<point x="-14" y="18" type="curve" smooth="yes"/>
			<point x="-22" y="18"/>
			<point x="-29" y="20"/>
			<point x="-34" y="22" type="curve"/>
			<point x="-46" y="-6" type="line"/>
			<point x="-38" y="-10"/>
			<point x="-30" y="-12"/>
		</contour>
	</outline>
</glyph>
<glyph name="em" format="1">
	<unicode hex="043C"/>
	<advance width="614"/>
	<outline>
		<contour>
			<point x="10" y="-12" type="curve" smooth="yes"/>
			<point x="53" y="-12"/>
			<point x="82" y="28"/>
			<point x="106" y="122" type="curve" smooth="yes"/>
			<point x="134" y="230"/>
			<point x="151" y="315"/>
			<point x="168" y="422" type="curve"/>
			<point x="172" y="422" type="line"/>
			<point x="179" y="388"/>
			<point x="187" y="358"/>
			<point x="194" y="326" type="curve"/>
			<point x="258" y="48" type="line"/>
			<point x="290" y="48" type="line"/>
			<point x="467" y="326" type="line"/>
			<point x="488" y="358"/>
			<point x="508" y="388"/>
			<point x="529" y="422" type="curve"/>
			<point x="533" y="422" type="line"/>
			<point x="521" y="376"/>
			<point x="510" y="327"/>
			<point x="503" y="292" type="curve" smooth="yes"/>
			<point x="444" y="0" type="line"/>
			<point x="472" y="0" type="line"/>
			<point x="568" y="478" type="line"/>
			<point x="534" y="478" type="line"/>
			<point x="358" y="202" type="line" smooth="yes"/>
			<point x="333" y="162"/>
			<point x="306" y="118"/>
			<point x="280" y="76" type="curve"/>
			<point x="276" y="76" type="line"/>
			<point x="268" y="118"/>
			<point x="259" y="161"/>
			<point x="250" y="202" type="curve" smooth="yes"/>
			<point x="186" y="478" type="line"/>
			<point x="152" y="478" type="line"/>
			<point x="131" y="361"/>
			<point x="110" y="244"/>
			<point x="78" y="126" type="curve" smooth="yes"/>
			<point x="58" y="52"/>
			<point x="40" y="18"/>
			<point x="10" y="18" type="curve" smooth="yes"/>
			<point x="2" y="18"/>
			<point x="-8" y="20"/>
			<point x="-14" y="22" type="curve"/>
			<point x="-24" y="-6" type="line"/>
			<point x="-16" y="-10"/>
			<point x="-4" y="-12"/>
		</contour>
	</outline>
</glyph>
<glyph name="en" format="2">
	<unicode hex="043D"/>
	<advance width="514"/>
	<outline>
		<contour>
			<point x="44" y="0" type="line"/>
			<point x="72" y="0" type="line"/>
			<point x="120" y="238" type="line"/>
			<point x="392" y="238" type="line"/>
			<point x="344" y="0" type="line"/>
			<point x="372" y="0" type="line"/>
			<point x="468" y="478" type="line"/>
			<point x="440" y="478" type="line"/>
			<point x="398" y="264" type="line"/>
			<point x="126" y="264" type="line"/>
			<point x="168" y="478" type="line"/>
			<point x="140" y="478" type="line"/>
		</contour>
	</outline>
</glyph>
<glyph name="che" format="1">
	<unicode hex="0447"/>
	<advance width="440"/>
	<outline>
		<contour>
			<point x="270" y="0" type="line"/>
			<point x="298" y="0" type="line"/>
			<point x="394" y="478" type="line"/>
			<point x="366" y="478" type="line"/>
			<point x="320" y="250" type="line"/>
			<point x="282" y="238"/>
			<point x="240" y="228"/>
			<point x="200" y="228" type="curve" smooth="yes"/>
			<point x="132" y="228"/>
			<point x="90" y="258"/>
			<point x="90" y="334" type="curve" smooth="yes"/>
			<point x="90" y="348"/>
			<point x="92" y="364"/>
			<point x="96" y="382" type="curve" smooth="yes"/>
			<point x="116" y="478" type="line"/>
			<point x="88" y="478" type="line"/>
			<point x="68" y="382" type="line" smooth="yes"/>
			<point x="64" y="362"/>
			<point x="62" y="342"/>
			<point x="62" y="328" type="curve" smooth="yes"/>
			<point x="62" y="238"/>
			<point x="116" y="202"/>
			<point x="198" y="202" type="curve" smooth="yes"/>
			<point x="234" y="202"/>
			<point x="280" y="212"/>
			<point x="316" y="226" type="curve"/>
		</contour>
		<contour>
			<point name="aboveLC" x="250" y="502" type="move"/>
		</contour>
		<contour>
			<point name="aboveLC" x="257" y="502" type="move"/>
		</contour>
	</outline>
</glyph>
<glyph name="ecyr" format="1">
	<unicode hex="044D"/>
	<advance width="427"/>
	<outline>
		<contour>
			<point x="122" y="-12" type="curve" smooth="yes"/>
			<point x="264" y="-12"/>
			<point x="374" y="110"/>
			<point x="374" y="296" type="curve" smooth="yes"/>
			<point x="374" y="414"/>
			<point x="308" y="490"/>
			<point x="220" y="490" type="curve" smooth="yes"/>
			<point x="152" y="490"/>
			<point x="108" y="462"/>
			<point x="67" y="430" type="curve"/>
			<point x="82" y="409" type="line"/>
			<point x="122" y="442"/>
			<point x="162" y="464"/>
			<point x="218" y="464" type="curve" smooth="yes"/>
			<point x="294" y="464"/>
			<point x="346" y="394"/>
			<point x="346" y="290" type="curve" smooth="yes"/>
			<point x="346" y="130"/>
			<point x="248" y="14"/>
			<point x="124" y="14" type="curve" smooth="yes"/>
			<point x="72" y="14"/>
			<point x="26" y="40"/>
			<point x="1" y="72" type="curve"/>
			<point x="-20" y="52" type="line"/>
			<point x="10" y="16"/>
			<point x="60" y="-12"/>
		</contour>
		<contour>
			<point x="102" y="239" type="line"/>
			<point x="346" y="239" type="line"/>
			<point x="352" y="265" type="line"/>
			<point x="107" y="265" type="line"/>
		</contour>
		<contour>
			<point name="aboveLC" x="240" y="502" type="move"/>
		</contour>
	</outline>
</glyph>
<glyph name="yu" format="2">
	<unicode hex="044E"/>
	<advance width="682"/>
	<outline>
		<contour>
			<point x="44" y="0" type="line"/>
			<point x="72" y="0" type="line"/>
			<point x="120" y="238" type="line"/>
			<point x="262" y="238" type="line"/>
			<point x="268" y="264" type="line"/>
			<point x="126" y="264" type="line"/>
			<point x="168" y="478" type="line"/>
			<point x="140" y="478" type="line"/>
		</contour>
		<contour>
			<point x="392" y="-12" type="curve" smooth="yes"/>
			<point x="522" y="-12"/>
			<point x="636" y="126"/>
			<point x="636" y="304" type="curve" smooth="yes"/>
			<point x="636" y="424"/>
			<point x="574" y="490"/>
			<point x="476" y="490" type="curve" smooth="yes"/>
			<point x="346" y="490"/>
			<point x="238" y="354"/>
			<point x="238" y="176" type="curve" smooth="yes"/>
			<point x="238" y="56"/>
			<point x="294" y="-12"/>
		</contour>
		<contour>
			<point x="394" y="14" type="curve" smooth="yes"/>
			<point x="312" y="14"/>
			<point x="266" y="72"/>
			<point x="266" y="182" type="curve" smooth="yes"/>
			<point x="266" y="334"/>
			<point x="366" y="464"/>
			<point x="474" y="464" type="curve" smooth="yes"/>
			<point x="556" y="464"/>
			<point x="608" y="408"/>
			<point x="608" y="298" type="curve" smooth="yes"/>
			<point x="608" y="146"/>
			<point x="502" y="14"/>
		</contour>
	</outline>
	<anchor name="aboveLC" x="380" y="502"/>
</glyph>
<glyph name="ya" format="1">
	<unicode hex="044F"/>
	<advance width="456"/>
	<outline>
		<contour>
			<point x="287" y="0" type="line"/>
			<point x="315" y="0" type="line"/>
			<point x="410" y="478" type="line"/>
			<point x="277" y="478" type="line" smooth="yes"/>
			<point x="162" y="478"/>
			<point x="77" y="435"/>
			<point x="77" y="326" type="curve" smooth="yes"/>
			<point x="77" y="251"/>
			<point x="138" y="217"/>
			<point x="217" y="217" type="curve"/>
			<point x="331" y="217" type="line"/>
		</contour>
		<contour>
			<point x="239" y="244" type="line" smooth="yes"/>
			<point x="158" y="244"/>
			<point x="108" y="273"/>
			<point x="108" y="332" type="curve" smooth="yes"/>
			<point x="108" y="416"/>
			<point x="176" y="451"/>
			<point x="281" y="451" type="curve" smooth="yes"/>
			<point x="377" y="451" type="line"/>
			<point x="336" y="244" type="line"/>
		</contour>
		<contour>
			<point x="187" y="238" type="line"/>
			<point x="100" y="100" type="line" smooth="yes"/>
			<point x="56" y="30"/>
			<point x="34" y="18"/>
			<point x="10" y="18" type="curve" smooth="yes"/>
			<point x="3" y="18"/>
			<point x="2" y="18"/>
			<point x="-4" y="20" type="curve"/>
			<point x="-12" y="-8" type="line"/>
			<point x="-9" y="-10"/>
			<point x="0" y="-12"/>
			<point x="7" y="-12" type="curve" smooth="yes"/>
			<point x="44" y="-12"/>
			<point x="76" y="12"/>
			<point x="126" y="92" type="curve" smooth="yes"/>
			<point x="215" y="235" type="line"/>
		</contour>
		<contour>
			<point name="aboveLC" x="262" y="500" type="move"/>
		</contour>
	</outline>
</glyph>
<glyph name="ieukran" format="2">
	<unicode hex="0454"/>
	<advance width="428"/>
	<outline>
		<contour>
			<point x="210" y="-12" type="curve" smooth="yes"/>
			<point x="276" y="-12"/>
			<point x="324" y="18"/>
			<point x="358" y="44" type="curve"/>
			<point x="342" y="66" type="line"/>
			<point x="306" y="38"/>
			<point x="262" y="14"/>
			<point x="212" y="14" type="curve" smooth="yes"/>
			<point x="118" y="14"/>
			<point x="72" y="72"/>
			<point x="72" y="182" type="curve" smooth="yes"/>
			<point x="72" y="334"/>
			<point x="184" y="464"/>
			<point x="296" y="464" type="curve" smooth="yes"/>
			<point x="342" y="464"/>
			<point x="368" y="448"/>
			<point x="398" y="412" type="curve"/>
			<point x="418" y="432" type="line"/>
			<point x="386" y="468"/>
			<point x="352" y="490"/>
			<point x="298" y="490" type="curve" smooth="yes"/>
			<point x="174" y="490"/>
			<point x="44" y="364"/>
			<point x="44" y="176" type="curve" smooth="yes"/>
			<point x="44" y="56"/>
			<point x="108" y="-12"/>
		</contour>
		<contour>
			<point x="61" y="242" type="line"/>
			<point x="336" y="242" type="line"/>
			<point x="341" y="268" type="line"/>
			<point x="66" y="268" type="line"/>
		</contour>
	</outline>
	<anchor name="aboveLC" x="280" y="502"/>
</glyph>
<glyph name="dzhe" format="2">
	<unicode hex="045F"/>
	<advance width="504"/>
	<outline>
		<contour>
			<point x="148" y="-172" type="line"/>
			<point x="178" y="-172" type="line"/>
			<point x="208" y="-50" type="line"/>
			<point x="186" y="-50" type="line"/>
		</contour>
		<component base="u"/>
	</outline>
</glyph>
<glyph name="Izhitsa" format="1">
	<unicode hex="0474"/>
	<advance width="471"/>
	<outline>
		<contour>
			<point x="163" y="0" type="line"/>
			<point x="195" y="0" type="line"/>
			<point x="469" y="558" type="line" smooth="yes"/>
			<point x="497" y="617"/>
			<point x="516" y="641"/>
			<point x="543" y="641" type="curve" smooth="yes"/>
			<point x="552" y="641"/>
			<point x="558" y="639"/>
			<point x="563" y="635" type="curve"/>
			<point x="578" y="664" type="line"/>
			<point x="568" y="670"/>
			<point x="559" y="672"/>
			<point x="551" y="672" type="curve" smooth="yes"/>
			<point x="506" y="672"/>
			<point x="476" y="639"/>
			<point x="440" y="563" type="curve" smooth="yes"/>
			<point x="297" y="262" type="line"/>
			<point x="255" y="180"/>
			<point x="228" y="120"/>
			<point x="187" y="39" type="curve"/>
			<point x="183" y="39" type="line"/>
			<point x="172" y="120"/>
			<point x="167" y="180"/>
			<point x="158" y="262" type="curve" smooth="yes"/>
			<point x="114" y="660" type="line"/>
			<point x="83" y="660" type="line"/>
		</contour>
		<contour>
			<point name="aboveUC" x="300" y="682" type="move"/>
		</contour>
	</outline>
</glyph>
<glyph name="Gheup" format="2">
	<unicode hex="0490"/>
	<advance width="454"/>
	<outline>
		<contour>
			<point x="40" y="0" type="line"/>
			<point x="70" y="0" type="line"/>
			<point x="196" y="634" type="line"/>
			<point x="504" y="634" type="line"/>
			<point x="552" y="832" type="line"/>
			<point x="528" y="832" type="line"/>
			<point x="482" y="660" type="line"/>
			<point x="172" y="660" type="line"/>
		</contour>
	</outline>
</glyph>
<glyph name="gheup" format="2">
	<unicode hex="0491"/>
	<advance width="366"/>
	<outline>
		<contour>
			<point x="90" y="432" type="line"/>
			<point x="124" y="452" type="line"/>
			<point x="183" y="650" type="line"/>
			<point x="160" y="650" type="line"/>
		</contour>
		<component base="ghe"/>
	</outline>
</glyph>
<glyph name="Ghestroke" format="2">
	<unicode hex="0492"/>
	<advance width="470"/>
	<outline>
		<contour>
			<point x="44" y="338" type="line"/>
			<point x="324" y="338" type="line"/>
			<point x="330" y="364" type="line"/>
			<point x="132" y="364" type="line"/>
			<point x="50" y="362" type="line"/>
		</contour>
		<component base="Gamma" xOffset="16"/>
	</outline>
</glyph>
<glyph name="ghestroke" format="2">
	<unicode hex="0493"/>
	<advance width="366"/>
	<outline>
		<contour>
			<point x="152" y="-12" type="curve" smooth="yes"/>
			<point x="220" y="-12"/>
			<point x="278" y="18"/>
			<point x="318" y="48" type="curve"/>
			<point x="304" y="68" type="line"/>
			<point x="266" y="40"/>
			<point x="210" y="16"/>
			<point x="154" y="16" type="curve" smooth="yes"/>
			<point x="90" y="16"/>
			<point x="52" y="48"/>
			<point x="52" y="96" type="curve" smooth="yes"/>
			<point x="52" y="238"/>
			<point x="354" y="248"/>
			<point x="354" y="392" type="curve" smooth="yes"/>
			<point x="354" y="450"/>
			<point x="310" y="490"/>
			<point x="240" y="490" type="curve" smooth="yes"/>
			<point x="176" y="490"/>
			<point x="130" y="464"/>
			<point x="90" y="432" type="curve"/>
			<point x="106" y="412" type="line"/>
			<point x="144" y="442"/>
			<point x="184" y="462"/>
			<point x="238" y="462" type="curve" smooth="yes"/>
			<point x="296" y="462"/>
			<point x="326" y="432"/>
			<point x="326" y="390" type="curve" smooth="yes"/>
			<point x="326" y="272"/>
			<point x="24" y="262"/>
			<point x="24" y="94" type="curve" smooth="yes"/>
			<point x="24" y="26"/>
			<point x="76" y="-12"/>
		</contour>
		<contour>
			<point x="2" y="242" type="line"/>
			<point x="370" y="242" type="line"/>
			<point x="376" y="268" type="line"/>
			<point x="80" y="268" type="line"/>
			<point x="6" y="264" type="line"/>
		</contour>
	</outline>
</glyph>
<glyph name="Zhedescender" format="1">
	<unicode hex="0496"/>
	<advance width="754"/>
	<outline>
		<contour>
			<point x="630" y="-188" type="line"/>
			<point x="654" y="-188" type="line"/>
			<point x="700" y="10" type="line"/>
			<point x="702" y="26" type="line"/>
			<point x="661" y="26" type="line"/>
			<point x="656" y="0" type="line"/>
			<point x="668" y="0" type="line"/>
		</contour>
		<component base="Zhe"/>
	</outline>
</glyph>
<glyph name="zhedescender" format="1">
	<unicode hex="0497"/>
	<advance width="652"/>
	<outline>
		<contour>
			<point x="510" y="-172" type="line"/>
			<point x="532" y="-172" type="line"/>
			<point x="574" y="12" type="line"/>
			<point x="576" y="26" type="line"/>
			<point x="526" y="26" type="line"/>
			<point x="520" y="0" type="line"/>
			<point x="543" y="0" type="line"/>
		</contour>
		<component base="zhe"/>
	</outline>
</glyph>
<glyph name="Kadescender" format="1">
	<unicode hex="049A"/>
	<advance width="546"/>
	<outline>
		<contour>
			<point x="420" y="-188" type="line"/>
			<point x="444" y="-188" type="line"/>
			<point x="490" y="10" type="line"/>
			<point x="492" y="26" type="line"/>
			<point x="451" y="26" type="line"/>
			<point x="446" y="0" type="line"/>
			<point x="458" y="0" type="line"/>
		</contour>
		<component base="Ka"/>
	</outline>
</glyph>
<glyph name="kadescender" format="1">
	<unicode hex="049B"/>
	<advance width="484"/>
	<outline>
		<contour>
			<point x="342" y="-172" type="line"/>
			<point x="364" y="-172" type="line"/>
			<point x="406" y="12" type="line"/>
			<point x="408" y="26" type="line"/>
			<point x="358" y="26" type="line"/>
			<point x="352" y="0" type="line"/>
			<point x="375" y="0" type="line"/>
		</contour>
		<component base="ka"/>
	</outline>
</glyph>
<glyph name="kabashkir" format="2">
	<unicode hex="04A1"/>
	<advance width="544"/>
	<outline>
		<contour>
			<point x="265" y="478" type="line"/>
			<point x="66" y="478" type="line"/>
			<point x="60" y="452" type="line"/>
			<point x="253" y="452" type="line"/>
		</contour>
		<component base="ka" xOffset="108"/>
	</outline>
</glyph>
<glyph name="ustraight" format="2">
	<unicode hex="04AF"/>
	<advance width="408"/>
	<outline>
		<contour>
			<point x="96" y="-222" type="line"/>
			<point x="124" y="-222" type="line"/>
			<point x="168" y="0" type="line"/>
			<point x="438" y="478" type="line"/>
			<point x="408" y="478" type="line"/>
			<point x="240" y="178" type="line"/>
			<point x="214" y="132"/>
			<point x="188" y="84"/>
			<point x="164" y="38" type="curve"/>
			<point x="160" y="38" type="line"/>
			<point x="152" y="82"/>
			<point x="146" y="132"/>
			<point x="138" y="178" type="curve" smooth="yes"/>
			<point x="86" y="478" type="line"/>
			<point x="58" y="478" type="line"/>
			<point x="142" y="0" type="line"/>
		</contour>
	</outline>
	<anchor name="aboveLC" x="250" y="502"/>
</glyph>
<glyph name="Ustraightstroke" format="2">
	<unicode hex="04B0"/>
	<advance width="422"/>
	<outline>
		<contour>
			<point x="66" y="268" type="line"/>
			<point x="354" y="268" type="line"/>
			<point x="360" y="294" type="line"/>
			<point x="158" y="294" type="line"/>
			<point x="72" y="292" type="line"/>
		</contour>
		<component base="Ustraight"/>
	</outline>
	<anchor name="aboveUC" x="290" y="682"/>
</glyph>
<glyph name="Hadescender" format="1">
	<unicode hex="04B2"/>
	<advance width="446"/>
	<outline>
		<contour>
			<point x="338" y="-188" type="line"/>
			<point x="362" y="-188" type="line"/>
			<point x="408" y="10" type="line"/>
			<point x="410" y="26" type="line"/>
			<point x="367" y="26" type="line"/>
			<point x="362" y="0" type="line"/>
			<point x="376" y="0" type="line"/>
		</contour>
		<component base="X"/>
	</outline>
</glyph>
<glyph name="hadescender" format="1">
	<unicode hex="04B3"/>
	<advance width="430"/>
	<outline>
		<contour>
			<point x="282" y="-172" type="line"/>
			<point x="304" y="-172" type="line"/>
			<point x="346" y="12" type="line"/>
			<point x="348" y="26" type="line"/>
			<point x="298" y="26" type="line"/>
			<point x="292" y="0" type="line"/>
			<point x="315" y="0" type="line"/>
		</contour>
		<component base="x"/>
	</outline>
</glyph>
<glyph name="chedescender" format="2">
	<unicode hex="04B7"/>
	<advance width="438"/>
	<outline>
		<contour>
			<point x="290" y="-172" type="line"/>
			<point x="312" y="-172" type="line"/>
			<point x="354" y="12" type="line"/>
			<point x="356" y="26" type="line"/>
			<point x="286" y="26" type="line"/>
			<point x="280" y="0" type="line"/>
			<point x="323" y="0" type="line"/>
		</contour>
		<component base="che"/>
	</outline>
</glyph>
